<svg width="186" height="143" viewBox="0 0 186 143" fill="none" xmlns="http://www.w3.org/2000/svg">
<g clip-path="url(#clip0_1233_595)">
<path d="M45.0336 133.25C44.7239 133.25 44.417 133.242 44.1129 133.227L44.088 133.727C42.7957 133.662 41.5523 133.466 40.3668 133.154L40.4941 132.671C38.6745 132.192 36.9956 131.431 35.4908 130.449L35.2174 130.867C33.0877 129.477 31.2974 127.653 29.9375 125.554L30.3571 125.282C30.0245 124.769 29.7183 124.239 29.44 123.694L28.9948 123.921C28.4236 122.803 27.9668 121.626 27.6358 120.409L28.1183 120.278C27.6413 118.525 27.4332 116.689 27.53 114.832L27.0307 114.806C27.1567 112.388 27.7853 109.936 28.9927 107.581L29.4377 107.809C29.5766 107.538 29.7234 107.268 29.8782 107L30.3329 106.213L29.8999 105.963L31.7185 102.812L32.1515 103.062L34.8795 98.3375L34.4465 98.0875L38.0838 91.7875L38.5168 92.0375L39.4262 90.4625L38.9931 90.2125L40.8118 87.0625L41.2448 87.3125L43.9728 82.5875L43.5398 82.3375L47.1771 76.0375L47.6101 76.2875L48.5194 74.7125L48.0864 74.4625L49.9051 71.3125L50.3381 71.5625L53.0661 66.8375L52.633 66.5875L56.2704 60.2875L56.7034 60.5375L57.6127 58.9625L57.1797 58.7125L58.9983 55.5625L59.4313 55.8125L62.1593 51.0875L61.7263 50.8375L65.3636 44.5375L65.7966 44.7875L66.706 43.2125L66.2729 42.9625L68.0916 39.8125L68.5246 40.0625L71.2526 35.3375L70.8196 35.0875L74.4569 28.7875L74.8899 29.0375L75.3446 28.25C75.4994 27.9818 75.6595 27.7198 75.8247 27.4641L75.4047 27.1928C76.1067 26.1058 76.8981 25.127 77.761 24.2563L78.1161 24.6083C79.4406 23.272 80.9385 22.1981 82.5419 21.3862L82.3161 20.9401C84.5854 19.7912 87.0598 19.1525 89.5572 19.0242L89.5829 19.5235C90.1938 19.4921 90.8062 19.4921 91.4171 19.5235L91.4428 19.0242C92.6966 19.0886 93.9447 19.2817 95.164 19.6034L95.0364 20.0869C96.7931 20.5504 98.4874 21.2883 100.047 22.3002L100.319 21.8808C102.35 23.199 104.16 24.9697 105.595 27.1928L105.175 27.4641C105.34 27.7198 105.501 27.9818 105.655 28.25L106.11 29.0375L106.543 28.7875L108.362 31.9375L107.929 32.1875L110.657 36.9125L111.09 36.6625L114.727 42.9625L114.294 43.2125L115.203 44.7875L115.636 44.5375L117.455 47.6875L117.022 47.9375L119.75 52.6625L120.183 52.4125L123.82 58.7125L123.387 58.9625L124.297 60.5375L124.73 60.2875L126.548 63.4375L126.115 63.6875L128.843 68.4125L129.276 68.1625L132.914 74.4625L132.481 74.7125L133.39 76.2875L133.823 76.0375L135.642 79.1875L135.209 79.4375L137.937 84.1625L138.37 83.9125L142.007 90.2125L141.574 90.4625L142.483 92.0375L142.916 91.7875L144.735 94.9375L144.302 95.1875L147.03 99.9125L147.463 99.6625L151.1 105.963L150.667 106.213L151.122 107C151.277 107.268 151.423 107.538 151.562 107.809L152.007 107.581C152.598 108.732 153.05 109.907 153.372 111.09L152.89 111.221C153.385 113.036 153.566 114.87 153.467 116.665L153.967 116.692C153.827 119.232 153.143 121.694 152.005 123.921L151.56 123.694C151.282 124.239 150.975 124.769 150.643 125.282L151.062 125.554C150.38 126.608 149.588 127.592 148.7 128.487L148.345 128.135C147.066 129.425 145.579 130.523 143.923 131.367L144.151 131.813C141.993 132.913 139.555 133.595 136.912 133.727L136.887 133.227C136.583 133.242 136.276 133.25 135.966 133.25H135.057V133.75H131.42V133.25H125.964V133.75H118.689V133.25H116.87V133.75H113.233V133.25H107.777V133.75H100.503V133.25H98.6839V133.75H95.0466V133.25H89.5907V133.75H82.316V133.25H80.4974V133.75H76.8601V133.25H71.4041V133.75H64.1295V133.25H62.3108V133.75H58.6735V133.25H53.2176V133.75H45.943V133.25H45.0336Z" stroke="url(#paint0_linear_1233_595)" stroke-dasharray="2 4 6 8"/>
<path d="M170.667 130.062C170.068 130.063 169.486 129.891 169.009 129.573C168.532 129.255 168.186 128.808 168.025 128.301C167.862 127.802 167.928 127.266 168.208 126.809C168.488 126.351 168.96 126.008 169.524 125.852L170.8 125.495C172.342 125.189 173.853 124.778 175.321 124.263C176.16 123.923 177.055 123.703 177.973 123.611C178.26 123.599 178.546 123.645 178.81 123.747C179.073 123.848 179.307 124.002 179.491 124.195C179.686 124.429 179.819 124.697 179.882 124.981C179.944 125.266 179.934 125.558 179.852 125.839C179.775 126.26 179.573 126.657 179.266 126.988C178.96 127.319 178.56 127.574 178.106 127.726L171.65 129.904C171.335 130.008 171.002 130.062 170.667 130.062ZM178.003 124.286C177.177 124.384 176.372 124.59 175.614 124.897C174.121 125.419 172.584 125.836 171.017 126.147L169.776 126.495C169.404 126.599 169.093 126.825 168.909 127.127C168.724 127.429 168.681 127.782 168.787 128.111C168.861 128.346 168.991 128.564 169.169 128.75C169.347 128.937 169.568 129.088 169.817 129.193C170.062 129.302 170.33 129.365 170.604 129.377C170.878 129.39 171.152 129.352 171.408 129.266L177.87 127.088C178.196 126.978 178.483 126.795 178.704 126.557C178.924 126.318 179.07 126.033 179.126 125.73C179.126 125.73 179.126 125.73 179.126 125.703C179.184 125.521 179.195 125.331 179.159 125.145C179.122 124.96 179.039 124.784 178.915 124.63C178.806 124.512 178.666 124.418 178.508 124.358C178.349 124.298 178.176 124.274 178.003 124.286Z" fill="#D87D2B"/>
<path d="M168.958 130.188C169.867 130.019 170.701 129.829 171.455 129.624C170.866 129.624 170.351 129.624 169.892 129.589C169.634 129.862 169.314 130.067 168.958 130.188V130.188Z" fill="url(#paint1_linear_1233_595)"/>
<path d="M162.384 135.086C158.835 135.101 155.303 134.596 151.9 133.588C151.826 133.563 151.762 133.515 151.716 133.452C151.67 133.388 151.646 133.312 151.646 133.234V124.247C151.645 124.198 151.655 124.148 151.674 124.102C151.692 124.055 151.72 124.013 151.755 123.978C151.831 123.918 151.923 123.882 152.02 123.873C159.563 123.908 160.856 124.647 162.005 125.301C162.933 125.84 163.742 126.299 168.4 126.249C169 126.239 169.58 126.463 170.017 126.873C170.254 127.138 170.43 127.451 170.533 127.791C170.636 128.131 170.665 128.489 170.616 128.84C170.6 129.069 170.537 129.291 170.432 129.494C172.564 128.99 174.648 128.301 176.662 127.438C178.275 126.774 179.158 126.409 179.782 126.938C179.967 127.072 180.115 127.249 180.216 127.454C180.317 127.658 180.367 127.884 180.361 128.112C180.311 129.03 179.293 129.739 179.178 129.814C173.771 133.968 167.531 135.086 162.384 135.086ZM152.399 132.949C154.436 133.563 168.235 137.287 178.739 129.205C178.968 129.045 179.583 128.531 179.607 128.067C179.607 127.992 179.607 127.777 179.298 127.507C178.988 127.238 178.15 127.637 176.942 128.132C174.402 129.231 171.748 130.044 169.029 130.558C168.937 130.575 168.841 130.557 168.762 130.508C168.682 130.458 168.624 130.38 168.599 130.29C168.574 130.2 168.584 130.103 168.626 130.02C168.669 129.936 168.741 129.872 168.829 129.839C169.483 129.589 169.828 129.24 169.862 128.795C169.901 128.55 169.887 128.3 169.822 128.061C169.756 127.822 169.641 127.599 169.483 127.408C169.194 127.137 168.81 126.992 168.415 127.003C163.537 127.058 162.649 126.549 161.625 125.96C160.602 125.371 159.409 124.682 152.399 124.627V132.949Z" fill="#D87D2B"/>
<path d="M165.479 130.977C164.019 130.965 162.562 130.857 161.116 130.653C161.064 130.651 161.013 130.638 160.966 130.615C160.919 130.592 160.878 130.559 160.844 130.519C160.811 130.479 160.786 130.433 160.772 130.383C160.757 130.333 160.753 130.28 160.76 130.228C160.767 130.177 160.785 130.127 160.812 130.083C160.839 130.038 160.876 130 160.919 129.97C160.961 129.941 161.01 129.921 161.061 129.911C161.112 129.901 161.165 129.902 161.216 129.914C165.484 130.478 167.706 130.178 168.849 129.834C168.897 129.815 168.948 129.807 169 129.809C169.051 129.811 169.101 129.824 169.148 129.846C169.194 129.868 169.235 129.9 169.269 129.939C169.302 129.978 169.327 130.024 169.342 130.073C169.357 130.122 169.362 130.174 169.357 130.225C169.351 130.276 169.335 130.325 169.309 130.37C169.283 130.414 169.249 130.453 169.207 130.484C169.166 130.514 169.119 130.536 169.069 130.548C167.9 130.865 166.69 131.01 165.479 130.977V130.977Z" fill="#D87D2B"/>
<path d="M152.025 133.239H150.028V128.247C150.028 127.717 150.239 127.209 150.613 126.835C150.988 126.46 151.496 126.25 152.025 126.25V133.239Z" fill="url(#paint2_linear_1233_595)"/>
<path d="M152.025 133.613H148.031C147.932 133.612 147.837 133.572 147.767 133.502C147.697 133.432 147.658 133.338 147.656 133.239V124.253C147.656 124.153 147.696 124.058 147.766 123.988C147.836 123.918 147.931 123.878 148.031 123.878H152.025C152.124 123.878 152.219 123.918 152.289 123.988C152.36 124.058 152.399 124.153 152.399 124.253V133.239C152.398 133.338 152.358 133.432 152.288 133.502C152.218 133.572 152.123 133.612 152.025 133.613ZM148.405 132.864H151.665V124.627H148.42L148.405 132.864Z" fill="#D87D2B"/>
<path d="M150.028 131.741C150.303 131.741 150.527 131.517 150.527 131.241C150.527 130.966 150.303 130.742 150.028 130.742C149.752 130.742 149.528 130.966 149.528 131.241C149.528 131.517 149.752 131.741 150.028 131.741Z" fill="#D87D2B"/>
<path d="M177.985 113.769C177.98 111.838 177.463 109.943 176.487 108.277C174.392 107.064 171.955 106.577 169.555 106.891C167.155 107.206 164.926 108.304 163.215 110.016C161.503 111.728 160.405 113.958 160.092 116.358C159.778 118.758 160.266 121.195 161.48 123.289C163.148 124.252 165.039 124.759 166.965 124.761C168.891 124.762 170.783 124.257 172.452 123.296C174.121 122.335 175.507 120.952 176.473 119.286C177.439 117.62 177.95 115.729 177.955 113.804L177.985 113.769Z" fill="url(#paint3_linear_1233_595)"/>
<path d="M167.002 125.126C164.755 125.126 162.559 124.46 160.692 123.212C158.824 121.964 157.368 120.19 156.509 118.115C155.649 116.04 155.424 113.756 155.862 111.553C156.301 109.35 157.382 107.326 158.971 105.738C160.559 104.149 162.583 103.068 164.786 102.629C166.989 102.191 169.273 102.416 171.348 103.276C173.423 104.135 175.197 105.591 176.445 107.459C177.693 109.326 178.359 111.522 178.359 113.769C178.355 116.78 177.157 119.666 175.028 121.795C172.899 123.924 170.013 125.122 167.002 125.126V125.126ZM167.002 103.16C164.904 103.163 162.854 103.788 161.112 104.955C159.369 106.123 158.012 107.781 157.211 109.719C156.41 111.658 156.203 113.791 156.614 115.847C157.025 117.904 158.036 119.793 159.52 121.275C161.005 122.758 162.895 123.766 164.952 124.175C167.01 124.583 169.142 124.372 171.08 123.568C173.017 122.765 174.673 121.405 175.838 119.661C177.003 117.917 177.625 115.866 177.625 113.769C177.623 110.953 176.502 108.254 174.51 106.265C172.518 104.275 169.817 103.159 167.002 103.16V103.16Z" fill="#D87D2B"/>
<path d="M179.767 111.772C179.68 111.772 179.595 111.742 179.527 111.686C179.46 111.631 179.414 111.553 179.398 111.467C178.958 109.114 177.854 106.934 176.217 105.187C176.147 105.117 176.108 105.022 176.108 104.922C176.108 104.823 176.147 104.728 176.217 104.658C176.288 104.589 176.383 104.55 176.482 104.55C176.581 104.55 176.676 104.589 176.747 104.658C178.485 106.515 179.656 108.831 180.121 111.333C180.138 111.43 180.115 111.529 180.06 111.61C180.004 111.691 179.918 111.747 179.822 111.767L179.767 111.772Z" fill="#D87D2B"/>
<path d="M174.989 103.909C174.906 103.909 174.825 103.881 174.76 103.829C174.428 103.569 174.083 103.325 173.726 103.1C173.647 103.048 173.59 102.967 173.567 102.874C173.545 102.782 173.559 102.684 173.607 102.601C173.66 102.522 173.74 102.466 173.833 102.444C173.925 102.422 174.023 102.435 174.106 102.481C174.48 102.721 174.85 102.98 175.199 103.255C175.238 103.285 175.271 103.322 175.296 103.365C175.32 103.407 175.336 103.455 175.342 103.503C175.348 103.552 175.344 103.602 175.331 103.649C175.317 103.697 175.295 103.741 175.264 103.779C175.23 103.819 175.188 103.851 175.14 103.873C175.093 103.896 175.042 103.908 174.989 103.909V103.909Z" fill="#D87D2B"/>
<path d="M174.99 113.769C174.989 112.636 174.747 111.516 174.281 110.484C172.803 109.82 171.159 109.622 169.565 109.914C167.972 110.207 166.506 110.977 165.361 112.123C164.215 113.268 163.445 114.734 163.152 116.327C162.86 117.921 163.058 119.565 163.722 121.043C164.751 121.513 165.87 121.756 167.002 121.756C169.12 121.756 171.152 120.915 172.65 119.417C174.148 117.919 174.99 115.887 174.99 113.769Z" fill="url(#paint4_linear_1233_595)"/>
<path d="M167.001 122.131C165.347 122.131 163.731 121.64 162.356 120.721C160.98 119.803 159.909 118.497 159.276 116.969C158.643 115.441 158.477 113.759 158.8 112.137C159.123 110.515 159.919 109.025 161.088 107.856C162.258 106.686 163.748 105.89 165.37 105.567C166.992 105.245 168.673 105.41 170.201 106.043C171.729 106.676 173.035 107.748 173.954 109.123C174.873 110.498 175.363 112.115 175.363 113.769C175.359 115.985 174.477 118.11 172.91 119.677C171.343 121.245 169.218 122.127 167.001 122.131V122.131ZM167.001 106.155C165.496 106.158 164.026 106.607 162.776 107.446C161.526 108.284 160.552 109.474 159.978 110.866C159.404 112.257 159.256 113.787 159.551 115.263C159.847 116.739 160.573 118.094 161.638 119.157C162.703 120.221 164.06 120.944 165.536 121.237C167.013 121.529 168.543 121.378 169.933 120.801C171.323 120.224 172.512 119.248 173.348 117.997C174.183 116.745 174.63 115.274 174.63 113.769C174.627 111.748 173.822 109.81 172.391 108.383C170.961 106.955 169.022 106.154 167.001 106.155V106.155Z" fill="#D87D2B"/>
<path d="M172.388 116.764C172.331 116.765 172.275 116.753 172.224 116.729C172.136 116.684 172.069 116.607 172.038 116.514C172.006 116.421 172.012 116.319 172.054 116.23C172.425 115.463 172.618 114.623 172.618 113.771C172.618 112.92 172.425 112.079 172.054 111.313C172.016 111.224 172.014 111.124 172.048 111.034C172.082 110.944 172.149 110.871 172.236 110.829C172.323 110.787 172.422 110.78 172.514 110.81C172.605 110.84 172.682 110.903 172.728 110.988C173.148 111.856 173.367 112.809 173.367 113.774C173.367 114.739 173.148 115.691 172.728 116.559C172.696 116.622 172.647 116.674 172.587 116.71C172.527 116.747 172.458 116.765 172.388 116.764V116.764Z" fill="#D87D2B"/>
<path d="M161.615 116.764C161.544 116.765 161.475 116.745 161.415 116.708C161.355 116.671 161.306 116.618 161.275 116.554C160.853 115.687 160.634 114.734 160.636 113.769C160.632 112.803 160.853 111.849 161.28 110.983C161.323 110.894 161.4 110.826 161.493 110.794C161.586 110.762 161.688 110.768 161.777 110.811C161.866 110.854 161.934 110.93 161.966 111.023C161.998 111.117 161.992 111.219 161.949 111.307C161.578 112.074 161.385 112.915 161.385 113.766C161.385 114.618 161.578 115.458 161.949 116.225C161.991 116.314 161.997 116.416 161.965 116.509C161.934 116.602 161.867 116.679 161.78 116.724C161.728 116.749 161.672 116.763 161.615 116.764Z" fill="#D87D2B"/>
<path d="M157.517 114.143C157.723 114.143 157.891 113.975 157.891 113.768C157.891 113.562 157.723 113.394 157.517 113.394C157.31 113.394 157.142 113.562 157.142 113.768C157.142 113.975 157.31 114.143 157.517 114.143Z" fill="#D87D2B"/>
<path d="M176.487 114.143C176.694 114.143 176.861 113.975 176.861 113.768C176.861 113.562 176.694 113.394 176.487 113.394C176.28 113.394 176.112 113.562 176.112 113.768C176.112 113.975 176.28 114.143 176.487 114.143Z" fill="#D87D2B"/>
<path d="M167.001 123.628C167.208 123.628 167.376 123.461 167.376 123.254C167.376 123.047 167.208 122.88 167.001 122.88C166.795 122.88 166.627 123.047 166.627 123.254C166.627 123.461 166.795 123.628 167.001 123.628Z" fill="#D87D2B"/>
<path d="M167.001 104.653C167.208 104.653 167.376 104.485 167.376 104.278C167.376 104.071 167.208 103.904 167.001 103.904C166.795 103.904 166.627 104.071 166.627 104.278C166.627 104.485 166.795 104.653 167.001 104.653Z" fill="#D87D2B"/>
<path d="M173.447 120.209C173.481 120.172 173.522 120.143 173.568 120.122C173.614 120.102 173.664 120.091 173.714 120.09C173.764 120.089 173.814 120.098 173.861 120.117C173.907 120.136 173.95 120.164 173.985 120.2C174.021 120.235 174.049 120.277 174.068 120.324C174.087 120.371 174.096 120.421 174.095 120.471C174.094 120.521 174.083 120.571 174.063 120.617C174.042 120.663 174.013 120.704 173.976 120.738C173.905 120.804 173.811 120.84 173.714 120.839C173.617 120.837 173.524 120.798 173.456 120.729C173.387 120.66 173.348 120.568 173.346 120.471C173.345 120.374 173.381 120.28 173.447 120.209V120.209Z" fill="#D87D2B"/>
<path d="M160.027 106.794C160.097 106.724 160.193 106.685 160.292 106.685C160.391 106.685 160.486 106.724 160.556 106.794C160.592 106.829 160.62 106.87 160.639 106.915C160.658 106.961 160.668 107.01 160.668 107.059C160.668 107.108 160.658 107.157 160.639 107.202C160.62 107.248 160.592 107.289 160.556 107.323C160.485 107.39 160.392 107.426 160.295 107.424C160.198 107.422 160.105 107.383 160.036 107.314C159.968 107.246 159.929 107.153 159.927 107.056C159.925 106.959 159.961 106.865 160.027 106.794Z" fill="#D87D2B"/>
<path d="M173.447 107.324C173.411 107.289 173.383 107.248 173.364 107.203C173.345 107.157 173.335 107.109 173.335 107.059C173.335 107.01 173.345 106.961 173.364 106.916C173.383 106.87 173.411 106.829 173.447 106.795C173.499 106.742 173.566 106.707 173.638 106.692C173.711 106.678 173.786 106.685 173.855 106.713C173.923 106.742 173.982 106.79 174.023 106.851C174.064 106.913 174.086 106.985 174.086 107.059C174.086 107.133 174.064 107.206 174.023 107.267C173.982 107.329 173.923 107.377 173.855 107.405C173.786 107.434 173.711 107.441 173.638 107.426C173.566 107.412 173.499 107.376 173.447 107.324V107.324Z" fill="#D87D2B"/>
<path d="M160.027 120.738C159.961 120.667 159.925 120.573 159.927 120.476C159.929 120.379 159.968 120.286 160.036 120.218C160.105 120.149 160.198 120.11 160.295 120.108C160.392 120.107 160.485 120.143 160.556 120.209C160.623 120.28 160.659 120.374 160.657 120.471C160.655 120.568 160.616 120.66 160.547 120.729C160.479 120.797 160.386 120.837 160.289 120.838C160.192 120.84 160.098 120.804 160.027 120.738Z" fill="#D87D2B"/>
<path d="M175.419 117.253C175.438 117.207 175.466 117.165 175.502 117.129C175.537 117.094 175.579 117.066 175.626 117.047C175.672 117.028 175.722 117.018 175.772 117.019C175.822 117.019 175.872 117.029 175.918 117.049C175.964 117.067 176.005 117.095 176.04 117.13C176.075 117.164 176.103 117.206 176.122 117.251C176.141 117.296 176.151 117.345 176.151 117.394C176.151 117.444 176.141 117.492 176.123 117.538C176.104 117.584 176.077 117.625 176.042 117.66C176.007 117.695 175.966 117.723 175.921 117.742C175.875 117.761 175.826 117.771 175.777 117.771C175.728 117.771 175.679 117.761 175.634 117.743C175.541 117.706 175.466 117.634 175.426 117.542C175.385 117.451 175.383 117.347 175.419 117.253Z" fill="#D87D2B"/>
<path d="M157.891 109.995C157.929 109.903 158.001 109.829 158.093 109.791C158.185 109.753 158.288 109.752 158.38 109.79C158.472 109.828 158.545 109.9 158.584 109.992C158.622 110.084 158.622 110.187 158.585 110.279C158.547 110.371 158.474 110.445 158.383 110.483C158.291 110.521 158.188 110.522 158.096 110.484C158.004 110.446 157.93 110.373 157.892 110.282C157.853 110.19 157.853 110.087 157.891 109.995Z" fill="#D87D2B"/>
<path d="M170.491 105.346C170.441 105.331 170.395 105.306 170.356 105.272C170.316 105.237 170.284 105.195 170.262 105.148C170.24 105.101 170.227 105.05 170.226 104.998C170.225 104.945 170.234 104.893 170.254 104.845C170.274 104.797 170.304 104.753 170.342 104.717C170.38 104.681 170.425 104.654 170.474 104.636C170.523 104.618 170.575 104.611 170.627 104.615C170.679 104.618 170.73 104.633 170.776 104.657C170.822 104.677 170.865 104.705 170.9 104.74C170.935 104.776 170.963 104.818 170.983 104.864C171.002 104.911 171.011 104.961 171.011 105.011C171.011 105.061 171 105.11 170.981 105.157C170.94 105.246 170.866 105.316 170.775 105.352C170.683 105.387 170.582 105.385 170.491 105.346V105.346Z" fill="#D87D2B"/>
<path d="M163.227 122.875C163.16 122.845 163.103 122.796 163.064 122.734C163.024 122.672 163.004 122.599 163.005 122.526C163.007 122.452 163.03 122.381 163.072 122.32C163.114 122.26 163.172 122.213 163.241 122.185C163.309 122.158 163.384 122.152 163.456 122.167C163.528 122.181 163.594 122.217 163.646 122.27C163.698 122.322 163.733 122.388 163.747 122.46C163.761 122.532 163.754 122.607 163.726 122.675C163.708 122.722 163.68 122.765 163.644 122.8C163.609 122.836 163.566 122.864 163.52 122.883C163.473 122.902 163.423 122.91 163.373 122.909C163.322 122.908 163.273 122.896 163.227 122.875V122.875Z" fill="#D87D2B"/>
<path d="M175.419 110.279C175.399 110.233 175.389 110.183 175.389 110.133C175.388 110.083 175.398 110.033 175.417 109.987C175.436 109.94 175.464 109.898 175.5 109.863C175.535 109.827 175.577 109.799 175.624 109.78C175.716 109.742 175.819 109.743 175.911 109.781C176.002 109.819 176.075 109.893 176.113 109.985C176.151 110.077 176.15 110.18 176.112 110.272C176.073 110.363 176 110.436 175.908 110.474C175.817 110.512 175.715 110.514 175.624 110.477C175.532 110.441 175.458 110.37 175.419 110.279V110.279Z" fill="#D87D2B"/>
<path d="M157.891 117.538C157.87 117.492 157.86 117.442 157.859 117.392C157.858 117.341 157.868 117.291 157.887 117.245C157.906 117.198 157.934 117.156 157.97 117.121C158.006 117.085 158.049 117.057 158.095 117.039C158.142 117.019 158.191 117.009 158.241 117.009C158.292 117.008 158.341 117.018 158.388 117.037C158.434 117.056 158.476 117.084 158.512 117.119C158.547 117.155 158.576 117.197 158.595 117.243C158.632 117.335 158.632 117.439 158.594 117.53C158.555 117.622 158.482 117.695 158.39 117.733C158.298 117.77 158.195 117.77 158.103 117.732C158.011 117.693 157.938 117.62 157.901 117.528L157.891 117.538Z" fill="#D87D2B"/>
<path d="M163.517 105.346C163.448 105.374 163.374 105.381 163.302 105.367C163.229 105.353 163.163 105.318 163.111 105.266C163.059 105.214 163.023 105.148 163.008 105.076C162.993 105.004 162.999 104.929 163.027 104.861C163.054 104.793 163.101 104.734 163.161 104.692C163.222 104.65 163.293 104.627 163.367 104.626C163.441 104.624 163.513 104.644 163.575 104.684C163.637 104.723 163.686 104.78 163.716 104.847C163.737 104.893 163.748 104.942 163.749 104.992C163.75 105.043 163.741 105.092 163.722 105.139C163.703 105.186 163.676 105.228 163.64 105.263C163.605 105.299 163.563 105.327 163.517 105.346V105.346Z" fill="#D87D2B"/>
<path d="M170.776 122.875C170.73 122.895 170.681 122.906 170.631 122.907C170.58 122.908 170.531 122.899 170.484 122.881C170.438 122.862 170.395 122.834 170.36 122.799C170.324 122.763 170.296 122.721 170.277 122.675C170.256 122.629 170.244 122.579 170.243 122.529C170.242 122.478 170.252 122.428 170.271 122.381C170.29 122.334 170.319 122.292 170.355 122.256C170.391 122.221 170.434 122.194 170.481 122.176C170.528 122.151 170.578 122.137 170.63 122.133C170.682 122.129 170.735 122.137 170.784 122.154C170.833 122.172 170.878 122.2 170.915 122.236C170.953 122.272 170.983 122.315 171.003 122.364C171.023 122.412 171.033 122.464 171.031 122.516C171.03 122.568 171.018 122.619 170.995 122.667C170.973 122.714 170.941 122.756 170.902 122.79C170.862 122.824 170.816 122.849 170.766 122.865L170.776 122.875Z" fill="#D87D2B"/>
<path d="M167.007 118.886C166.375 118.915 165.748 118.768 165.195 118.461C164.642 118.154 164.186 117.7 163.876 117.149C163.833 117.059 163.826 116.956 163.859 116.862C163.891 116.768 163.959 116.69 164.049 116.647C164.138 116.603 164.241 116.597 164.335 116.629C164.429 116.661 164.507 116.73 164.55 116.819C164.801 117.242 165.162 117.588 165.595 117.82C166.028 118.052 166.516 118.162 167.007 118.137C168.449 118.137 169.623 117.238 169.623 116.14C169.623 114.852 168.689 114.143 166.997 114.143C164.89 114.143 163.632 113.115 163.632 111.397C163.632 109.9 165.13 108.652 166.997 108.652C167.628 108.621 168.255 108.768 168.808 109.073C169.36 109.379 169.817 109.833 170.127 110.384C170.151 110.428 170.166 110.477 170.17 110.528C170.175 110.578 170.169 110.629 170.154 110.677C170.138 110.726 170.113 110.77 170.08 110.808C170.046 110.846 170.006 110.877 169.96 110.899C169.914 110.921 169.865 110.934 169.814 110.936C169.763 110.938 169.713 110.93 169.666 110.912C169.618 110.895 169.575 110.867 169.538 110.832C169.502 110.797 169.473 110.755 169.453 110.708C169.201 110.288 168.839 109.943 168.407 109.713C167.974 109.483 167.486 109.374 166.997 109.4C165.554 109.4 164.381 110.294 164.381 111.397C164.381 112.68 165.309 113.394 166.997 113.394C169.108 113.394 170.371 114.393 170.371 116.14C170.371 117.668 168.864 118.886 167.007 118.886Z" fill="#D87D2B"/>
<path d="M166.996 120.383C166.898 120.382 166.803 120.342 166.733 120.272C166.663 120.202 166.623 120.108 166.622 120.009V107.528C166.622 107.429 166.662 107.334 166.732 107.263C166.802 107.193 166.897 107.154 166.996 107.154C167.096 107.154 167.191 107.193 167.261 107.263C167.331 107.334 167.371 107.429 167.371 107.528V120.009C167.371 120.108 167.331 120.204 167.261 120.274C167.191 120.344 167.096 120.383 166.996 120.383Z" fill="#D87D2B"/>
<path d="M154.021 121.627C153.75 121.627 153.484 121.546 153.259 121.396C153.033 121.245 152.857 121.03 152.753 120.779C152.649 120.529 152.622 120.252 152.675 119.986C152.728 119.72 152.859 119.475 153.051 119.283C153.243 119.091 153.487 118.96 153.753 118.907C154.02 118.855 154.296 118.882 154.547 118.986C154.798 119.09 155.012 119.265 155.163 119.491C155.314 119.717 155.394 119.982 155.394 120.254C155.394 120.618 155.25 120.967 154.992 121.225C154.735 121.482 154.385 121.627 154.021 121.627ZM154.021 119.63C153.898 119.63 153.777 119.667 153.675 119.735C153.572 119.804 153.492 119.901 153.445 120.015C153.398 120.129 153.385 120.255 153.409 120.376C153.433 120.497 153.493 120.608 153.58 120.695C153.667 120.783 153.779 120.842 153.9 120.866C154.021 120.89 154.146 120.878 154.26 120.831C154.374 120.783 154.472 120.703 154.54 120.601C154.609 120.498 154.645 120.377 154.645 120.254C154.645 120.088 154.58 119.93 154.463 119.813C154.346 119.696 154.187 119.63 154.021 119.63Z" fill="#D87D2B"/>
<path d="M178.988 123.628C178.717 123.628 178.451 123.548 178.225 123.397C178 123.246 177.824 123.032 177.72 122.781C177.616 122.53 177.589 122.254 177.642 121.988C177.695 121.721 177.825 121.477 178.017 121.285C178.209 121.093 178.454 120.962 178.72 120.909C178.987 120.856 179.263 120.883 179.514 120.987C179.764 121.091 179.979 121.267 180.13 121.493C180.28 121.718 180.361 121.984 180.361 122.255C180.361 122.62 180.216 122.969 179.959 123.226C179.701 123.484 179.352 123.628 178.988 123.628ZM178.988 121.631C178.865 121.631 178.744 121.668 178.641 121.737C178.539 121.805 178.459 121.903 178.412 122.017C178.364 122.131 178.352 122.256 178.376 122.377C178.4 122.498 178.46 122.609 178.547 122.697C178.634 122.784 178.745 122.843 178.866 122.868C178.987 122.892 179.113 122.879 179.227 122.832C179.341 122.785 179.438 122.705 179.507 122.602C179.576 122.5 179.612 122.379 179.612 122.255C179.612 122.09 179.546 121.931 179.429 121.814C179.312 121.697 179.154 121.631 178.988 121.631Z" fill="#D87D2B"/>
<path d="M149.029 117.633C148.758 117.633 148.492 117.552 148.266 117.402C148.041 117.251 147.865 117.036 147.761 116.785C147.657 116.535 147.63 116.259 147.683 115.992C147.736 115.726 147.866 115.481 148.058 115.289C148.25 115.097 148.495 114.967 148.761 114.914C149.028 114.861 149.304 114.888 149.555 114.992C149.805 115.096 150.02 115.272 150.171 115.497C150.322 115.723 150.402 115.989 150.402 116.26C150.402 116.624 150.257 116.973 150 117.231C149.742 117.488 149.393 117.633 149.029 117.633ZM149.029 115.636C148.906 115.636 148.785 115.673 148.682 115.741C148.58 115.81 148.5 115.907 148.453 116.021C148.405 116.135 148.393 116.261 148.417 116.382C148.441 116.503 148.501 116.614 148.588 116.701C148.675 116.789 148.786 116.848 148.907 116.872C149.028 116.896 149.154 116.884 149.268 116.837C149.382 116.789 149.479 116.709 149.548 116.607C149.617 116.504 149.653 116.384 149.653 116.26C149.653 116.095 149.587 115.936 149.47 115.819C149.353 115.702 149.195 115.636 149.029 115.636Z" fill="#D87D2B"/>
<path d="M153.023 112.141C152.751 112.141 152.486 112.061 152.26 111.91C152.034 111.759 151.858 111.545 151.754 111.294C151.65 111.043 151.623 110.767 151.676 110.501C151.729 110.234 151.86 109.99 152.052 109.798C152.244 109.606 152.489 109.475 152.755 109.422C153.021 109.369 153.297 109.396 153.548 109.5C153.799 109.604 154.013 109.78 154.164 110.006C154.315 110.231 154.396 110.497 154.396 110.768C154.396 111.133 154.251 111.482 153.994 111.739C153.736 111.997 153.387 112.141 153.023 112.141ZM153.023 110.144C152.899 110.144 152.779 110.181 152.676 110.25C152.573 110.318 152.493 110.416 152.446 110.53C152.399 110.644 152.387 110.769 152.411 110.89C152.435 111.011 152.494 111.122 152.582 111.21C152.669 111.297 152.78 111.356 152.901 111.38C153.022 111.405 153.148 111.392 153.262 111.345C153.376 111.298 153.473 111.218 153.542 111.115C153.61 111.012 153.647 110.892 153.647 110.768C153.647 110.603 153.581 110.444 153.464 110.327C153.347 110.21 153.188 110.144 153.023 110.144V110.144Z" fill="#D87D2B"/>
<path d="M150.527 106.65C150.255 106.65 149.99 106.569 149.764 106.418C149.538 106.267 149.362 106.053 149.258 105.802C149.154 105.551 149.127 105.275 149.18 105.009C149.233 104.743 149.364 104.498 149.556 104.306C149.748 104.114 149.993 103.983 150.259 103.93C150.525 103.877 150.801 103.904 151.052 104.008C151.303 104.112 151.517 104.288 151.668 104.514C151.819 104.74 151.9 105.005 151.9 105.277C151.9 105.641 151.755 105.99 151.497 106.247C151.24 106.505 150.891 106.65 150.527 106.65ZM150.527 104.653C150.403 104.653 150.283 104.689 150.18 104.758C150.077 104.826 149.997 104.924 149.95 105.038C149.903 105.152 149.891 105.277 149.915 105.398C149.939 105.519 149.998 105.631 150.085 105.718C150.173 105.805 150.284 105.865 150.405 105.889C150.526 105.913 150.651 105.9 150.766 105.853C150.88 105.806 150.977 105.726 151.046 105.623C151.114 105.521 151.151 105.4 151.151 105.277C151.151 105.111 151.085 104.952 150.968 104.835C150.851 104.718 150.692 104.653 150.527 104.653V104.653Z" fill="#D87D2B"/>
<path d="M157.017 105.152C156.745 105.152 156.48 105.072 156.254 104.921C156.028 104.77 155.852 104.555 155.749 104.305C155.645 104.054 155.617 103.778 155.67 103.511C155.723 103.245 155.854 103 156.046 102.808C156.238 102.616 156.483 102.486 156.749 102.433C157.015 102.38 157.291 102.407 157.542 102.511C157.793 102.615 158.008 102.791 158.158 103.016C158.309 103.242 158.39 103.508 158.39 103.779C158.39 104.143 158.245 104.492 157.988 104.75C157.73 105.007 157.381 105.152 157.017 105.152ZM157.017 103.155C156.894 103.158 156.775 103.197 156.674 103.267C156.574 103.338 156.496 103.436 156.451 103.551C156.406 103.665 156.396 103.79 156.422 103.91C156.447 104.03 156.508 104.14 156.596 104.225C156.684 104.311 156.795 104.369 156.916 104.392C157.036 104.415 157.161 104.402 157.274 104.354C157.387 104.306 157.484 104.227 157.552 104.124C157.62 104.022 157.656 103.902 157.656 103.779C157.656 103.696 157.639 103.614 157.607 103.537C157.575 103.46 157.527 103.391 157.468 103.332C157.408 103.274 157.338 103.229 157.26 103.198C157.183 103.168 157.1 103.153 157.017 103.155Z" fill="#D87D2B"/>
<path d="M36.6993 138.953L19.1812 137.022C19.3524 135.471 19.8273 133.969 20.5788 132.602C21.3304 131.235 22.3439 130.03 23.5614 129.054C24.7788 128.079 26.1765 127.353 27.6746 126.918C29.1726 126.483 30.7417 126.347 32.2923 126.518L37.9868 127.146L36.6993 138.953Z" fill="url(#paint5_linear_1233_595)"/>
<path d="M36.6989 139.366H36.6494L7.39562 136.136C7.34158 136.131 7.28921 136.114 7.24185 136.088C7.19448 136.061 7.15315 136.025 7.12052 135.982C7.05283 135.896 7.02126 135.788 7.0325 135.679L8.96367 118.183C8.97614 118.074 9.03102 117.974 9.11647 117.905C9.20191 117.836 9.31107 117.804 9.42034 117.815L38.6741 121.044C38.7828 121.057 38.8821 121.112 38.9502 121.197C39.0183 121.283 39.0496 121.392 39.0372 121.501L37.1061 139.008C37.094 139.115 37.0407 139.214 36.9575 139.283C36.8833 139.339 36.792 139.368 36.6989 139.366V139.366ZM7.89629 135.36L36.3303 138.502L38.1734 121.82L9.73945 118.684L7.89629 135.36Z" fill="#D87D2B"/>
<path d="M40.639 129.061L15.8198 133.027C15.1414 128.781 16.1776 124.439 18.7003 120.957C21.2231 117.475 25.0258 115.137 29.272 114.458L38.0751 113.055L40.639 129.061Z" fill="url(#paint6_linear_1233_595)"/>
<path d="M12.397 133.985C12.2988 133.982 12.2046 133.946 12.1303 133.882C12.056 133.817 12.0064 133.729 11.9898 133.633L9.43144 117.628C9.42203 117.574 9.42344 117.519 9.43558 117.466C9.44773 117.413 9.47038 117.363 9.50218 117.319C9.53397 117.275 9.57428 117.238 9.62072 117.209C9.66716 117.181 9.71878 117.162 9.77255 117.154L37.9975 112.648C38.051 112.638 38.106 112.639 38.1591 112.651C38.2122 112.664 38.2621 112.687 38.3056 112.72C38.3495 112.752 38.3866 112.792 38.4149 112.838C38.4433 112.884 38.4622 112.936 38.4706 112.989L41.0235 129C41.041 129.108 41.0149 129.219 40.9509 129.307C40.8869 129.396 40.7904 129.456 40.6824 129.473L12.4575 133.979L12.397 133.985ZM10.3117 117.903L12.7381 133.099L40.1487 128.697L37.7224 113.507L10.3117 117.903Z" fill="#D87D2B"/>
<path d="M36.7267 127.547L22.3501 125.957C22.6917 122.864 24.2481 120.033 26.677 118.087C29.1058 116.141 32.2082 115.239 35.3016 115.581L38.0141 115.878L36.7267 127.547Z" fill="url(#paint7_linear_1233_595)"/>
<path d="M36.727 127.96H36.6775L6.05377 124.582C5.99973 124.577 5.94735 124.56 5.89999 124.534C5.85262 124.507 5.81131 124.471 5.77867 124.428C5.74408 124.386 5.71841 124.338 5.70327 124.286C5.68813 124.234 5.68383 124.179 5.69064 124.125L7.51727 107.564C7.53106 107.456 7.58651 107.358 7.67181 107.29C7.75711 107.222 7.86551 107.19 7.97394 107.201L38.5977 110.585C38.6513 110.59 38.7033 110.607 38.7506 110.632C38.7979 110.658 38.8397 110.693 38.8735 110.735C38.9072 110.777 38.9324 110.825 38.9473 110.877C38.9623 110.928 38.9669 110.983 38.9608 111.036L37.1342 127.597C37.1291 127.65 37.1133 127.702 37.0878 127.75C37.0623 127.797 37.0275 127.838 36.9856 127.872C36.9119 127.93 36.8207 127.961 36.727 127.96V127.96ZM6.55443 123.801L36.3584 127.102L38.097 111.361L8.29304 108.06L6.55443 123.801Z" fill="#D87D2B"/>
<path d="M41.3156 121.347H18.2075C18.2075 116.677 20.0624 112.199 23.3642 108.897C26.666 105.595 31.1443 103.74 35.8137 103.74H41.3156V121.347Z" fill="url(#paint8_linear_1233_595)"/>
<path d="M41.3104 121.76H10.4996C10.3901 121.76 10.2852 121.716 10.2078 121.639C10.1304 121.561 10.0869 121.456 10.0869 121.347V103.741C10.0883 103.632 10.1323 103.528 10.2094 103.451C10.2864 103.373 10.3906 103.33 10.4996 103.328H41.3104C41.4198 103.328 41.5248 103.372 41.6022 103.449C41.6796 103.526 41.723 103.631 41.723 103.741V121.347C41.7238 121.401 41.7136 121.455 41.6931 121.506C41.6726 121.556 41.6423 121.602 41.6038 121.64C41.5653 121.679 41.5196 121.709 41.4692 121.73C41.4188 121.75 41.3648 121.76 41.3104 121.76ZM10.9287 120.934H40.9142V104.153H10.9287V120.934Z" fill="#D87D2B"/>
<path d="M35.8136 118.596H23.1592C23.1592 115.386 24.4344 112.307 26.7044 110.037C28.9744 107.767 32.0532 106.492 35.2634 106.492H35.8136C35.8136 107.221 36.1034 107.921 36.6194 108.437C37.1353 108.953 37.835 109.243 38.5646 109.243V115.845C37.835 115.845 37.1353 116.135 36.6194 116.651C36.1034 117.167 35.8136 117.866 35.8136 118.596V118.596Z" fill="url(#paint9_linear_1233_595)"/>
<path d="M35.808 119.008H16.001C15.8916 119.008 15.7866 118.965 15.7092 118.888C15.6318 118.81 15.5884 118.705 15.5884 118.596C15.5884 117.976 15.342 117.381 14.9035 116.942C14.465 116.504 13.8702 116.257 13.25 116.257C13.1406 116.257 13.0356 116.214 12.9583 116.137C12.8809 116.059 12.8374 115.954 12.8374 115.845V109.242C12.8388 109.133 12.8828 109.029 12.9598 108.952C13.0369 108.875 13.1411 108.831 13.25 108.83C13.8702 108.83 14.465 108.583 14.9035 108.145C15.342 107.706 15.5884 107.112 15.5884 106.492C15.5898 106.383 15.6337 106.278 15.7108 106.201C15.7879 106.124 15.892 106.08 16.001 106.079H35.808C35.9174 106.079 36.0224 106.122 36.0998 106.2C36.1771 106.277 36.2206 106.382 36.2206 106.492C36.2221 107.111 36.4689 107.705 36.9071 108.143C37.3453 108.582 37.9392 108.828 38.5589 108.83C38.6684 108.83 38.7733 108.873 38.8507 108.951C38.9281 109.028 38.9716 109.133 38.9716 109.242V115.845C38.9723 115.899 38.9622 115.953 38.9417 116.004C38.9212 116.054 38.8908 116.1 38.8524 116.138C38.8139 116.177 38.7681 116.207 38.7177 116.228C38.6673 116.248 38.6133 116.258 38.5589 116.257C37.9421 116.263 37.3524 116.512 36.9177 116.95C36.4831 117.387 36.2385 117.979 36.2371 118.596C36.238 118.652 36.2273 118.707 36.2058 118.759C36.1843 118.81 36.1525 118.857 36.1122 118.895C36.072 118.934 36.0242 118.964 35.9719 118.983C35.9195 119.003 35.8637 119.011 35.808 119.008V119.008ZM16.3916 118.183H35.4228C35.5113 117.484 35.8295 116.835 36.3275 116.337C36.8256 115.839 37.4751 115.521 38.1738 115.432V109.628C37.4788 109.541 36.8319 109.227 36.3342 108.735C35.8365 108.242 35.516 107.598 35.4228 106.904H16.3916C16.2985 107.598 15.978 108.242 15.4803 108.735C14.9826 109.227 14.3357 109.541 13.6407 109.628V115.46C14.3354 115.547 14.9818 115.861 15.4793 116.354C15.9768 116.846 16.2976 117.489 16.3916 118.183V118.183Z" fill="#D87D2B"/>
<path d="M34.9881 112.544C34.9843 112.461 34.9751 112.378 34.9605 112.296C34.8781 112.291 34.7954 112.291 34.713 112.296C34.2022 112.296 33.7124 112.499 33.3513 112.86C32.9902 113.221 32.7873 113.711 32.7873 114.222C32.7818 114.306 32.7818 114.391 32.7873 114.475C32.8716 114.48 32.9561 114.48 33.0404 114.475C33.2956 114.478 33.5488 114.43 33.7853 114.334C34.0219 114.238 34.237 114.096 34.4182 113.917C34.5995 113.737 34.7432 113.523 34.841 113.287C34.9388 113.052 34.9888 112.799 34.9881 112.544V112.544Z" fill="url(#paint10_linear_1233_595)"/>
<path d="M21.2285 112.544C21.2267 112.307 21.1819 112.072 21.0964 111.851C20.749 111.711 20.3682 111.677 20.0015 111.752C19.6347 111.827 19.2982 112.009 19.0338 112.274C18.7693 112.539 18.5886 112.876 18.5142 113.243C18.4398 113.61 18.4748 113.99 18.6151 114.337C18.9062 114.452 19.2209 114.493 19.5315 114.457C19.8422 114.422 20.1395 114.31 20.3973 114.133C20.6551 113.957 20.8657 113.719 21.0106 113.442C21.1555 113.165 21.2303 112.856 21.2285 112.544V112.544Z" fill="url(#paint11_linear_1233_595)"/>
<path d="M33.0629 114.882C32.6005 114.882 32.1484 114.745 31.7638 114.488C31.3793 114.231 31.0796 113.866 30.9026 113.439C30.7256 113.012 30.6793 112.542 30.7695 112.088C30.8598 111.634 31.0825 111.218 31.4095 110.891C31.7365 110.564 32.1532 110.341 32.6068 110.251C33.0603 110.161 33.5305 110.207 33.9578 110.384C34.385 110.561 34.7502 110.86 35.0072 111.245C35.2641 111.63 35.4013 112.082 35.4013 112.544C35.4013 113.164 35.1549 113.759 34.7164 114.198C34.2778 114.636 33.6831 114.882 33.0629 114.882ZM33.0629 111.031C32.7642 111.033 32.4727 111.124 32.2254 111.291C31.978 111.459 31.7858 111.696 31.6729 111.973C31.5601 112.249 31.5317 112.553 31.5913 112.846C31.6509 113.139 31.7959 113.407 32.0079 113.618C32.22 113.828 32.4896 113.971 32.7828 114.029C33.076 114.086 33.3796 114.056 33.6555 113.941C33.9313 113.826 34.1669 113.632 34.3327 113.384C34.4985 113.135 34.587 112.843 34.587 112.544C34.587 112.345 34.5475 112.147 34.4707 111.963C34.394 111.778 34.2816 111.611 34.1399 111.47C33.9983 111.33 33.8302 111.218 33.6453 111.143C33.4605 111.068 33.2626 111.03 33.0629 111.031Z" fill="#D87D2B"/>
<path d="M19.3017 114.882C18.8392 114.882 18.3871 114.745 18.0026 114.488C17.6181 114.231 17.3184 113.866 17.1414 113.439C16.9644 113.012 16.9181 112.542 17.0083 112.088C17.0985 111.634 17.3212 111.218 17.6482 110.891C17.9753 110.564 18.3919 110.341 18.8455 110.251C19.2991 110.161 19.7693 110.207 20.1965 110.384C20.6238 110.561 20.989 110.86 21.2459 111.245C21.5029 111.63 21.64 112.082 21.64 112.544C21.6386 113.164 21.3917 113.758 20.9535 114.196C20.5153 114.634 19.9214 114.881 19.3017 114.882V114.882ZM19.3017 111.031C19.0032 111.034 18.7123 111.126 18.4656 111.294C18.219 111.462 18.0277 111.7 17.9157 111.976C17.8037 112.253 17.7761 112.557 17.8363 112.849C17.8965 113.142 18.0419 113.41 18.2542 113.62C18.4664 113.83 18.736 113.972 19.029 114.029C19.3221 114.086 19.6255 114.055 19.901 113.94C20.1765 113.825 20.4118 113.631 20.5773 113.383C20.7429 113.135 20.8312 112.843 20.8312 112.544C20.8312 112.344 20.7916 112.146 20.7145 111.961C20.6374 111.777 20.5245 111.609 20.3823 111.468C20.24 111.328 20.0713 111.217 19.8858 111.142C19.7003 111.066 19.5018 111.029 19.3017 111.031V111.031Z" fill="#D87D2B"/>
<path d="M25.9099 116.411C25.4562 116.421 25.0097 116.296 24.6261 116.054C24.2425 115.811 23.9389 115.461 23.7532 115.047C23.7306 114.996 23.7184 114.942 23.7173 114.887C23.7162 114.831 23.7262 114.776 23.7467 114.725C23.7673 114.674 23.7979 114.627 23.8368 114.588C23.8757 114.549 23.9221 114.518 23.9732 114.497C24.0238 114.475 24.0782 114.463 24.1332 114.462C24.1883 114.462 24.2429 114.472 24.2941 114.492C24.3452 114.513 24.3918 114.543 24.4311 114.582C24.4705 114.62 24.5019 114.666 24.5234 114.717C24.6472 114.979 24.8447 115.2 25.0918 115.353C25.339 115.505 25.6252 115.582 25.9154 115.575C26.2864 115.596 26.6507 115.47 26.929 115.223C27.2072 114.977 27.3769 114.631 27.401 114.26C27.401 113.66 27.1424 112.945 25.9099 112.945C24.2043 112.945 23.5991 111.845 23.5991 110.805C23.6234 110.216 23.8803 109.66 24.3135 109.26C24.7466 108.86 25.3207 108.648 25.9099 108.67C26.3631 108.66 26.8092 108.784 27.1927 109.025C27.5761 109.267 27.8801 109.616 28.0667 110.029C28.0958 110.08 28.1137 110.137 28.1193 110.196C28.1248 110.255 28.1179 110.314 28.099 110.37C28.0801 110.425 28.0496 110.477 28.0095 110.52C27.9694 110.563 27.9206 110.597 27.8664 110.62C27.8121 110.643 27.7536 110.655 27.6947 110.653C27.6357 110.652 27.5777 110.639 27.5244 110.613C27.4711 110.588 27.4237 110.552 27.3854 110.507C27.347 110.463 27.3186 110.41 27.3019 110.354C27.1788 110.091 26.9814 109.869 26.7341 109.717C26.4868 109.564 26.2004 109.487 25.9099 109.495C25.5398 109.474 25.1763 109.6 24.8982 109.845C24.6201 110.09 24.4499 110.435 24.4244 110.805C24.4244 111.405 24.6775 112.12 25.9099 112.12C27.621 112.12 28.2262 113.22 28.2262 114.26C28.2156 114.553 28.1472 114.842 28.025 115.109C27.9028 115.376 27.7292 115.616 27.5141 115.816C27.2989 116.016 27.0465 116.171 26.7713 116.273C26.496 116.375 26.2033 116.422 25.9099 116.411V116.411Z" fill="#D87D2B"/>
<path d="M25.9043 109.507C25.7949 109.507 25.6899 109.463 25.6126 109.386C25.5352 109.308 25.4917 109.203 25.4917 109.094V108.142C25.4917 108.033 25.5352 107.928 25.6126 107.85C25.6899 107.773 25.7949 107.729 25.9043 107.729C26.0138 107.729 26.1187 107.773 26.1961 107.85C26.2735 107.928 26.317 108.033 26.317 108.142V109.094C26.3156 109.203 26.2716 109.307 26.1946 109.384C26.1175 109.461 26.0133 109.505 25.9043 109.507V109.507Z" fill="#D87D2B"/>
<path d="M25.9044 117.358C25.85 117.359 25.796 117.349 25.7456 117.328C25.6952 117.308 25.6494 117.278 25.6109 117.239C25.5725 117.201 25.5421 117.155 25.5216 117.104C25.5012 117.054 25.491 117 25.4917 116.946V115.999C25.4917 115.89 25.5352 115.785 25.6126 115.708C25.69 115.63 25.7949 115.587 25.9044 115.587C26.0138 115.587 26.1188 115.63 26.1962 115.708C26.2736 115.785 26.317 115.89 26.317 115.999V116.946C26.317 117.055 26.2736 117.16 26.1962 117.237C26.1188 117.315 26.0138 117.358 25.9044 117.358Z" fill="#D87D2B"/>
<path d="M30.185 136.449H30.141L22.2842 135.585C22.2295 135.58 22.1764 135.564 22.1279 135.539C22.0795 135.513 22.0367 135.477 22.0021 135.435C21.9674 135.392 21.9417 135.343 21.9262 135.29C21.9108 135.238 21.9061 135.182 21.9123 135.128C21.9186 135.073 21.9356 135.02 21.9625 134.973C21.9894 134.925 22.0256 134.883 22.0689 134.849C22.1123 134.815 22.1619 134.79 22.2149 134.776C22.268 134.762 22.3233 134.758 22.3777 134.766L30.2345 135.63C30.3439 135.636 30.4463 135.686 30.519 135.768C30.5918 135.85 30.6289 135.957 30.6224 136.067C30.6158 136.176 30.566 136.279 30.484 136.351C30.402 136.424 30.2944 136.461 30.185 136.455V136.449Z" fill="#D87D2B"/>
<path d="M34.2345 136.895H34.1905L32.2814 136.681C32.2271 136.675 32.1744 136.659 32.1264 136.633C32.0784 136.607 32.036 136.572 32.0017 136.529C31.9674 136.487 31.9419 136.438 31.9266 136.386C31.9114 136.333 31.9066 136.278 31.9127 136.224C31.9265 136.116 31.982 136.018 32.0673 135.95C32.1526 135.882 32.261 135.85 32.3694 135.861L34.2786 136.07C34.3873 136.082 34.4866 136.138 34.5547 136.223C34.6228 136.309 34.6541 136.418 34.6417 136.527C34.6321 136.628 34.585 136.722 34.5096 136.79C34.4343 136.858 34.3362 136.896 34.2345 136.895V136.895Z" fill="#D87D2B"/>
<path d="M18.2077 131.651C18.1087 131.652 18.0126 131.617 17.9377 131.552C17.8627 131.487 17.814 131.398 17.8006 131.299L17.4595 129.099C17.4436 128.99 17.4711 128.88 17.5359 128.791C17.6007 128.703 17.6978 128.643 17.8061 128.625C17.914 128.61 18.0238 128.637 18.1115 128.702C18.1991 128.767 18.2575 128.864 18.2738 128.972L18.6149 131.145C18.6307 131.254 18.6033 131.364 18.5385 131.453C18.4736 131.541 18.3766 131.601 18.2683 131.618L18.2077 131.651Z" fill="#D87D2B"/>
<path d="M16.9477 130.755C16.8497 130.755 16.755 130.72 16.6804 130.657C16.6058 130.593 16.5562 130.505 16.5405 130.408C16.5247 130.3 16.5521 130.189 16.617 130.101C16.6818 130.012 16.7788 129.953 16.8871 129.935L19.0604 129.6C19.169 129.584 19.2794 129.611 19.368 129.676C19.4565 129.741 19.516 129.838 19.5336 129.946C19.5493 130.054 19.5217 130.164 19.4568 130.252C19.3918 130.339 19.2948 130.398 19.187 130.414L17.0137 130.755H16.9477Z" fill="#D87D2B"/>
<path d="M21.3817 130.051C21.3012 130.063 21.2189 130.05 21.1452 130.016C21.0715 129.981 21.0097 129.925 20.9676 129.856C20.9255 129.786 20.905 129.705 20.9086 129.624C20.9122 129.543 20.9398 129.464 20.988 129.399C21.0361 129.333 21.1026 129.283 21.1791 129.255C21.2555 129.227 21.3386 129.222 21.4177 129.241C21.4969 129.26 21.5686 129.302 21.6239 129.362C21.6792 129.422 21.7155 129.497 21.7283 129.577C21.7442 129.686 21.7168 129.796 21.6519 129.885C21.5871 129.973 21.49 130.033 21.3817 130.051Z" fill="#D87D2B"/>
<path d="M23.5386 129.716C23.4299 129.732 23.3189 129.705 23.2302 129.64C23.1415 129.575 23.0822 129.478 23.0654 129.369C23.0486 129.26 23.0757 129.149 23.1407 129.061C23.2057 128.972 23.3033 128.913 23.412 128.896C23.5207 128.879 23.6317 128.906 23.7204 128.971C23.8091 129.036 23.8684 129.134 23.8852 129.242C23.902 129.351 23.8749 129.462 23.8099 129.551C23.7449 129.639 23.6473 129.699 23.5386 129.716V129.716Z" fill="#D87D2B"/>
<path d="M26.2563 129.292C26.1477 129.307 26.0373 129.28 25.9488 129.215C25.8602 129.15 25.8008 129.053 25.7831 128.945C25.7674 128.837 25.795 128.727 25.8599 128.64C25.9249 128.552 26.0219 128.494 26.1298 128.477C26.183 128.468 26.2376 128.469 26.2902 128.482C26.3429 128.494 26.3925 128.516 26.4362 128.548C26.4798 128.58 26.5166 128.621 26.5443 128.667C26.5721 128.713 26.5901 128.765 26.5974 128.818C26.6068 128.872 26.6054 128.927 26.5933 128.98C26.5811 129.033 26.5585 129.083 26.5267 129.127C26.4949 129.171 26.4546 129.208 26.4082 129.237C26.3617 129.265 26.3101 129.284 26.2563 129.292V129.292Z" fill="#D87D2B"/>
<path d="M30.0645 128.698C30.0109 128.707 29.956 128.706 29.903 128.693C29.85 128.681 29.8 128.659 29.7559 128.627C29.7118 128.595 29.6745 128.555 29.6463 128.508C29.618 128.462 29.5993 128.41 29.5913 128.356C29.5754 128.248 29.6029 128.137 29.6677 128.049C29.7326 127.96 29.8296 127.901 29.9379 127.883C30.0459 127.867 30.1556 127.895 30.2433 127.96C30.3309 128.025 30.3893 128.122 30.4056 128.23C30.415 128.283 30.4135 128.338 30.4013 128.39C30.3891 128.443 30.3664 128.493 30.3345 128.536C30.3027 128.58 30.2624 128.617 30.216 128.644C30.1695 128.672 30.118 128.69 30.0645 128.698V128.698Z" fill="#D87D2B"/>
<path d="M33.9924 125.138H33.9484L31.7476 124.918C31.6389 124.907 31.5391 124.853 31.4701 124.768C31.401 124.684 31.3682 124.575 31.379 124.467C31.3914 124.359 31.4455 124.26 31.5298 124.191C31.614 124.122 31.7217 124.089 31.8301 124.098L34.0309 124.318C34.1395 124.329 34.2393 124.383 34.3084 124.467C34.3775 124.552 34.4103 124.661 34.3995 124.769C34.3899 124.87 34.3428 124.964 34.2675 125.033C34.1921 125.101 34.094 125.138 33.9924 125.138V125.138Z" fill="#D87D2B"/>
<path d="M32.7877 126.122H32.7437C32.635 126.111 32.5352 126.057 32.4661 125.973C32.397 125.888 32.3643 125.78 32.3751 125.671L32.5951 123.47C32.5975 123.414 32.6114 123.359 32.6358 123.309C32.6603 123.258 32.6948 123.213 32.7372 123.176C32.7797 123.139 32.8292 123.112 32.8828 123.095C32.9364 123.078 32.9928 123.072 33.0487 123.078C33.1046 123.083 33.1588 123.1 33.2079 123.127C33.257 123.155 33.3 123.192 33.3343 123.236C33.3686 123.281 33.3934 123.332 33.4073 123.386C33.4211 123.441 33.4237 123.497 33.4149 123.553L33.1948 125.754C33.1852 125.855 33.1381 125.949 33.0628 126.017C32.9874 126.085 32.8893 126.123 32.7877 126.122V126.122Z" fill="#D87D2B"/>
<path d="M53.8087 71.3195C53.5694 71.3195 53.3399 71.2245 53.1706 71.0553C53.0014 70.886 52.9063 70.6565 52.9063 70.4172C52.9032 69.3811 52.4902 68.3884 51.7576 67.6557C51.0249 66.9231 50.0322 66.5101 48.9961 66.507C48.7568 66.507 48.5273 66.4119 48.358 66.2427C48.1888 66.0734 48.0938 65.8439 48.0938 65.6046C48.0938 65.3653 48.1888 65.1358 48.358 64.9665C48.5273 64.7973 48.7568 64.7022 48.9961 64.7022C50.0322 64.6991 51.0249 64.2861 51.7576 63.5535C52.4902 62.8208 52.9032 61.8281 52.9063 60.792C52.9095 60.5537 53.0055 60.3259 53.1741 60.1574C53.3426 59.9888 53.5703 59.8928 53.8087 59.8896V59.8896C54.0471 59.8928 54.2748 59.9888 54.4433 60.1574C54.6119 60.3259 54.7079 60.5537 54.7111 60.792C54.7142 61.8281 55.1272 62.8208 55.8598 63.5535C56.5925 64.2861 57.5852 64.6991 58.6213 64.7022C58.8606 64.7022 59.0901 64.7973 59.2594 64.9665C59.4286 65.1358 59.5236 65.3653 59.5236 65.6046C59.5236 65.8439 59.4286 66.0734 59.2594 66.2427C59.0901 66.4119 58.8606 66.507 58.6213 66.507C57.5852 66.5101 56.5925 66.9231 55.8598 67.6557C55.1272 68.3884 54.7142 69.3811 54.7111 70.4172C54.7111 70.6565 54.616 70.886 54.4468 71.0553C54.2775 71.2245 54.048 71.3195 53.8087 71.3195V71.3195ZM52.0762 65.6046C52.7705 66.0521 53.3612 66.6428 53.8087 67.3371C54.2562 66.6428 54.8469 66.0521 55.5412 65.6046C54.8443 65.1603 54.253 64.569 53.8087 63.8721C53.3644 64.569 52.7731 65.1603 52.0762 65.6046Z" fill="#D87D2B"/>
<path d="M76.6686 78.5383C76.4292 78.5383 76.1997 78.4432 76.0305 78.274C75.8613 78.1048 75.7662 77.8753 75.7662 77.6359C75.763 76.5999 75.35 75.6071 74.6174 74.8745C73.8848 74.1419 72.8921 73.7289 71.856 73.7257C71.6167 73.7257 71.3871 73.6306 71.2179 73.4614C71.0487 73.2922 70.9536 73.0627 70.9536 72.8233C70.9536 72.584 71.0487 72.3545 71.2179 72.1853C71.3871 72.0161 71.6167 71.921 71.856 71.921C72.8921 71.9178 73.8848 71.5048 74.6174 70.7722C75.35 70.0396 75.763 69.0468 75.7662 68.0108C75.7693 67.7724 75.8654 67.5447 76.0339 67.3761C76.2025 67.2076 76.4302 67.1115 76.6686 67.1084V67.1084C76.9079 67.1084 77.1374 67.2035 77.3066 67.3727C77.4759 67.5419 77.5709 67.7714 77.5709 68.0108C77.5741 69.0468 77.9871 70.0396 78.7197 70.7722C79.4523 71.5048 80.4451 71.9178 81.4812 71.921C81.7205 71.921 81.95 72.0161 82.1192 72.1853C82.2884 72.3545 82.3835 72.584 82.3835 72.8233C82.3835 73.0627 82.2884 73.2922 82.1192 73.4614C81.95 73.6306 81.7205 73.7257 81.4812 73.7257C80.4451 73.7289 79.4523 74.1419 78.7197 74.8745C77.9871 75.6071 77.5741 76.5999 77.5709 77.6359C77.5725 77.7549 77.5503 77.873 77.5055 77.9832C77.4608 78.0934 77.3944 78.1935 77.3102 78.2776C77.2261 78.3617 77.126 78.4281 77.0158 78.4729C76.9056 78.5177 76.7875 78.5399 76.6686 78.5383V78.5383ZM74.936 72.8233C75.6303 73.2709 76.221 73.8616 76.6686 74.5559C77.1195 73.8643 77.7095 73.2743 78.4011 72.8233C77.7068 72.3758 77.1161 71.7851 76.6686 71.0908C76.2243 71.7878 75.633 72.3791 74.936 72.8233V72.8233Z" fill="#D87D2B"/>
<path d="M63.4342 88.1635C63.1949 88.1635 62.9653 88.0685 62.7961 87.8993C62.6269 87.73 62.5318 87.5005 62.5318 87.2612C62.5287 86.2251 62.1157 85.2324 61.383 84.4997C60.6504 83.7671 59.6577 83.3541 58.6216 83.351C58.3823 83.351 58.1528 83.2559 57.9835 83.0867C57.8143 82.9174 57.7192 82.6879 57.7192 82.4486C57.7192 82.2093 57.8143 81.9798 57.9835 81.8105C58.1528 81.6413 58.3823 81.5462 58.6216 81.5462C59.6587 81.5462 60.6532 81.1343 61.3865 80.401C62.1199 79.6676 62.5318 78.6731 62.5318 77.636C62.5349 77.3977 62.631 77.1699 62.7996 77.0014C62.9681 76.8328 63.1958 76.7368 63.4342 76.7336C63.6735 76.7336 63.903 76.8287 64.0723 76.998C64.2415 77.1672 64.3365 77.3967 64.3365 77.636C64.3365 78.6731 64.7485 79.6676 65.4818 80.401C66.2151 81.1343 67.2097 81.5462 68.2468 81.5462C68.4861 81.5462 68.7156 81.6413 68.8848 81.8105C69.0541 81.9798 69.1491 82.2093 69.1491 82.4486C69.1491 82.6879 69.0541 82.9174 68.8848 83.0867C68.7156 83.2559 68.4861 83.351 68.2468 83.351C67.2107 83.3541 66.218 83.7671 65.4853 84.4997C64.7527 85.2324 64.3397 86.2251 64.3365 87.2612C64.3382 87.3801 64.3159 87.4982 64.2712 87.6084C64.2264 87.7186 64.16 87.8188 64.0759 87.9029C63.9917 87.987 63.8916 88.0534 63.7814 88.0982C63.6712 88.1429 63.5531 88.1652 63.4342 88.1635ZM61.7017 82.4486C62.396 82.8961 62.9867 83.4868 63.4342 84.1811C63.8817 83.4868 64.4724 82.8961 65.1667 82.4486C64.4698 82.0043 63.8784 81.413 63.4342 80.7161C62.9899 81.413 62.3986 82.0043 61.7017 82.4486Z" fill="#D87D2B"/>
<path d="M100.167 10.2839C104.375 14.1695 107.433 19.1387 109.004 24.6468C110.576 30.1549 110.6 35.9894 109.076 41.5106C107.551 47.0318 104.536 52.0267 100.36 55.9477C96.1847 59.8688 91.0104 62.5646 85.4043 63.7398C85.577 64.6562 85.6656 65.5865 85.669 66.519V68.0109H113.341V66.2303C113.366 64.2435 113.788 62.2818 114.584 60.4612C115.379 58.6405 116.532 56.9979 117.973 55.6306C121.679 51.9924 124.233 47.3446 125.316 42.2659C126.4 37.1872 125.965 31.9019 124.067 27.0682C122.169 22.2345 118.891 18.0659 114.641 15.0815C110.392 12.097 105.358 10.4286 100.167 10.2839V10.2839Z" fill="url(#paint12_linear_1233_595)"/>
<path d="M105.581 68.913H93.3928C93.2027 68.912 93.0177 68.851 92.8643 68.7387C92.7109 68.6263 92.5969 68.4684 92.5386 68.2874L85.4761 46.6307C85.4322 46.4956 85.4214 46.3519 85.4444 46.2116C85.4674 46.0714 85.5237 45.9387 85.6085 45.8246C85.6912 45.7103 85.7997 45.6171 85.925 45.5523C86.0504 45.4875 86.1892 45.4531 86.3304 45.4517H112.8C112.942 45.4531 113.083 45.4874 113.21 45.5521C113.338 45.6168 113.448 45.7101 113.534 45.8246C113.617 45.9415 113.672 46.0768 113.693 46.2191C113.714 46.3614 113.7 46.5067 113.654 46.6428L106.435 68.2994C106.376 68.4792 106.262 68.6355 106.108 68.7459C105.955 68.8562 105.77 68.9147 105.581 68.913ZM94.0185 67.1083H104.931L111.512 47.2564H87.5455L94.0185 67.1083Z" fill="#D87D2B"/>
<path d="M109.033 77.6361H103.138C102.5 77.6361 101.888 77.3826 101.436 76.9313C100.985 76.48 100.731 75.868 100.731 75.2298C100.731 74.5916 100.985 73.9795 101.436 73.5283C101.888 73.077 102.5 72.8235 103.138 72.8235H109.033C109.671 72.8235 110.283 73.077 110.735 73.5283C111.186 73.9795 111.439 74.5916 111.439 75.2298C111.439 75.868 111.186 76.48 110.735 76.9313C110.283 77.3826 109.671 77.6361 109.033 77.6361Z" fill="url(#paint13_linear_1233_595)"/>
<path d="M109.033 82.4483H99.5284C98.8902 82.4483 98.2781 82.1948 97.8269 81.7435C97.3756 81.2923 97.1221 80.6802 97.1221 80.042C97.1221 79.4038 97.3756 78.7918 97.8269 78.3405C98.2781 77.8893 98.8902 77.6357 99.5284 77.6357H109.033C109.671 77.6357 110.283 77.8893 110.735 78.3405C111.186 78.7918 111.44 79.4038 111.44 80.042C111.44 80.6802 111.186 81.2923 110.735 81.7435C110.283 82.1948 109.671 82.4483 109.033 82.4483Z" fill="url(#paint14_linear_1233_595)"/>
<path d="M93.5127 68.0105H111.56V70.4168C111.56 71.055 111.306 71.667 110.855 72.1183C110.404 72.5696 109.792 72.8231 109.154 72.8231H95.919C95.2808 72.8231 94.6688 72.5696 94.2175 72.1183C93.7662 71.667 93.5127 71.055 93.5127 70.4168V68.0105V68.0105Z" fill="url(#paint15_linear_1233_595)"/>
<path d="M113.401 68.9133H85.729C85.4897 68.9133 85.2601 68.8182 85.0909 68.649C84.9217 68.4798 84.8266 68.2502 84.8266 68.0109V66.519C84.8386 64.6467 84.4754 62.7909 83.7583 61.0613C83.0412 59.3317 81.9849 57.7633 80.6517 56.4487C77.3751 53.3215 74.9261 49.4298 73.5245 45.1227C72.1229 40.8156 71.8126 36.228 72.6213 31.7714C73.43 27.3148 75.3325 23.1287 78.1581 19.5887C80.9837 16.0487 84.6439 13.2656 88.8104 11.4891C92.9769 9.71261 97.5192 8.99831 102.03 9.4103C106.54 9.82228 110.878 11.3477 114.654 13.8496C118.43 16.3515 121.525 19.7516 123.663 23.7449C125.8 27.7382 126.913 32.1997 126.901 36.7291C126.912 40.3729 126.188 43.9815 124.772 47.3388C123.356 50.6962 121.277 53.7333 118.659 56.2682C117.304 57.5533 116.22 59.097 115.472 60.8081C114.724 62.5192 114.327 64.3629 114.304 66.2303V68.0109C114.304 68.2502 114.209 68.4798 114.039 68.649C113.87 68.8182 113.641 68.9133 113.401 68.9133V68.9133ZM86.5712 67.1086H112.499V66.2303C112.526 64.1181 112.979 62.0332 113.831 60.1003C114.683 58.1673 115.916 56.4261 117.456 54.9808C121.169 51.3472 123.687 46.6682 124.673 41.5674C125.659 36.4665 125.067 31.1862 122.976 26.4303C120.885 21.6744 117.394 17.6689 112.969 14.9475C108.543 12.2261 103.393 10.9183 98.2056 11.1983C93.2307 11.465 88.4423 13.1807 84.4302 16.1343C80.418 19.0879 77.3571 23.1503 75.6245 27.8214C73.8919 32.4925 73.5631 37.5683 74.6786 42.4239C75.7942 47.2795 78.3054 51.7028 81.903 55.1493C83.4171 56.6283 84.6173 58.3975 85.4319 60.3511C86.2464 62.3047 86.6584 64.4025 86.6434 66.519L86.5712 67.1086Z" fill="#D87D2B"/>
<path d="M109.154 78.5382H89.9034C89.0259 78.5382 88.1843 78.1896 87.5638 77.5691C86.9433 76.9486 86.5947 76.1071 86.5947 75.2296C86.5947 74.352 86.9433 73.5105 87.5638 72.89C88.1843 72.2695 89.0259 71.9209 89.9034 71.9209H109.154C110.031 71.9209 110.873 72.2695 111.493 72.89C112.114 73.5105 112.462 74.352 112.462 75.2296C112.462 76.1071 112.114 76.9486 111.493 77.5691C110.873 78.1896 110.031 78.5382 109.154 78.5382ZM89.9034 73.7256C89.5045 73.7256 89.122 73.8841 88.8399 74.1661C88.5579 74.4482 88.3994 74.8307 88.3994 75.2296C88.3994 75.6284 88.5579 76.011 88.8399 76.293C89.122 76.5751 89.5045 76.7335 89.9034 76.7335H109.154C109.553 76.7335 109.935 76.5751 110.217 76.293C110.499 76.011 110.658 75.6284 110.658 75.2296C110.658 74.8307 110.499 74.4482 110.217 74.1661C109.935 73.8841 109.553 73.7256 109.154 73.7256H89.9034Z" fill="#D87D2B"/>
<path d="M109.154 83.351H89.9034C89.0259 83.351 88.1843 83.0024 87.5638 82.3819C86.9433 81.7614 86.5947 80.9198 86.5947 80.0423C86.5947 79.1648 86.9433 78.3232 87.5638 77.7027C88.1843 77.0822 89.0259 76.7336 89.9034 76.7336H109.154C110.031 76.7336 110.873 77.0822 111.493 77.7027C112.114 78.3232 112.462 79.1648 112.462 80.0423C112.462 80.9198 112.114 81.7614 111.493 82.3819C110.873 83.0024 110.031 83.351 109.154 83.351ZM89.9034 78.5384C89.5045 78.5384 89.122 78.6968 88.8399 78.9789C88.5579 79.2609 88.3994 79.6434 88.3994 80.0423C88.3994 80.4412 88.5579 80.8237 88.8399 81.1058C89.122 81.3878 89.5045 81.5462 89.9034 81.5462H109.154C109.553 81.5462 109.935 81.3878 110.217 81.1058C110.499 80.8237 110.658 80.4412 110.658 80.0423C110.658 79.6434 110.499 79.2609 110.217 78.9789C109.935 78.6968 109.553 78.5384 109.154 78.5384H89.9034Z" fill="#D87D2B"/>
<path d="M109.154 73.7257H89.9034C89.0259 73.7257 88.1843 73.3771 87.5638 72.7566C86.9433 72.1361 86.5947 71.2946 86.5947 70.4171V68.0108C86.5978 67.7724 86.6939 67.5447 86.8625 67.3761C87.031 67.2076 87.2587 67.1115 87.4971 67.1084H111.56C111.799 67.1084 112.029 67.2035 112.198 67.3727C112.367 67.5419 112.462 67.7714 112.462 68.0108V70.4171C112.462 71.2946 112.114 72.1361 111.493 72.7566C110.873 73.3771 110.031 73.7257 109.154 73.7257ZM88.3994 68.9131V70.4171C88.3994 70.8159 88.5579 71.1985 88.8399 71.4805C89.122 71.7626 89.5045 71.921 89.9034 71.921H109.154C109.553 71.921 109.935 71.7626 110.217 71.4805C110.499 71.1985 110.658 70.8159 110.658 70.4171V68.9131H88.3994Z" fill="#D87D2B"/>
<path d="M106.747 88.1636H92.3096C92.0703 88.1636 91.8408 88.0685 91.6715 87.8993C91.5023 87.7301 91.4072 87.5006 91.4072 87.2612C91.4072 87.0219 91.5023 86.7924 91.6715 86.6232C91.8408 86.454 92.0703 86.3589 92.3096 86.3589H106.747C106.987 86.3589 107.216 86.454 107.385 86.6232C107.555 86.7924 107.65 87.0219 107.65 87.2612C107.65 87.5006 107.555 87.7301 107.385 87.8993C107.216 88.0685 106.987 88.1636 106.747 88.1636Z" fill="#D87D2B"/>
<path d="M119.862 35.2852C119.64 35.2835 119.427 35.2004 119.263 35.0517C119.099 34.9031 118.995 34.6993 118.972 34.4791C118.642 31.6311 117.688 28.891 116.178 26.4537C114.668 24.0165 112.64 21.9421 110.237 20.3782C110.036 20.2473 109.895 20.042 109.845 19.8074C109.796 19.5727 109.841 19.3279 109.972 19.1269C110.103 18.9259 110.308 18.785 110.543 18.7354C110.778 18.6858 111.022 18.7314 111.223 18.8622C113.845 20.5743 116.056 22.8429 117.701 25.5067C119.346 28.1706 120.384 31.1641 120.74 34.2745C120.764 34.5116 120.694 34.7487 120.546 34.9352C120.398 35.1217 120.183 35.243 119.946 35.2731L119.862 35.2852Z" fill="#D87D2B"/>
<path d="M118.96 44.0679C118.868 44.0804 118.775 44.0804 118.683 44.0679C118.563 44.0318 118.451 43.9711 118.356 43.8894C118.26 43.8078 118.183 43.7072 118.128 43.5939C118.074 43.4807 118.044 43.3573 118.04 43.2317C118.036 43.1062 118.058 42.9812 118.106 42.8647C118.518 41.622 118.8 40.3398 118.948 39.0387C118.959 38.9191 118.994 38.803 119.05 38.697C119.107 38.5911 119.184 38.4975 119.277 38.4218C119.37 38.346 119.478 38.2897 119.593 38.256C119.708 38.2223 119.829 38.2119 119.949 38.2255C120.068 38.2392 120.183 38.2765 120.288 38.3352C120.393 38.394 120.485 38.4732 120.558 38.5679C120.632 38.6627 120.686 38.7713 120.718 38.8872C120.749 39.0032 120.757 39.1242 120.74 39.2433C120.571 40.6661 120.261 42.0686 119.814 43.4302C119.761 43.6155 119.649 43.7782 119.495 43.8935C119.34 44.0087 119.152 44.07 118.96 44.0679V44.0679Z" fill="#D87D2B"/>
<path d="M101.935 36.7291C101.924 32.0759 100.679 27.5089 98.3254 23.4945C93.2773 20.5706 87.4045 19.3964 81.6202 20.1543C75.8358 20.9123 70.4639 23.5599 66.3394 27.6857C62.215 31.8116 59.5691 37.1844 58.8131 42.969C58.0571 48.7536 59.2333 54.6259 62.1588 59.6731C66.178 61.9936 70.7367 63.2166 75.3777 63.2194C80.0186 63.2222 84.5788 62.0047 88.6007 59.689C92.6227 57.3733 95.9651 54.0408 98.2928 50.0258C100.621 46.0108 101.852 41.4543 101.863 36.8133L101.935 36.7291Z" fill="url(#paint16_linear_1233_595)"/>
<path d="M75.4654 64.1004C70.0518 64.1004 64.7598 62.4951 60.2585 59.4874C55.7573 56.4798 52.249 52.205 50.1773 47.2034C48.1056 42.2019 47.5636 36.6984 48.6197 31.3889C49.6758 26.0793 52.2827 21.2021 56.1107 17.3741C59.9387 13.5462 64.8159 10.9393 70.1254 9.88313C75.435 8.82699 80.9385 9.36904 85.94 11.4407C90.9415 13.5124 95.2164 17.0207 98.224 21.5219C101.232 26.0232 102.837 31.3152 102.837 36.7288C102.831 43.9862 99.9448 50.9446 94.813 56.0764C89.6812 61.2082 82.7228 64.094 75.4654 64.1004V64.1004ZM75.4654 11.1619C70.4087 11.1619 65.4656 12.6614 61.2612 15.4707C57.0567 18.28 53.7797 22.273 51.8446 26.9448C49.9095 31.6165 49.4032 36.7572 50.3897 41.7166C51.3762 46.6761 53.8113 51.2317 57.3868 54.8073C60.9624 58.3829 65.518 60.8179 70.4775 61.8044C75.437 62.7909 80.5776 62.2846 85.2494 60.3495C89.9211 58.4144 93.9141 55.1374 96.7234 50.933C99.5328 46.7285 101.032 41.7854 101.032 36.7288C101.023 29.951 98.326 23.4535 93.5333 18.6608C88.7407 13.8682 82.2432 11.1715 75.4654 11.1619V11.1619Z" fill="#D87D2B"/>
<path d="M94.7162 36.7295C94.7128 34.0034 94.1305 31.309 93.0077 28.8248C89.4466 27.2259 85.4836 26.7473 81.6442 27.4526C77.8049 28.1579 74.2706 30.0138 71.5104 32.7741C68.7501 35.5343 66.8942 39.0685 66.1889 42.9079C65.4836 46.7472 65.9622 50.7103 67.5612 54.2714C70.0431 55.4009 72.7389 55.9836 75.4658 55.9799C80.5713 55.9799 85.4678 53.9517 89.0779 50.3416C92.688 46.7314 94.7162 41.835 94.7162 36.7295V36.7295Z" fill="url(#paint17_linear_1233_595)"/>
<path d="M75.4652 56.8819C71.4794 56.8819 67.5831 55.6999 64.269 53.4855C60.9549 51.2711 58.3719 48.1237 56.8465 44.4412C55.3212 40.7588 54.9221 36.7068 55.6997 32.7975C56.4773 28.8883 58.3967 25.2974 61.2151 22.479C64.0335 19.6606 67.6244 17.7413 71.5336 16.9637C75.4429 16.1861 79.4949 16.5851 83.1773 18.1105C86.8598 19.6358 90.0072 22.2188 92.2216 25.5329C94.436 28.847 95.6179 32.7433 95.6179 36.7291C95.6148 42.073 93.4905 47.1971 89.7118 50.9758C85.9332 54.7544 80.8091 56.8787 75.4652 56.8819V56.8819ZM75.4652 18.3811C71.8363 18.3811 68.2889 19.4572 65.2716 21.4733C62.2543 23.4894 59.9026 26.355 58.5139 29.7077C57.1252 33.0603 56.7618 36.7495 57.4698 40.3087C58.1777 43.8678 59.9252 47.1371 62.4912 49.7031C65.0572 52.2691 68.3265 54.0166 71.8857 54.7246C75.4449 55.4326 79.134 55.0692 82.4867 53.6805C85.8394 52.2918 88.7049 49.9401 90.721 46.9227C92.7371 43.9054 93.8132 40.358 93.8132 36.7291C93.8069 31.8649 91.8717 27.2017 88.4322 23.7622C84.9926 20.3226 80.3295 18.3875 75.4652 18.3811V18.3811Z" fill="#D87D2B"/>
<path d="M88.4481 43.9596C88.3104 43.9563 88.175 43.9235 88.0511 43.8634C87.838 43.7573 87.6754 43.5714 87.5988 43.346C87.5222 43.1207 87.5377 42.8742 87.642 42.6602C88.5365 40.813 89.0012 38.7872 89.0012 36.7347C89.0012 34.6823 88.5365 32.6565 87.642 30.8092C87.5377 30.5953 87.5222 30.3488 87.5988 30.1234C87.6754 29.8981 87.838 29.7122 88.0511 29.6061C88.2655 29.505 88.5108 29.4912 88.7353 29.5675C88.9598 29.6438 89.1458 29.8043 89.2542 30.0152C90.2716 32.1091 90.8002 34.4067 90.8002 36.7347C90.8002 39.0627 90.2716 41.3604 89.2542 43.4543C89.1814 43.6062 89.067 43.7342 88.9243 43.8237C88.7816 43.9131 88.6165 43.9603 88.4481 43.9596V43.9596Z" fill="#D87D2B"/>
<path d="M62.4838 43.9604C62.3142 43.9591 62.1482 43.9113 62.004 43.8222C61.8597 43.7331 61.7427 43.6061 61.6656 43.4551C60.6482 41.3611 60.1196 39.0635 60.1196 36.7355C60.1196 34.4075 60.6482 32.1098 61.6656 30.0159C61.7717 29.8028 61.9576 29.6403 62.183 29.5637C62.4083 29.487 62.6548 29.5026 62.8688 29.6068C62.9754 29.6581 63.0707 29.7301 63.1492 29.8187C63.2276 29.9072 63.2877 30.0105 63.3258 30.1226C63.3639 30.2346 63.3792 30.3531 63.371 30.4711C63.3628 30.5891 63.3311 30.7043 63.2778 30.81C62.3833 32.6572 61.9186 34.683 61.9186 36.7355C61.9186 38.7879 62.3833 40.8137 63.2778 42.661C63.3821 42.8749 63.3976 43.1214 63.321 43.3468C63.2444 43.5721 63.0818 43.7581 62.8688 43.8641C62.7485 43.9226 62.6174 43.9554 62.4838 43.9604V43.9604Z" fill="#D87D2B"/>
<path d="M52.606 37.6311C53.1043 37.6311 53.5083 37.2271 53.5083 36.7288C53.5083 36.2304 53.1043 35.8264 52.606 35.8264C52.1076 35.8264 51.7036 36.2304 51.7036 36.7288C51.7036 37.2271 52.1076 37.6311 52.606 37.6311Z" fill="#D87D2B"/>
<path d="M98.3252 37.6311C98.8236 37.6311 99.2276 37.2271 99.2276 36.7288C99.2276 36.2304 98.8236 35.8264 98.3252 35.8264C97.8269 35.8264 97.4229 36.2304 97.4229 36.7288C97.4229 37.2271 97.8269 37.6311 98.3252 37.6311Z" fill="#D87D2B"/>
<path d="M75.4653 60.4912C75.9637 60.4912 76.3677 60.0872 76.3677 59.5889C76.3677 59.0905 75.9637 58.6865 75.4653 58.6865C74.967 58.6865 74.563 59.0905 74.563 59.5889C74.563 60.0872 74.967 60.4912 75.4653 60.4912Z" fill="#D87D2B"/>
<path d="M75.4653 14.7715C75.9637 14.7715 76.3677 14.3675 76.3677 13.8692C76.3677 13.3708 75.9637 12.9668 75.4653 12.9668C74.967 12.9668 74.563 13.3708 74.563 13.8692C74.563 14.3675 74.967 14.7715 75.4653 14.7715Z" fill="#D87D2B"/>
<path d="M90.9863 52.2618C91.1124 52.1355 91.2732 52.0494 91.4483 52.0145C91.6234 51.9796 91.8048 51.9974 91.9698 52.0657C92.1347 52.1339 92.2757 52.2496 92.3749 52.398C92.4741 52.5464 92.5271 52.7209 92.5271 52.8994C92.5271 53.0779 92.4741 53.2525 92.3749 53.4009C92.2757 53.5493 92.1347 53.665 91.9698 53.7332C91.8048 53.8015 91.6234 53.8193 91.4483 53.7844C91.2732 53.7495 91.1124 53.6634 90.9863 53.5371C90.9011 53.4541 90.8335 53.355 90.7873 53.2455C90.7411 53.136 90.7173 53.0183 90.7173 52.8994C90.7173 52.7806 90.7411 52.6629 90.7873 52.5534C90.8335 52.4439 90.9011 52.3447 90.9863 52.2618V52.2618Z" fill="#D87D2B"/>
<path d="M58.6582 19.9331C58.8293 19.7737 59.0555 19.6869 59.2893 19.6911C59.523 19.6952 59.7461 19.7899 59.9114 19.9552C60.0768 20.1205 60.1715 20.3436 60.1756 20.5774C60.1797 20.8111 60.0929 21.0374 59.9335 21.2084C59.7625 21.3678 59.5362 21.4546 59.3025 21.4505C59.0687 21.4464 58.8456 21.3517 58.6803 21.1863C58.515 21.021 58.4203 20.798 58.4162 20.5642C58.412 20.3304 58.4988 20.1042 58.6582 19.9331V19.9331Z" fill="#D87D2B"/>
<path d="M90.9868 21.2084C90.8274 21.0374 90.7406 20.8111 90.7448 20.5774C90.7489 20.3436 90.8436 20.1205 91.0089 19.9552C91.1743 19.7899 91.3973 19.6952 91.6311 19.6911C91.8648 19.6869 92.0911 19.7737 92.2622 19.9331C92.4215 20.1042 92.5083 20.3304 92.5042 20.5642C92.5001 20.798 92.4054 21.021 92.24 21.1863C92.0747 21.3517 91.8517 21.4464 91.6179 21.4505C91.3841 21.4546 91.1579 21.3678 90.9868 21.2084V21.2084Z" fill="#D87D2B"/>
<path d="M58.6582 53.537C58.4988 53.366 58.412 53.1397 58.4162 52.906C58.4203 52.6722 58.515 52.4492 58.6803 52.2838C58.8456 52.1185 59.0687 52.0238 59.3025 52.0197C59.5362 52.0155 59.7625 52.1023 59.9335 52.2617C60.0187 52.3447 60.0863 52.4438 60.1325 52.5533C60.1787 52.6629 60.2025 52.7805 60.2025 52.8994C60.2025 53.0182 60.1787 53.1359 60.1325 53.2454C60.0863 53.3549 60.0187 53.4541 59.9335 53.537C59.7643 53.706 59.535 53.8009 59.2959 53.8009C59.0567 53.8009 58.8274 53.706 58.6582 53.537Z" fill="#D87D2B"/>
<path d="M95.7989 45.1389C95.8436 45.026 95.9106 44.9233 95.996 44.837C96.0813 44.7506 96.1832 44.6824 96.2955 44.6363C96.4078 44.5902 96.5283 44.5673 96.6497 44.5689C96.7711 44.5705 96.8909 44.5966 97.002 44.6456C97.1149 44.6903 97.2176 44.7574 97.304 44.8427C97.3903 44.928 97.4586 45.0299 97.5046 45.1422C97.5507 45.2546 97.5736 45.3751 97.572 45.4965C97.5704 45.6179 97.5443 45.7377 97.4953 45.8488C97.4503 45.9586 97.3841 46.0584 97.3004 46.1427C97.2168 46.2269 97.1174 46.2938 97.0079 46.3396C96.8985 46.3854 96.781 46.4092 96.6623 46.4096C96.5436 46.41 96.426 46.3871 96.3162 46.3421C96.2064 46.297 96.1066 46.2308 96.0223 46.1472C95.9381 46.0636 95.8712 45.9642 95.8254 45.8547C95.7796 45.7452 95.7558 45.6278 95.7554 45.5091C95.755 45.3904 95.7779 45.2728 95.8229 45.163L95.7989 45.1389Z" fill="#D87D2B"/>
<path d="M53.5084 27.6334C53.5798 27.4714 53.6973 27.3341 53.8462 27.2384C53.9952 27.1427 54.1689 27.093 54.3459 27.0953C54.5229 27.0976 54.6953 27.152 54.8416 27.2515C54.9879 27.3511 55.1018 27.4915 55.1689 27.6553C55.2361 27.819 55.2536 27.9989 55.2192 28.1726C55.1849 28.3462 55.1003 28.5059 54.9759 28.6318C54.8515 28.7577 54.6928 28.8442 54.5196 28.8806C54.3463 28.917 54.1663 28.9017 54.0017 28.8365C53.8888 28.7918 53.7861 28.7248 53.6998 28.6394C53.6134 28.5541 53.5451 28.4522 53.4991 28.3399C53.453 28.2276 53.4301 28.1071 53.4317 27.9857C53.4333 27.8643 53.4594 27.7444 53.5084 27.6334V27.6334Z" fill="#D87D2B"/>
<path d="M83.8631 16.3958C83.7513 16.3499 83.6498 16.282 83.5647 16.1962C83.4796 16.1103 83.4126 16.0083 83.3678 15.8961C83.3229 15.7838 83.301 15.6637 83.3034 15.5429C83.3058 15.4221 83.3325 15.3029 83.3818 15.1926C83.4279 15.0808 83.4957 14.9792 83.5812 14.8938C83.6668 14.8083 83.7685 14.7407 83.8804 14.6948C83.9923 14.6489 84.1122 14.6257 84.2331 14.6265C84.3541 14.6273 84.4737 14.652 84.585 14.6993C84.6968 14.7452 84.7982 14.8131 84.8833 14.8989C84.9684 14.9847 85.0354 15.0868 85.0803 15.199C85.1252 15.3112 85.147 15.4313 85.1446 15.5522C85.1422 15.673 85.1156 15.7921 85.0662 15.9025C85.0229 16.0164 84.9567 16.1203 84.8716 16.2076C84.7866 16.2949 84.6845 16.3639 84.5717 16.4101C84.4589 16.4564 84.3378 16.4789 84.2159 16.4765C84.094 16.474 83.9739 16.4465 83.8631 16.3958V16.3958Z" fill="#D87D2B"/>
<path d="M66.3695 58.6863C66.2077 58.614 66.0707 58.4956 65.9758 58.3458C65.8808 58.1961 65.8321 58.0218 65.8356 57.8445C65.8392 57.6673 65.8948 57.495 65.9957 57.3492C66.0965 57.2034 66.2381 57.0906 66.4027 57.0247C66.5673 56.9589 66.7476 56.943 66.9212 56.979C67.0948 57.0151 67.2539 57.1014 67.3787 57.2273C67.5035 57.3532 67.5884 57.5131 67.6229 57.687C67.6574 57.8609 67.6399 58.0411 67.5726 58.2051C67.5268 58.3169 67.4589 58.4184 67.373 58.5034C67.2872 58.5885 67.1852 58.6555 67.0729 58.7004C66.9607 58.7453 66.8406 58.7672 66.7198 58.7647C66.5989 58.7623 66.4798 58.7357 66.3695 58.6863V58.6863Z" fill="#D87D2B"/>
<path d="M95.7999 28.3311C95.7073 28.1094 95.7067 27.8599 95.7981 27.6377C95.8894 27.4154 96.0654 27.2386 96.2871 27.146C96.5089 27.0535 96.7583 27.0529 96.9806 27.1442C97.2028 27.2356 97.3797 27.4115 97.4722 27.6333C97.523 27.7442 97.5505 27.8642 97.553 27.9861C97.5554 28.108 97.5328 28.2291 97.4866 28.3419C97.4403 28.4547 97.3714 28.5568 97.2841 28.6419C97.1968 28.7269 97.0929 28.7932 96.9789 28.8365C96.8684 28.8814 96.7501 28.9039 96.6308 28.9027C96.5115 28.9016 96.3936 28.8768 96.284 28.8298C96.1743 28.7828 96.0751 28.7146 95.992 28.629C95.9089 28.5434 95.8436 28.4421 95.7999 28.3311Z" fill="#D87D2B"/>
<path d="M53.5078 45.8248C53.4426 45.6602 53.4272 45.4801 53.4636 45.3069C53.5 45.1337 53.5866 44.975 53.7125 44.8506C53.8384 44.7262 53.9981 44.6415 54.1717 44.6072C54.3453 44.5729 54.5252 44.5904 54.689 44.6575C54.8528 44.7247 54.9932 44.8385 55.0927 44.9849C55.1923 45.1312 55.2466 45.3036 55.249 45.4806C55.2513 45.6575 55.2015 45.8313 55.1059 45.9802C55.0102 46.1291 54.8728 46.2466 54.7109 46.3181C54.5998 46.3671 54.48 46.3931 54.3586 46.3947C54.2372 46.3963 54.1167 46.3734 54.0044 46.3274C53.892 46.2813 53.7902 46.2131 53.7048 46.1267C53.6195 46.0403 53.5525 45.9376 53.5078 45.8248Z" fill="#D87D2B"/>
<path d="M67.0679 16.3958C66.957 16.4465 66.837 16.474 66.7151 16.4765C66.5932 16.4789 66.4721 16.4564 66.3593 16.4101C66.2465 16.3639 66.1444 16.2949 66.0593 16.2076C65.9742 16.1203 65.908 16.0164 65.8647 15.9025C65.8154 15.7921 65.7887 15.673 65.7863 15.5522C65.7839 15.4313 65.8058 15.3112 65.8507 15.199C65.8956 15.0868 65.9625 14.9847 66.0476 14.8989C66.1327 14.8131 66.2342 14.7452 66.346 14.6993C66.4573 14.652 66.5769 14.6273 66.6978 14.6265C66.8187 14.6257 66.9386 14.6489 67.0505 14.6948C67.1624 14.7407 67.2641 14.8083 67.3497 14.8938C67.4353 14.9792 67.5031 15.0808 67.5491 15.1926C67.5985 15.3029 67.6251 15.4221 67.6275 15.5429C67.63 15.6637 67.6081 15.7838 67.5632 15.8961C67.5183 16.0083 67.4513 16.1103 67.3662 16.1962C67.2811 16.282 67.1797 16.3499 67.0679 16.3958V16.3958Z" fill="#D87D2B"/>
<path d="M84.5613 58.6866C84.3973 58.7539 84.2171 58.7714 84.0432 58.7369C83.8693 58.7024 83.7094 58.6175 83.5835 58.4927C83.4576 58.3679 83.3713 58.2088 83.3352 58.0352C83.2992 57.8616 83.3151 57.6813 83.3809 57.5167C83.4468 57.3521 83.5596 57.2105 83.7054 57.1097C83.8512 57.0088 84.0235 56.9532 84.2007 56.9496C84.378 56.9461 84.5523 56.9948 84.702 57.0898C84.8518 57.1847 84.9702 57.3217 85.0425 57.4835C85.0919 57.5938 85.1185 57.713 85.1209 57.8338C85.1234 57.9546 85.1015 58.0747 85.0566 58.1869C85.0117 58.2992 84.9447 58.4012 84.8596 58.4871C84.7746 58.5729 84.6731 58.6408 84.5613 58.6866Z" fill="#D87D2B"/>
<path d="M75.4775 49.0614C73.9551 49.1342 72.4426 48.7809 71.1099 48.0413C69.7773 47.3016 68.6773 46.2049 67.9338 44.8744C67.8431 44.6609 67.8382 44.4207 67.9199 44.2036C68.0017 43.9866 68.1639 43.8093 68.3729 43.7087C68.5819 43.6081 68.8216 43.5918 69.0423 43.6632C69.263 43.7347 69.4477 43.8884 69.558 44.0924C70.1632 45.1087 71.0343 45.9405 72.0775 46.4982C73.1207 47.0558 74.2963 47.318 75.4775 47.2567C78.9546 47.2567 81.782 45.103 81.782 42.4441C81.782 39.34 79.5321 37.6315 75.4535 37.6315C70.3762 37.6315 67.3442 35.165 67.3442 31.0142C67.3442 27.4047 70.9537 24.3969 75.4535 24.3969C76.9754 24.3268 78.4869 24.6813 79.819 25.4207C81.1512 26.16 82.2515 27.2552 82.9972 28.5838C83.0878 28.7973 83.0928 29.0375 83.011 29.2546C82.9293 29.4717 82.7671 29.6489 82.5581 29.7496C82.3491 29.8502 82.1094 29.8665 81.8887 29.795C81.668 29.7236 81.4833 29.5699 81.3729 29.3659C80.7658 28.3514 79.8943 27.521 78.8516 26.9636C77.8089 26.4063 76.6343 26.1429 75.4535 26.2016C71.9764 26.2016 69.149 28.3673 69.149 31.0142C69.149 34.1183 71.3868 35.8268 75.4535 35.8268C80.5428 35.8268 83.5867 38.3053 83.5867 42.4441C83.5867 46.1016 79.9532 49.0614 75.4775 49.0614Z" fill="#D87D2B"/>
<path d="M75.4536 52.6707C75.2143 52.6707 74.9848 52.5757 74.8156 52.4065C74.6463 52.2372 74.5513 52.0077 74.5513 51.7684V21.6897C74.5513 21.4504 74.6463 21.2209 74.8156 21.0516C74.9848 20.8824 75.2143 20.7874 75.4536 20.7874C75.693 20.7874 75.9225 20.8824 76.0917 21.0516C76.2609 21.2209 76.356 21.4504 76.356 21.6897V51.7684C76.3576 51.8873 76.3354 52.0054 76.2906 52.1156C76.2458 52.2258 76.1794 52.326 76.0953 52.4101C76.0112 52.4942 75.9111 52.5606 75.8009 52.6054C75.6906 52.6501 75.5726 52.6724 75.4536 52.6707Z" fill="#D87D2B"/>
</g>
<defs>
<linearGradient id="paint0_linear_1233_595" x1="90.5" y1="1" x2="90.5" y2="178" gradientUnits="userSpaceOnUse">
<stop offset="0.322917" stop-color="#D87D2B"/>
<stop offset="1" stop-color="#C73926"/>
</linearGradient>
<linearGradient id="paint1_linear_1233_595" x1="171.414" y1="129.779" x2="170.607" y2="130.588" gradientUnits="userSpaceOnUse">
<stop offset="0.0974497" stop-color="#FB8B01"/>
<stop offset="1" stop-color="#FFBB67"/>
</linearGradient>
<linearGradient id="paint2_linear_1233_595" x1="151.993" y1="128.463" x2="150.705" y2="128.552" gradientUnits="userSpaceOnUse">
<stop offset="0.0974497" stop-color="#FB8B01"/>
<stop offset="1" stop-color="#FFBB67"/>
</linearGradient>
<linearGradient id="paint3_linear_1233_595" x1="177.692" y1="112.487" x2="166.675" y2="115.14" gradientUnits="userSpaceOnUse">
<stop offset="0.0974497" stop-color="#FB8B01"/>
<stop offset="1" stop-color="#FFBB67"/>
</linearGradient>
<linearGradient id="paint4_linear_1233_595" x1="174.795" y1="113.575" x2="167.462" y2="115.338" gradientUnits="userSpaceOnUse">
<stop offset="0.0974497" stop-color="#FB8B01"/>
<stop offset="1" stop-color="#FFBB67"/>
</linearGradient>
<linearGradient id="paint5_linear_1233_595" x1="37.6808" y1="130.408" x2="26.9032" y2="134.305" gradientUnits="userSpaceOnUse">
<stop offset="0.0974497" stop-color="#FB8B01"/>
<stop offset="1" stop-color="#FFBB67"/>
</linearGradient>
<linearGradient id="paint6_linear_1233_595" x1="40.2319" y1="119.381" x2="25.3657" y2="123.861" gradientUnits="userSpaceOnUse">
<stop offset="0.0974497" stop-color="#FB8B01"/>
<stop offset="1" stop-color="#FFBB67"/>
</linearGradient>
<linearGradient id="paint7_linear_1233_595" x1="37.7593" y1="119.322" x2="28.5136" y2="122.216" gradientUnits="userSpaceOnUse">
<stop offset="0.0974497" stop-color="#FB8B01"/>
<stop offset="1" stop-color="#FFBB67"/>
</linearGradient>
<linearGradient id="paint8_linear_1233_595" x1="40.9397" y1="109.317" x2="27.3212" y2="113.616" gradientUnits="userSpaceOnUse">
<stop offset="0.0974497" stop-color="#FB8B01"/>
<stop offset="1" stop-color="#FFBB67"/>
</linearGradient>
<linearGradient id="paint9_linear_1233_595" x1="38.314" y1="110.325" x2="29.1856" y2="113.12" gradientUnits="userSpaceOnUse">
<stop offset="0.0974497" stop-color="#FB8B01"/>
<stop offset="1" stop-color="#FFBB67"/>
</linearGradient>
<linearGradient id="paint10_linear_1233_595" x1="34.9522" y1="112.985" x2="33.6026" y2="113.312" gradientUnits="userSpaceOnUse">
<stop offset="0.0974497" stop-color="#FB8B01"/>
<stop offset="1" stop-color="#FFBB67"/>
</linearGradient>
<linearGradient id="paint11_linear_1233_595" x1="21.1837" y1="112.586" x2="19.4973" y2="112.991" gradientUnits="userSpaceOnUse">
<stop offset="0.0974497" stop-color="#FB8B01"/>
<stop offset="1" stop-color="#FFBB67"/>
</linearGradient>
<linearGradient id="paint12_linear_1233_595" x1="125.24" y1="28.5673" x2="99.7233" y2="32.8723" gradientUnits="userSpaceOnUse">
<stop offset="0.0974497" stop-color="#FB8B01"/>
<stop offset="1" stop-color="#FFBB67"/>
</linearGradient>
<linearGradient id="paint13_linear_1233_595" x1="111.265" y1="74.3477" x2="105.871" y2="77.2346" gradientUnits="userSpaceOnUse">
<stop offset="0.0974497" stop-color="#FB8B01"/>
<stop offset="1" stop-color="#FFBB67"/>
</linearGradient>
<linearGradient id="paint14_linear_1233_595" x1="111.207" y1="79.16" x2="105.07" y2="83.5509" gradientUnits="userSpaceOnUse">
<stop offset="0.0974497" stop-color="#FB8B01"/>
<stop offset="1" stop-color="#FFBB67"/>
</linearGradient>
<linearGradient id="paint15_linear_1233_595" x1="111.266" y1="69.5347" x2="104.817" y2="75.3516" gradientUnits="userSpaceOnUse">
<stop offset="0.0974497" stop-color="#FB8B01"/>
<stop offset="1" stop-color="#FFBB67"/>
</linearGradient>
<linearGradient id="paint16_linear_1233_595" x1="101.23" y1="33.6406" x2="74.6791" y2="40.0344" gradientUnits="userSpaceOnUse">
<stop offset="0.0974497" stop-color="#FB8B01"/>
<stop offset="1" stop-color="#FFBB67"/>
</linearGradient>
<linearGradient id="paint17_linear_1233_595" x1="94.2469" y1="36.2713" x2="76.5762" y2="40.5212" gradientUnits="userSpaceOnUse">
<stop offset="0.0974497" stop-color="#FB8B01"/>
<stop offset="1" stop-color="#FFBB67"/>
</linearGradient>
<clipPath id="clip0_1233_595">
<rect width="186" height="143" fill="white"/>
</clipPath>
</defs>
</svg>
