<svg width="138" height="126" viewBox="0 0 138 126" fill="none" xmlns="http://www.w3.org/2000/svg">
<circle r="52.975" transform="matrix(-1 0 0 1 69.0001 62.9999)" stroke="url(#paint0_linear_806_52244)"/>
<ellipse rx="15.9563" ry="15.525" transform="matrix(-1 0 0 1 122.044 63.0001)" fill="url(#paint1_linear_806_52244)"/>
<ellipse rx="15.9563" ry="15.525" transform="matrix(-1 0 0 1 15.9563 63.0001)" fill="url(#paint2_linear_806_52244)"/>
<circle r="16.3875" transform="matrix(-1 0 0 1 41.4001 108.712)" fill="url(#paint3_linear_806_52244)"/>
<ellipse rx="15.525" ry="16.3875" transform="matrix(-1 0 0 1 39.6752 17.2874)" fill="url(#paint4_linear_806_52244)"/>
<circle r="16.3875" transform="matrix(-1 0 0 1 96.5998 17.2874)" fill="url(#paint5_linear_806_52244)"/>
<ellipse rx="15.525" ry="16.3875" transform="matrix(-1 0 0 1 98.3251 108.712)" fill="url(#paint6_linear_806_52244)"/>
<mask id="path-8-inside-1_806_52244" fill="white">
<path d="M45.2324 14.3862C45.9282 15.8772 46.0461 17.5734 45.5632 19.1463C45.0803 20.7192 44.0311 22.0571 42.6185 22.9008C41.206 23.7446 39.5306 24.0343 37.9167 23.7139C36.3028 23.3934 34.8652 22.4856 33.8822 21.1662C32.8992 19.8468 32.4407 18.2095 32.5954 16.5714C32.7501 14.9333 33.507 13.4109 34.7197 12.2988C35.9323 11.1867 37.5144 10.5641 39.1598 10.5515C40.8051 10.5388 42.3966 11.137 43.6262 12.2304L42.1655 13.8732C41.3427 13.1415 40.2777 12.7412 39.1767 12.7497C38.0756 12.7581 37.0169 13.1748 36.2054 13.919C35.3939 14.6632 34.8874 15.6819 34.7839 16.7781C34.6804 17.8743 34.9872 18.9699 35.645 19.8528C36.3029 20.7358 37.2649 21.3433 38.3448 21.5577C39.4248 21.7721 40.5459 21.5783 41.4912 21.0136C42.4364 20.449 43.1386 19.5537 43.4617 18.5012C43.7848 17.4486 43.706 16.3136 43.2404 15.3158L45.2324 14.3862Z"/>
</mask>
<path d="M45.2324 14.3862C45.9282 15.8772 46.0461 17.5734 45.5632 19.1463C45.0803 20.7192 44.0311 22.0571 42.6185 22.9008C41.206 23.7446 39.5306 24.0343 37.9167 23.7139C36.3028 23.3934 34.8652 22.4856 33.8822 21.1662C32.8992 19.8468 32.4407 18.2095 32.5954 16.5714C32.7501 14.9333 33.507 13.4109 34.7197 12.2988C35.9323 11.1867 37.5144 10.5641 39.1598 10.5515C40.8051 10.5388 42.3966 11.137 43.6262 12.2304L42.1655 13.8732C41.3427 13.1415 40.2777 12.7412 39.1767 12.7497C38.0756 12.7581 37.0169 13.1748 36.2054 13.919C35.3939 14.6632 34.8874 15.6819 34.7839 16.7781C34.6804 17.8743 34.9872 18.9699 35.645 19.8528C36.3029 20.7358 37.2649 21.3433 38.3448 21.5577C39.4248 21.7721 40.5459 21.5783 41.4912 21.0136C42.4364 20.449 43.1386 19.5537 43.4617 18.5012C43.7848 17.4486 43.706 16.3136 43.2404 15.3158L45.2324 14.3862Z" fill="white" stroke="white" stroke-width="2" mask="url(#path-8-inside-1_806_52244)"/>
<circle cx="39.2107" cy="17.1965" r="2.39376" fill="white" stroke="white"/>
<mask id="path-10-inside-2_806_52244" fill="white">
<path d="M48.9927 12.3153C50.2017 14.7382 50.4684 17.5236 49.7412 20.132C49.014 22.7403 47.3447 24.9859 45.0565 26.4339C42.7684 27.8818 40.0243 28.4291 37.3557 27.9696C34.6872 27.5101 32.2842 26.0766 30.6121 23.9467C28.94 21.8169 28.1179 19.1422 28.3049 16.4409C28.492 13.7396 29.675 11.2038 31.6247 9.32474C33.5744 7.44569 36.1521 6.35711 38.8585 6.26984C41.5649 6.18257 44.2073 7.10283 46.274 8.85237L44.8028 10.5904C43.1665 9.20528 41.0745 8.47672 38.9319 8.54581C36.7892 8.6149 34.7484 9.47673 33.2049 10.9644C31.6613 12.452 30.7247 14.4596 30.5766 16.5982C30.4285 18.7369 31.0794 20.8544 32.4032 22.5406C33.727 24.2268 35.6295 25.3617 37.7421 25.7255C39.8548 26.0892 42.0273 25.656 43.8388 24.5096C45.6504 23.3633 46.972 21.5854 47.5477 19.5204C48.1234 17.4554 47.9122 15.2502 46.9551 13.332L48.9927 12.3153Z"/>
</mask>
<path d="M48.9927 12.3153C50.2017 14.7382 50.4684 17.5236 49.7412 20.132C49.014 22.7403 47.3447 24.9859 45.0565 26.4339C42.7684 27.8818 40.0243 28.4291 37.3557 27.9696C34.6872 27.5101 32.2842 26.0766 30.6121 23.9467C28.94 21.8169 28.1179 19.1422 28.3049 16.4409C28.492 13.7396 29.675 11.2038 31.6247 9.32474C33.5744 7.44569 36.1521 6.35711 38.8585 6.26984C41.5649 6.18257 44.2073 7.10283 46.274 8.85237L44.8028 10.5904C43.1665 9.20528 41.0745 8.47672 38.9319 8.54581C36.7892 8.6149 34.7484 9.47673 33.2049 10.9644C31.6613 12.452 30.7247 14.4596 30.5766 16.5982C30.4285 18.7369 31.0794 20.8544 32.4032 22.5406C33.727 24.2268 35.6295 25.3617 37.7421 25.7255C39.8548 26.0892 42.0273 25.656 43.8388 24.5096C45.6504 23.3633 46.972 21.5854 47.5477 19.5204C48.1234 17.4554 47.9122 15.2502 46.9551 13.332L48.9927 12.3153Z" fill="white" stroke="white" stroke-width="2" mask="url(#path-10-inside-2_806_52244)"/>
<path d="M39.3179 17.3584L48.9657 6.71996" stroke="white"/>
<path d="M47.2308 3.04872L46.9893 8.9788L52.431 7.76462L49.0052 6.75584L47.2308 3.04872Z" fill="white"/>
<rect x="114.246" y="61.3521" width="2.3312" height="8.44054" fill="white"/>
<rect x="117.622" y="55.082" width="2.3312" height="14.7107" fill="white"/>
<rect x="120.999" y="58.5386" width="2.3312" height="11.2541" fill="white"/>
<rect x="124.375" y="56.6094" width="2.3312" height="13.1833" fill="white"/>
<rect x="127.751" y="60.1465" width="2.3312" height="9.64633" fill="white"/>
<path d="M39.6748 102.94C39.6748 102.641 39.5271 102.354 39.2643 102.143C39.0015 101.931 38.645 101.812 38.2732 101.812H29.8639C29.4922 101.812 29.1357 101.931 28.8728 102.143C28.61 102.354 28.4623 102.641 28.4623 102.94V107.452C28.4623 107.752 28.61 108.038 28.8728 108.25C29.1357 108.462 29.4922 108.58 29.8639 108.58H36.5816C36.7674 108.58 36.9456 108.64 37.077 108.746L39.0763 110.355C39.1253 110.394 39.1877 110.421 39.2557 110.432C39.3237 110.443 39.3942 110.437 39.4583 110.416C39.5223 110.395 39.5771 110.359 39.6157 110.312C39.6542 110.266 39.6748 110.211 39.6748 110.156V102.94ZM36.1709 105.196C36.1709 105.047 36.2447 104.903 36.3762 104.798C36.5076 104.692 36.6858 104.632 36.8717 104.632C37.0575 104.632 37.2358 104.692 37.3672 104.798C37.4986 104.903 37.5725 105.047 37.5725 105.196C37.5725 105.346 37.4986 105.489 37.3672 105.595C37.2358 105.701 37.0575 105.76 36.8717 105.76C36.6858 105.76 36.5076 105.701 36.3762 105.595C36.2447 105.489 36.1709 105.346 36.1709 105.196ZM33.3678 105.196C33.3678 105.047 33.4416 104.903 33.573 104.798C33.7044 104.692 33.8827 104.632 34.0686 104.632C34.2544 104.632 34.4327 104.692 34.5641 104.798C34.6955 104.903 34.7693 105.047 34.7693 105.196C34.7693 105.346 34.6955 105.489 34.5641 105.595C34.4327 105.701 34.2544 105.76 34.0686 105.76C33.8827 105.76 33.7044 105.701 33.573 105.595C33.4416 105.489 33.3678 105.346 33.3678 105.196ZM31.2654 105.76C31.0796 105.76 30.9013 105.701 30.7699 105.595C30.6385 105.489 30.5646 105.346 30.5646 105.196C30.5646 105.047 30.6385 104.903 30.7699 104.798C30.9013 104.692 31.0796 104.632 31.2654 104.632C31.4513 104.632 31.6295 104.692 31.761 104.798C31.8924 104.903 31.9662 105.047 31.9662 105.196C31.9662 105.346 31.8924 105.489 31.761 105.595C31.6295 105.701 31.4513 105.76 31.2654 105.76Z" fill="white"/>
<path d="M43.3362 109.376C43.3362 109.64 43.2313 109.894 43.0444 110.081C42.8576 110.267 42.6042 110.372 42.34 110.372C42.0758 110.372 41.8224 110.267 41.6355 110.081C41.4487 109.894 41.3438 109.64 41.3438 109.376C41.3438 109.112 41.4487 108.859 41.6355 108.672C41.8224 108.485 42.0758 108.38 42.34 108.38C42.6042 108.38 42.8576 108.485 43.0444 108.672C43.2313 108.859 43.3362 109.112 43.3362 109.376ZM47.3212 109.376C47.3212 109.64 47.2163 109.894 47.0294 110.081C46.8426 110.267 46.5892 110.372 46.325 110.372C46.0608 110.372 45.8074 110.267 45.6205 110.081C45.4337 109.894 45.3287 109.64 45.3287 109.376C45.3287 109.112 45.4337 108.859 45.6205 108.672C45.8074 108.485 46.0608 108.38 46.325 108.38C46.5892 108.38 46.8426 108.485 47.0294 108.672C47.2163 108.859 47.3212 109.112 47.3212 109.376ZM50.31 110.372C50.5742 110.372 50.8276 110.267 51.0144 110.081C51.2012 109.894 51.3062 109.64 51.3062 109.376C51.3062 109.112 51.2012 108.859 51.0144 108.672C50.8276 108.485 50.5742 108.38 50.31 108.38C50.0457 108.38 49.7923 108.485 49.6055 108.672C49.4187 108.859 49.3137 109.112 49.3137 109.376C49.3137 109.64 49.4187 109.894 49.6055 110.081C49.7923 110.267 50.0457 110.372 50.31 110.372Z" fill="white"/>
<path d="M40.5119 117.15L40.5318 117.146C42.3549 116.784 43.4687 116.307 43.9868 116.045C44.7495 116.248 45.5356 116.351 46.3249 116.35C50.7264 116.35 54.2949 113.228 54.2949 109.376C54.2949 105.525 50.7264 102.402 46.3249 102.402C41.9235 102.402 38.355 105.525 38.355 109.376C38.355 111.129 39.0952 112.733 40.3176 113.959C40.2321 114.746 40.0569 115.521 39.7956 116.268L39.7926 116.279C39.7183 116.493 39.6372 116.705 39.5495 116.914C39.4708 117.099 39.6232 117.306 39.8215 117.274C40.0522 117.237 40.2824 117.195 40.5119 117.15ZM41.3088 114.053C41.3228 113.908 41.3044 113.76 41.255 113.623C41.2056 113.485 41.1263 113.359 41.0229 113.255C39.9669 112.195 39.3512 110.839 39.3512 109.376C39.3512 106.196 42.3439 103.399 46.3249 103.399C50.3059 103.399 53.2987 106.196 53.2987 109.376C53.2987 112.557 50.3059 115.354 46.3249 115.354C45.6227 115.355 44.9233 115.263 44.2448 115.083C44.0077 115.019 43.7554 115.045 43.5365 115.156C43.1509 115.352 42.3011 115.724 40.9123 116.046C41.1061 115.396 41.2388 114.728 41.3088 114.053Z" fill="white"/>
<path d="M92.7732 113.262V112.376L94.8442 110.458C95.0203 110.288 95.168 110.134 95.2874 109.998C95.4086 109.862 95.5004 109.728 95.5629 109.597C95.6254 109.465 95.6567 109.322 95.6567 109.168C95.6567 108.998 95.6179 108.851 95.5402 108.728C95.4625 108.603 95.3565 108.507 95.222 108.441C95.0875 108.373 94.9351 108.339 94.7646 108.339C94.5866 108.339 94.4313 108.375 94.2987 108.447C94.1661 108.519 94.0639 108.622 93.9919 108.757C93.9199 108.891 93.8839 109.051 93.8839 109.237H92.7163C92.7163 108.856 92.8025 108.525 92.9749 108.245C93.1472 107.965 93.3887 107.748 93.6993 107.595C94.0099 107.441 94.3679 107.364 94.7732 107.364C95.1898 107.364 95.5525 107.438 95.8612 107.586C96.1718 107.732 96.4133 107.935 96.5857 108.194C96.758 108.453 96.8442 108.751 96.8442 109.086C96.8442 109.306 96.8006 109.523 96.7135 109.737C96.6283 109.951 96.4758 110.188 96.2561 110.45C96.0364 110.709 95.7268 111.021 95.3271 111.384L94.4777 112.217V112.257H96.9209V113.262H92.7732ZM97.5991 112.239V111.271L100.028 107.444H100.863V108.785H100.369L98.8378 111.208V111.254H102.289V112.239H97.5991ZM100.392 113.262V111.944L100.414 111.515V107.444H101.568V113.262H100.392Z" fill="white"/>
<rect x="87.6196" y="106.288" width="2.44954" height="8.12802" rx="1.22477" fill="white"/>
<rect width="2.44954" height="8.12802" rx="1.22477" transform="matrix(-1 0 0 1 108.44 106.288)" fill="white"/>
<rect x="84.8359" y="107.29" width="4.34237" height="6.12385" rx="2.17118" fill="white"/>
<rect width="4.34237" height="6.12385" rx="2.17118" transform="matrix(-1 0 0 1 111.224 107.29)" fill="white"/>
<path d="M108.475 109.138C108.786 107.48 108.733 105.771 108.321 104.137C107.908 102.504 107.146 100.988 106.091 99.7043C105.036 98.4201 103.716 97.4004 102.229 96.7213C100.742 96.0421 99.1265 95.7211 97.5036 95.7822C95.8806 95.8433 94.2919 96.285 92.8561 97.0741C91.4203 97.8633 90.1744 98.9796 89.2116 100.34C88.2487 101.7 87.5937 103.269 87.2956 104.929C86.9974 106.589 87.0637 108.298 87.4896 109.928L88.3405 109.687C87.9495 108.191 87.8886 106.622 88.1624 105.097C88.4362 103.573 89.0376 102.132 89.9217 100.883C90.8058 99.6345 91.9497 98.6095 93.2681 97.8849C94.5865 97.1603 96.0453 96.7548 97.5355 96.6987C99.0257 96.6426 100.509 96.9374 101.874 97.5609C103.239 98.1845 104.452 99.1208 105.42 100.3C106.389 101.479 107.089 102.871 107.468 104.37C107.847 105.87 107.895 107.44 107.609 108.962L108.475 109.138Z" fill="white"/>
<path d="M108.675 111.3C108.675 113.652 106.219 118.327 100.05 118.197" stroke="white" stroke-width="0.8"/>
<rect x="96.6001" y="117.337" width="4.3125" height="2.5875" rx="1.29375" fill="white"/>
<path d="M97.654 18.8653C100.962 18.8653 103.786 19.3897 103.786 21.4882C103.786 23.5858 100.98 24.1293 97.654 24.1293C94.3462 24.1293 91.5218 23.6049 91.5218 21.5073C91.5218 19.4088 94.3281 18.8653 97.654 18.8653ZM102.943 17.6017C104.207 17.5782 105.567 17.7519 106.069 17.8751C107.134 18.0844 107.834 18.5116 108.124 19.1323C108.369 19.642 108.369 20.2332 108.124 20.742C107.68 21.7049 106.25 22.014 105.694 22.0939C105.579 22.1112 105.487 22.0114 105.499 21.8959C105.783 19.2278 103.524 17.9628 102.939 17.672C102.914 17.659 102.909 17.639 102.912 17.6268C102.913 17.6182 102.924 17.6043 102.943 17.6017ZM92.226 17.5999L92.4641 17.602C92.4831 17.6046 92.4926 17.6185 92.4943 17.6263C92.4969 17.6393 92.4918 17.6584 92.4676 17.6723C91.8823 17.9632 89.6233 19.2282 89.9073 21.8954C89.9194 22.0117 89.8279 22.1107 89.7131 22.0942C89.1572 22.0143 87.7268 21.7052 87.2831 20.7424C87.0371 20.2327 87.0371 19.6423 87.2831 19.1327C87.5732 18.5119 88.2724 18.0847 89.3367 17.8746C89.84 17.7522 91.1987 17.5786 92.4641 17.602L92.226 17.5999ZM97.654 8.70459C99.9061 8.70459 101.712 10.5192 101.712 12.7853C101.712 15.0505 99.9061 16.8668 97.654 16.8668C95.4019 16.8668 93.5961 15.0505 93.5961 12.7853C93.5961 10.5192 95.4019 8.70459 97.654 8.70459ZM103.163 9.38511C105.338 9.38511 107.047 11.4437 106.465 13.7367C106.072 15.2804 104.65 16.3057 103.066 16.2641C102.907 16.2597 102.751 16.245 102.6 16.2189C102.49 16.1998 102.435 16.0757 102.497 15.9836C103.102 15.0894 103.446 14.0136 103.446 12.8589C103.446 11.6538 103.07 10.5303 102.416 9.60911C102.396 9.58046 102.38 9.53618 102.401 9.50318C102.418 9.47627 102.45 9.46238 102.48 9.45543C102.7 9.41028 102.926 9.38511 103.163 9.38511ZM92.2427 9.38502C92.4792 9.38502 92.7054 9.4102 92.9264 9.45535C92.9557 9.46229 92.9885 9.47705 93.0058 9.5031C93.0256 9.53609 93.011 9.58037 92.9903 9.60902C92.3368 10.5302 91.9604 11.6537 91.9604 12.8588C91.9604 14.0135 92.3049 15.0893 92.9091 15.9835C92.9713 16.0756 92.916 16.1997 92.8064 16.2188C92.6545 16.2457 92.4991 16.2596 92.3403 16.264C90.7563 16.3057 89.3346 15.2803 88.9418 13.7366C88.3591 11.4436 90.0674 9.38502 92.2427 9.38502Z" fill="white"/>
<path fill-rule="evenodd" clip-rule="evenodd" d="M18.0311 51.6885C18.0795 51.6885 18.127 51.6926 18.1732 51.7004L18.3275 51.7013C18.5576 51.7013 18.7775 51.7949 18.9376 51.9607L24.6493 57.9115C24.8004 58.0682 24.8851 58.2791 24.8851 58.4967V68.8331C24.9053 71.6624 22.7018 73.9742 19.8679 74.0892L10.8251 74.0903H10.7021C7.93938 74.0279 5.72361 71.7935 5.6561 69.0577L5.65576 56.7522C5.72117 53.9544 8.03179 51.7013 10.8093 51.7013L17.8889 51.7004C17.9351 51.6926 17.9826 51.6885 18.0311 51.6885ZM17.1852 53.3924L10.8115 53.3929C8.94295 53.3929 7.39126 54.9062 7.34728 56.7725V68.8331C7.30556 70.7648 8.82793 72.356 10.7405 72.3988H19.8341C21.7162 72.321 23.207 70.7569 23.1936 68.8398L23.1935 59.5631L20.9269 59.5642C18.8633 59.5586 17.1853 57.8761 17.1853 55.8147L17.1852 53.3924ZM17.8204 65.9064C18.2873 65.9064 18.6662 66.2853 18.6662 66.7522C18.6662 67.219 18.2873 67.5979 17.8204 67.5979H11.7309C11.2641 67.5979 10.8852 67.219 10.8852 66.7522C10.8852 66.2853 11.2641 65.9064 11.7309 65.9064H17.8204ZM15.5144 61.6753C15.9813 61.6753 16.3602 62.0542 16.3602 62.5211C16.3602 62.988 15.9813 63.3669 15.5144 63.3669H11.7299C11.263 63.3669 10.8841 62.988 10.8841 62.5211C10.8841 62.0542 11.263 61.6753 11.7299 61.6753H15.5144ZM18.8767 54.3408L18.8768 55.8147C18.8768 56.9469 19.7981 57.8693 20.9292 57.8727L22.2665 57.8716L18.8767 54.3408Z" fill="white"/>
<path d="M11.2925 57.8905L12.984 59.582L16.0851 55.0713" stroke="white" stroke-linecap="round"/>
<defs>
<linearGradient id="paint0_linear_806_52244" x1="53.475" y1="0" x2="53.475" y2="106.95" gradientUnits="userSpaceOnUse">
<stop stop-color="#D27254"/>
<stop offset="1" stop-color="#C73926"/>
</linearGradient>
<linearGradient id="paint1_linear_806_52244" x1="15.9563" y1="0" x2="15.9563" y2="31.05" gradientUnits="userSpaceOnUse">
<stop offset="0.322917" stop-color="#D87D2B"/>
<stop offset="1" stop-color="#C73926"/>
</linearGradient>
<linearGradient id="paint2_linear_806_52244" x1="15.9563" y1="0" x2="15.9563" y2="31.05" gradientUnits="userSpaceOnUse">
<stop offset="0.322917" stop-color="#D87D2B"/>
<stop offset="1" stop-color="#C73926"/>
</linearGradient>
<linearGradient id="paint3_linear_806_52244" x1="16.3875" y1="0" x2="16.3875" y2="32.775" gradientUnits="userSpaceOnUse">
<stop offset="0.322917" stop-color="#D87D2B"/>
<stop offset="1" stop-color="#C73926"/>
</linearGradient>
<linearGradient id="paint4_linear_806_52244" x1="15.525" y1="0" x2="15.525" y2="32.775" gradientUnits="userSpaceOnUse">
<stop offset="0.322917" stop-color="#D87D2B"/>
<stop offset="1" stop-color="#C73926"/>
</linearGradient>
<linearGradient id="paint5_linear_806_52244" x1="16.3875" y1="0" x2="16.3875" y2="32.775" gradientUnits="userSpaceOnUse">
<stop offset="0.322917" stop-color="#D87D2B"/>
<stop offset="1" stop-color="#C73926"/>
</linearGradient>
<linearGradient id="paint6_linear_806_52244" x1="15.525" y1="0" x2="15.525" y2="32.775" gradientUnits="userSpaceOnUse">
<stop offset="0.322917" stop-color="#D87D2B"/>
<stop offset="1" stop-color="#C73926"/>
</linearGradient>
</defs>
</svg>
