<svg width="195" height="113" viewBox="0 0 195 113" fill="none" xmlns="http://www.w3.org/2000/svg">
<path d="M168.465 82.9998C214.465 46.4998 185.632 51.6664 185.465 25.9998C174.466 -32.5002 115.366 30.0999 80.9658 16.4998C46.5658 2.89963 11.7941 4.69254 4.79413 37.6925C-7.20587 70.1925 10.8658 102.7 36.4658 109.5" stroke="url(#paint0_linear_1151_2720)" stroke-dasharray="2 4 6 8"/>
<path d="M156.654 36.8844L97.1621 54.0149L98.7379 59.3599L158.23 42.2294L156.654 36.8844Z" fill="url(#paint1_linear_1151_2720)"/>
<path d="M104.27 78.5667L95.5013 48.8235C95.4363 48.603 95.4626 48.366 95.5744 48.1647C95.6862 47.9633 95.8744 47.8141 96.0975 47.7498L154.147 31.0346C154.37 30.9706 154.61 30.9967 154.814 31.1071C155.017 31.2176 155.168 31.4034 155.233 31.6238L163.002 57.9741L162.761 58.0434L154.993 31.693C154.946 31.5357 154.839 31.403 154.693 31.3241C154.548 31.2452 154.376 31.2266 154.217 31.2722L96.1675 47.9874C96.0081 48.0333 95.8737 48.1398 95.7939 48.2837C95.714 48.4275 95.6952 48.5968 95.7417 48.7543L104.51 78.4975L104.27 78.5667Z" fill="#D87D2B" stroke="#D87D2B" stroke-width="2"/>
<path d="M150.154 58.0966C149.978 58.0964 149.806 58.0398 149.665 57.9354C149.524 57.8309 149.422 57.6842 149.372 57.5172L147.901 52.5285C147.841 52.3237 147.866 52.1038 147.97 51.9169C148.073 51.73 148.248 51.5914 148.455 51.5315L153.503 50.078C153.71 50.0186 153.933 50.0429 154.122 50.1455C154.311 50.248 154.451 50.4206 154.512 50.6252L155.982 55.6139C156.042 55.8186 156.018 56.0386 155.914 56.2255C155.81 56.4124 155.636 56.551 155.429 56.6109L150.381 58.0644C150.307 58.0857 150.231 58.0965 150.154 58.0966V58.0966Z" fill="url(#paint2_linear_1151_2720)"/>
<path d="M104.134 48.9154C104.119 48.8642 104.101 48.8138 104.081 48.7645C103.939 48.4259 103.677 48.1509 103.343 47.9922C103.009 47.8335 102.627 47.8023 102.272 47.9046C101.916 48.007 101.611 48.2357 101.416 48.5467C101.22 48.8577 101.148 49.2292 101.213 49.5897C101.222 49.6423 101.234 49.6943 101.249 49.7456C101.34 50.0539 101.53 50.3248 101.791 50.5174C102.051 50.7101 102.367 50.8144 102.692 50.8145C102.834 50.8148 102.975 50.7948 103.112 50.7551C103.494 50.6447 103.816 50.3891 104.008 50.0442C104.2 49.6993 104.245 49.2934 104.134 48.9154V48.9154ZM103.042 50.5176C102.723 50.609 102.38 50.5718 102.089 50.414C101.798 50.2563 101.583 49.991 101.489 49.6763C101.475 49.625 101.463 49.573 101.454 49.5204C101.407 49.2234 101.471 48.9196 101.635 48.6659C101.798 48.4122 102.049 48.226 102.341 48.142C102.633 48.058 102.946 48.082 103.222 48.2096C103.497 48.3371 103.716 48.5595 103.838 48.835C103.86 48.8834 103.879 48.9334 103.894 48.9847C103.986 49.2997 103.949 49.638 103.789 49.9254C103.629 50.2129 103.36 50.4258 103.042 50.5176V50.5176Z" fill="#D87D2B"/>
<path d="M100.45 49.9755C100.37 49.7036 100.378 49.4137 100.472 49.1464C100.566 48.879 100.743 48.6474 100.977 48.4838C100.758 48.4732 100.539 48.5146 100.339 48.6044C100.14 48.6942 99.9646 48.8299 99.8287 49.0001C99.6928 49.1704 99.6 49.3702 99.5581 49.5831C99.5162 49.7959 99.5263 50.0156 99.5877 50.2237C99.6491 50.4319 99.7599 50.6226 99.9109 50.7799C100.062 50.9372 100.249 51.0565 100.456 51.1279C100.663 51.1994 100.885 51.2209 101.102 51.1906C101.319 51.1604 101.526 51.0793 101.705 50.954C101.419 50.9402 101.144 50.8385 100.919 50.6631C100.694 50.4877 100.53 50.2473 100.45 49.9755V49.9755Z" fill="#D87D2B"/>
<path d="M139.365 56.1071C139.338 56.0124 139.293 55.9238 139.231 55.8465C139.17 55.7691 139.094 55.7044 139.007 55.6562C138.921 55.6079 138.825 55.577 138.727 55.5652C138.628 55.5534 138.528 55.561 138.432 55.5875L130.121 57.8849L129.226 58.1323H134.847L135.742 57.8849L138.84 57.0288C139.033 56.9751 139.197 56.848 139.295 56.6752C139.394 56.5023 139.419 56.298 139.365 56.1071V56.1071Z" fill="url(#paint3_linear_1151_2720)"/>
<path d="M133.485 54.391C133.431 54.2001 133.302 54.0382 133.127 53.941C132.952 53.8438 132.745 53.8192 132.552 53.8727L120.081 57.3194C119.907 57.3682 119.756 57.4769 119.656 57.6259C119.556 57.775 119.513 57.9545 119.534 58.1322H122.763L123.659 57.8848L132.96 55.314C133.153 55.2602 133.317 55.1327 133.416 54.9597C133.514 54.7867 133.539 54.5821 133.485 54.391V54.391Z" fill="url(#paint4_linear_1151_2720)"/>
<path d="M165.59 57.8845H105.126C104.894 57.8848 104.671 57.9761 104.507 58.1385C104.343 58.3008 104.25 58.5209 104.25 58.7505V94.1336C104.25 94.3632 104.343 94.5833 104.507 94.7457C104.671 94.9081 104.894 94.9994 105.126 94.9996H165.59C165.822 94.9994 166.045 94.908 166.209 94.7457C166.373 94.5833 166.466 94.3632 166.466 94.1336V58.7505C166.466 58.5209 166.373 58.3008 166.209 58.1385C166.045 57.9761 165.822 57.8848 165.59 57.8845V57.8845ZM166.216 94.1336C166.215 94.2976 166.15 94.4549 166.032 94.5709C165.915 94.6869 165.756 94.7521 165.59 94.7522H105.126C104.96 94.7521 104.801 94.6869 104.684 94.5709C104.566 94.4549 104.5 94.2976 104.5 94.1336V58.7505C104.5 58.5865 104.566 58.4292 104.684 58.3132C104.801 58.1972 104.96 58.132 105.126 58.132H165.59C165.756 58.132 165.915 58.1972 166.032 58.3132C166.15 58.4292 166.215 58.5865 166.216 58.7505V94.1336Z" fill="#D87D2B" stroke="#D87D2B" stroke-width="2"/>
<path d="M111.01 62.7097C110.712 62.7097 110.422 62.6226 110.175 62.4595C109.928 62.2964 109.735 62.0645 109.622 61.7932C109.508 61.5219 109.478 61.2234 109.536 60.9355C109.594 60.6475 109.737 60.3829 109.947 60.1753C110.157 59.9677 110.425 59.8263 110.716 59.769C111.008 59.7117 111.31 59.7411 111.584 59.8535C111.859 59.9659 112.093 60.1561 112.259 60.4003C112.424 60.6444 112.512 60.9315 112.512 61.2251C112.511 61.6187 112.353 61.996 112.071 62.2744C111.79 62.5527 111.408 62.7092 111.01 62.7097V62.7097ZM111.01 59.9879C110.762 59.9879 110.52 60.0605 110.314 60.1964C110.108 60.3324 109.948 60.5256 109.853 60.7516C109.758 60.9777 109.733 61.2265 109.782 61.4664C109.83 61.7064 109.949 61.9269 110.124 62.0999C110.299 62.2729 110.522 62.3907 110.765 62.4385C111.008 62.4862 111.26 62.4617 111.489 62.3681C111.717 62.2744 111.913 62.1159 112.05 61.9124C112.188 61.709 112.261 61.4698 112.261 61.2251C112.261 60.8971 112.129 60.5826 111.894 60.3507C111.66 60.1187 111.341 59.9883 111.01 59.9879V59.9879Z" fill="#D87D2B"/>
<path d="M108.674 61.2254C108.675 60.9422 108.764 60.6661 108.93 60.4355C109.097 60.2049 109.332 60.0313 109.602 59.9389C109.395 59.8682 109.174 59.8475 108.956 59.8785C108.739 59.9095 108.533 59.9914 108.354 60.1172C108.175 60.2431 108.03 60.4093 107.929 60.6021C107.829 60.7949 107.776 61.0086 107.776 61.2254C107.776 61.4422 107.829 61.6559 107.929 61.8487C108.03 62.0414 108.175 62.2077 108.354 62.3335C108.533 62.4594 108.739 62.5413 108.956 62.5723C109.174 62.6033 109.395 62.5826 109.602 62.5119C109.332 62.4195 109.097 62.2459 108.93 62.0153C108.764 61.7847 108.675 61.5086 108.674 61.2254V61.2254Z" fill="#D87D2B"/>
<path d="M117.099 78.7658C116.8 78.7654 116.514 78.648 116.303 78.4393C116.091 78.2305 115.973 77.9475 115.972 77.6523V74.3119C115.972 74.0166 116.091 73.7334 116.302 73.5246C116.513 73.3158 116.8 73.1985 117.099 73.1985C117.398 73.1985 117.684 73.3158 117.895 73.5246C118.107 73.7334 118.225 74.0166 118.225 74.3119V77.6523C118.225 77.9475 118.106 78.2305 117.895 78.4392C117.684 78.648 117.398 78.7654 117.099 78.7658V78.7658Z" fill="#D87D2B"/>
<path d="M120.103 78.7658C119.805 78.7654 119.518 78.648 119.307 78.4393C119.096 78.2305 118.977 77.9475 118.977 77.6523V74.3119C118.977 74.0166 119.095 73.7334 119.307 73.5246C119.518 73.3158 119.804 73.1985 120.103 73.1985C120.402 73.1985 120.689 73.3158 120.9 73.5246C121.111 73.7334 121.23 74.0166 121.23 74.3119V77.6523C121.23 77.9475 121.111 78.2305 120.899 78.4392C120.688 78.648 120.402 78.7654 120.103 78.7658V78.7658Z" fill="#D87D2B"/>
<path d="M123.108 78.7658C122.809 78.7654 122.523 78.648 122.311 78.4393C122.1 78.2305 121.981 77.9475 121.981 77.6523V74.3119C121.981 74.0166 122.1 73.7334 122.311 73.5246C122.522 73.3158 122.809 73.1985 123.108 73.1985C123.406 73.1985 123.693 73.3158 123.904 73.5246C124.116 73.7334 124.234 74.0166 124.234 74.3119V77.6523C124.234 77.9475 124.115 78.2305 123.904 78.4392C123.693 78.648 123.406 78.7654 123.108 78.7658V78.7658Z" fill="#D87D2B"/>
<path d="M127.739 78.7658C127.441 78.7654 127.154 78.648 126.943 78.4393C126.732 78.2305 126.613 77.9475 126.613 77.6523V74.3119C126.613 74.0166 126.731 73.7334 126.943 73.5246C127.154 73.3158 127.441 73.1985 127.739 73.1985C128.038 73.1985 128.325 73.3158 128.536 73.5246C128.747 73.7334 128.866 74.0166 128.866 74.3119V77.6523C128.866 77.9475 128.747 78.2305 128.536 78.4392C128.325 78.648 128.038 78.7654 127.739 78.7658V78.7658Z" fill="#D87D2B"/>
<path d="M130.744 78.7658C130.445 78.7654 130.159 78.648 129.948 78.4393C129.736 78.2305 129.618 77.9475 129.617 77.6523V74.3119C129.617 74.0166 129.736 73.7334 129.947 73.5246C130.158 73.3158 130.445 73.1985 130.744 73.1985C131.043 73.1985 131.329 73.3158 131.54 73.5246C131.752 73.7334 131.87 74.0166 131.87 74.3119V77.6523C131.87 77.9475 131.751 78.2305 131.54 78.4392C131.329 78.648 131.043 78.7654 130.744 78.7658V78.7658Z" fill="#D87D2B"/>
<path d="M133.748 78.7658C133.45 78.7654 133.163 78.648 132.952 78.4393C132.741 78.2305 132.622 77.9475 132.622 77.6523V74.3119C132.622 74.0166 132.74 73.7334 132.952 73.5246C133.163 73.3158 133.449 73.1985 133.748 73.1985C134.047 73.1985 134.334 73.3158 134.545 73.5246C134.756 73.7334 134.875 74.0166 134.875 74.3119V77.6523C134.875 77.9475 134.756 78.2305 134.545 78.4392C134.333 78.648 134.047 78.7654 133.748 78.7658V78.7658Z" fill="#D87D2B"/>
<path d="M138.38 78.7658C138.081 78.7654 137.795 78.648 137.583 78.4393C137.372 78.2305 137.253 77.9475 137.253 77.6523V74.3119C137.253 74.0166 137.372 73.7334 137.583 73.5246C137.794 73.3158 138.081 73.1985 138.38 73.1985C138.678 73.1985 138.965 73.3158 139.176 73.5246C139.388 73.7334 139.506 74.0166 139.506 74.3119V77.6523C139.506 77.9475 139.387 78.2305 139.176 78.4392C138.965 78.648 138.678 78.7654 138.38 78.7658V78.7658Z" fill="#D87D2B"/>
<path d="M141.384 78.7658C141.085 78.7654 140.799 78.648 140.588 78.4393C140.376 78.2305 140.258 77.9475 140.257 77.6523V74.3119C140.257 74.0166 140.376 73.7334 140.587 73.5246C140.799 73.3158 141.085 73.1985 141.384 73.1985C141.683 73.1985 141.969 73.3158 142.181 73.5246C142.392 73.7334 142.511 74.0166 142.511 74.3119V77.6523C142.51 77.9475 142.391 78.2305 142.18 78.4392C141.969 78.648 141.683 78.7654 141.384 78.7658V78.7658Z" fill="#D87D2B"/>
<path d="M144.388 78.7658C144.09 78.7654 143.803 78.648 143.592 78.4393C143.381 78.2305 143.262 77.9475 143.262 77.6523V74.3119C143.262 74.0166 143.38 73.7334 143.592 73.5246C143.803 73.3158 144.09 73.1985 144.388 73.1985C144.687 73.1985 144.974 73.3158 145.185 73.5246C145.396 73.7334 145.515 74.0166 145.515 74.3119V77.6523C145.515 77.9475 145.396 78.2305 145.185 78.4392C144.973 78.648 144.687 78.7654 144.388 78.7658V78.7658Z" fill="#D87D2B"/>
<path d="M149.02 78.7658C148.722 78.7654 148.435 78.648 148.224 78.4393C148.013 78.2305 147.894 77.9475 147.894 77.6523V74.3119C147.894 74.0166 148.012 73.7334 148.224 73.5246C148.435 73.3158 148.721 73.1985 149.02 73.1985C149.319 73.1985 149.606 73.3158 149.817 73.5246C150.028 73.7334 150.147 74.0166 150.147 74.3119V77.6523C150.147 77.9475 150.028 78.2305 149.816 78.4392C149.605 78.648 149.319 78.7654 149.02 78.7658V78.7658Z" fill="#D87D2B"/>
<path d="M152.025 78.7658C151.726 78.7654 151.44 78.648 151.228 78.4393C151.017 78.2305 150.898 77.9475 150.898 77.6523V74.3119C150.898 74.0166 151.017 73.7334 151.228 73.5246C151.439 73.3158 151.726 73.1985 152.025 73.1985C152.323 73.1985 152.61 73.3158 152.821 73.5246C153.033 73.7334 153.151 74.0166 153.151 74.3119V77.6523C153.151 77.9475 153.032 78.2305 152.821 78.4392C152.61 78.648 152.323 78.7654 152.025 78.7658V78.7658Z" fill="#D87D2B"/>
<path d="M155.029 78.7658C154.73 78.7654 154.444 78.648 154.233 78.4393C154.022 78.2305 153.903 77.9475 153.902 77.6523V74.3119C153.902 74.0166 154.021 73.7334 154.232 73.5246C154.444 73.3158 154.73 73.1985 155.029 73.1985C155.328 73.1985 155.614 73.3158 155.826 73.5246C156.037 73.7334 156.156 74.0166 156.156 74.3119V77.6523C156.155 77.9475 156.036 78.2305 155.825 78.4392C155.614 78.648 155.328 78.7654 155.029 78.7658V78.7658Z" fill="#D87D2B"/>
<path d="M124.737 91.1582H108.533C108.333 91.1582 108.14 91.0794 107.998 90.9391C107.856 90.7987 107.776 90.6085 107.776 90.41C107.776 90.2116 107.856 90.0213 107.998 89.881C108.14 89.7407 108.333 89.6619 108.533 89.6619H124.737C124.938 89.6619 125.13 89.7407 125.272 89.881C125.414 90.0213 125.494 90.2116 125.494 90.41C125.494 90.6085 125.414 90.7987 125.272 90.9391C125.13 91.0794 124.938 91.1582 124.737 91.1582Z" fill="url(#paint5_linear_1151_2720)"/>
<path d="M119.542 87.9414H113.729C113.528 87.9414 113.335 87.8626 113.193 87.7223C113.051 87.582 112.972 87.3917 112.972 87.1932C112.972 86.9948 113.051 86.8045 113.193 86.6642C113.335 86.5239 113.528 86.4451 113.729 86.4451H119.542C119.743 86.4451 119.936 86.5239 120.078 86.6642C120.22 86.8045 120.299 86.9948 120.299 87.1932C120.299 87.3917 120.22 87.582 120.078 87.7223C119.936 87.8626 119.743 87.9414 119.542 87.9414V87.9414Z" fill="url(#paint6_linear_1151_2720)"/>
<path d="M166.17 65.2805H104.455V65.528H166.17V65.2805Z" fill="#D87D2B" stroke="#D87D2B" stroke-width="2"/>
<g clip-path="url(#clip0_1151_2720)">
<path d="M74.4376 19.9998H39.4943C33.9247 19.9998 29.3936 24.5309 29.3936 30.1005V64.623C29.3936 65.8983 29.4352 67.1893 29.5173 68.4604L32.0447 107.636C32.2387 110.644 34.7517 113 37.7656 113H76.1662C79.1802 113 81.693 110.644 81.8872 107.636L84.4146 68.4606C84.4967 67.1895 84.5384 65.8983 84.5384 64.6232V30.1005C84.5384 24.5309 80.0072 19.9998 74.4376 19.9998ZM81.8084 64.623C81.8084 65.8398 81.7687 67.0718 81.6905 68.2846L79.1631 107.46C79.0614 109.036 77.745 110.27 76.1664 110.27H37.7656C36.1869 110.27 34.8705 109.036 34.7688 107.46L32.2414 68.2846C32.1632 67.0718 32.1235 65.8398 32.1235 64.623V30.1005C32.1235 26.0362 35.43 22.7297 39.4943 22.7297H74.4376C78.5019 22.7297 81.8084 26.0362 81.8084 30.1005V64.623Z" fill="#D87D2B"/>
<path d="M74.4376 104.446H39.4944C38.7405 104.446 38.1294 105.057 38.1294 105.811C38.1294 106.565 38.7405 107.176 39.4944 107.176H74.4376C75.1914 107.176 75.8026 106.565 75.8026 105.811C75.8026 105.057 75.1914 104.446 74.4376 104.446Z" fill="#D87D2B"/>
<path d="M54.0539 44.5691C54.8078 44.5691 55.4189 43.958 55.4189 43.2042V40.2922C55.4189 39.5384 54.8078 38.9272 54.0539 38.9272C53.3001 38.9272 52.689 39.5384 52.689 40.2922V43.2042C52.689 43.958 53.3001 44.5691 54.0539 44.5691Z" fill="#D87D2B"/>
<path d="M48.2302 44.5691C48.984 44.5691 49.5952 43.958 49.5952 43.2042V40.2922C49.5952 39.5384 48.984 38.9272 48.2302 38.9272C47.4764 38.9272 46.8652 39.5384 46.8652 40.2922V43.2042C46.8652 43.958 47.4764 44.5691 48.2302 44.5691Z" fill="#D87D2B"/>
<path d="M59.8777 44.5691C60.6315 44.5691 61.2426 43.958 61.2426 43.2042V40.2922C61.2426 39.5384 60.6315 38.9272 59.8777 38.9272C59.1238 38.9272 58.5127 39.5384 58.5127 40.2922V43.2042C58.5127 43.958 59.1238 44.5691 59.8777 44.5691Z" fill="#D87D2B"/>
<path d="M65.7019 44.5691C66.4557 44.5691 67.0669 43.958 67.0669 43.2042V40.2922C67.0669 39.5384 66.4557 38.9272 65.7019 38.9272C64.9481 38.9272 64.3369 39.5384 64.3369 40.2922V43.2042C64.3369 43.958 64.9481 44.5691 65.7019 44.5691Z" fill="#D87D2B"/>
<path d="M41.6783 75.1445H46.0462C48.003 75.1445 49.5951 73.5524 49.5951 71.5956C49.5951 69.6387 48.003 68.0466 46.0462 68.0466H41.6783C39.7215 68.0466 38.1294 69.6387 38.1294 71.5956C38.1294 73.5524 39.7215 75.1445 41.6783 75.1445ZM41.6783 70.7766H46.0462C46.4978 70.7766 46.8652 71.144 46.8652 71.5956C46.8652 72.0471 46.4978 72.4145 46.0462 72.4145H41.6783C41.2268 72.4145 40.8593 72.0471 40.8593 71.5956C40.8593 71.144 41.2268 70.7766 41.6783 70.7766Z" fill="#D87D2B"/>
<path d="M54.7818 75.1445H59.1497C61.1066 75.1445 62.6987 73.5524 62.6987 71.5956C62.6987 69.6387 61.1066 68.0466 59.1497 68.0466H54.7818C52.825 68.0466 51.2329 69.6387 51.2329 71.5956C51.2329 73.5524 52.825 75.1445 54.7818 75.1445ZM54.7818 70.7766H59.1497C59.6013 70.7766 59.9687 71.144 59.9687 71.5956C59.9687 72.0471 59.6013 72.4145 59.1497 72.4145H54.7818C54.3303 72.4145 53.9629 72.0471 53.9629 71.5956C53.9629 71.144 54.3303 70.7766 54.7818 70.7766Z" fill="#D87D2B"/>
<path d="M72.2537 68.0466H67.8858C65.929 68.0466 64.3369 69.6387 64.3369 71.5956C64.3369 73.5524 65.929 75.1445 67.8858 75.1445H72.2537C74.2106 75.1445 75.8027 73.5524 75.8027 71.5956C75.8027 69.6387 74.2106 68.0466 72.2537 68.0466ZM72.2537 72.4145H67.8858C67.4343 72.4145 67.0669 72.0471 67.0669 71.5956C67.0669 71.144 67.4343 70.7766 67.8858 70.7766H72.2537C72.7053 70.7766 73.0727 71.144 73.0727 71.5956C73.0727 72.0471 72.7053 72.4145 72.2537 72.4145Z" fill="#D87D2B"/>
<path d="M41.6783 83.8803H46.0462C48.003 83.8803 49.5951 82.2882 49.5951 80.3314C49.5951 78.3746 48.003 76.7825 46.0462 76.7825H41.6783C39.7215 76.7825 38.1294 78.3746 38.1294 80.3314C38.1294 82.2882 39.7215 83.8803 41.6783 83.8803ZM41.6783 79.5124H46.0462C46.4978 79.5124 46.8652 79.8799 46.8652 80.3314C46.8652 80.7829 46.4978 81.1504 46.0462 81.1504H41.6783C41.2268 81.1504 40.8593 80.7829 40.8593 80.3314C40.8593 79.8799 41.2268 79.5124 41.6783 79.5124Z" fill="#D87D2B"/>
<path d="M54.7818 83.8803H59.1497C61.1066 83.8803 62.6987 82.2882 62.6987 80.3314C62.6987 78.3746 61.1066 76.7825 59.1497 76.7825H54.7818C52.825 76.7825 51.2329 78.3746 51.2329 80.3314C51.2329 82.2882 52.825 83.8803 54.7818 83.8803ZM54.7818 79.5124H59.1497C59.6013 79.5124 59.9687 79.8799 59.9687 80.3314C59.9687 80.7829 59.6013 81.1504 59.1497 81.1504H54.7818C54.3303 81.1504 53.9629 80.7829 53.9629 80.3314C53.9629 79.8799 54.3303 79.5124 54.7818 79.5124Z" fill="#D87D2B"/>
<path d="M72.2537 76.7825H67.8858C65.929 76.7825 64.3369 78.3746 64.3369 80.3314C64.3369 82.2882 65.929 83.8803 67.8858 83.8803H72.2537C74.2106 83.8803 75.8027 82.2882 75.8027 80.3314C75.8027 78.3746 74.2106 76.7825 72.2537 76.7825ZM72.2537 81.1504H67.8858C67.4343 81.1504 67.0669 80.7829 67.0669 80.3314C67.0669 79.8799 67.4343 79.5124 67.8858 79.5124H72.2537C72.7053 79.5124 73.0727 79.8799 73.0727 80.3314C73.0727 80.7829 72.7053 81.1504 72.2537 81.1504Z" fill="#D87D2B"/>
<path d="M41.6783 92.6162H46.0462C48.003 92.6162 49.5951 91.0241 49.5951 89.0672C49.5951 87.1104 48.003 85.5183 46.0462 85.5183H41.6783C39.7215 85.5183 38.1294 87.1104 38.1294 89.0672C38.1294 91.0241 39.7215 92.6162 41.6783 92.6162ZM41.6783 88.2483H46.0462C46.4978 88.2483 46.8652 88.6157 46.8652 89.0672C46.8652 89.5188 46.4978 89.8862 46.0462 89.8862H41.6783C41.2268 89.8862 40.8593 89.5188 40.8593 89.0672C40.8593 88.6157 41.2268 88.2483 41.6783 88.2483Z" fill="#D87D2B"/>
<path d="M54.7818 92.6162H59.1497C61.1066 92.6162 62.6987 91.0241 62.6987 89.0672C62.6987 87.1104 61.1066 85.5183 59.1497 85.5183H54.7818C52.825 85.5183 51.2329 87.1104 51.2329 89.0672C51.2329 91.0241 52.825 92.6162 54.7818 92.6162ZM54.7818 88.2483H59.1497C59.6013 88.2483 59.9687 88.6157 59.9687 89.0672C59.9687 89.5188 59.6013 89.8862 59.1497 89.8862H54.7818C54.3303 89.8862 53.9629 89.5188 53.9629 89.0672C53.9629 88.6157 54.3303 88.2483 54.7818 88.2483Z" fill="#D87D2B"/>
<path d="M72.2537 85.5183H67.8858C65.929 85.5183 64.3369 87.1104 64.3369 89.0672C64.3369 91.0241 65.929 92.6162 67.8858 92.6162H72.2537C74.2106 92.6162 75.8027 91.0241 75.8027 89.0672C75.8027 87.1104 74.2106 85.5183 72.2537 85.5183ZM72.2537 89.8862H67.8858C67.4343 89.8862 67.0669 89.5188 67.0669 89.0672C67.0669 88.6157 67.4343 88.2483 67.8858 88.2483H72.2537C72.7053 88.2483 73.0727 88.6157 73.0727 89.0672C73.0727 89.5188 72.7053 89.8862 72.2537 89.8862Z" fill="#D87D2B"/>
<path d="M41.6783 101.352H46.0462C48.003 101.352 49.5951 99.7599 49.5951 97.8031C49.5951 95.8463 48.003 94.2542 46.0462 94.2542H41.6783C39.7215 94.2542 38.1294 95.8463 38.1294 97.8031C38.1294 99.7599 39.7215 101.352 41.6783 101.352ZM41.6783 96.9841H46.0462C46.4978 96.9841 46.8652 97.3515 46.8652 97.8031C46.8652 98.2546 46.4978 98.6221 46.0462 98.6221H41.6783C41.2268 98.6221 40.8593 98.2546 40.8593 97.8031C40.8593 97.3515 41.2268 96.9841 41.6783 96.9841Z" fill="#D87D2B"/>
<path d="M54.7818 101.352H59.1497C61.1066 101.352 62.6987 99.7599 62.6987 97.8031C62.6987 95.8463 61.1066 94.2542 59.1497 94.2542H54.7818C52.825 94.2542 51.2329 95.8463 51.2329 97.8031C51.2329 99.7599 52.825 101.352 54.7818 101.352ZM54.7818 96.9841H59.1497C59.6013 96.9841 59.9687 97.3515 59.9687 97.8031C59.9687 98.2546 59.6013 98.6221 59.1497 98.6221H54.7818C54.3303 98.6221 53.9629 98.2546 53.9629 97.8031C53.9629 97.3515 54.3303 96.9841 54.7818 96.9841Z" fill="#D87D2B"/>
<path d="M72.2537 94.2542H67.8858C65.929 94.2542 64.3369 95.8463 64.3369 97.8031C64.3369 99.7599 65.929 101.352 67.8858 101.352H72.2537C74.2106 101.352 75.8027 99.7599 75.8027 97.8031C75.8027 95.8463 74.2106 94.2542 72.2537 94.2542ZM72.2537 98.6221H67.8858C67.4343 98.6221 67.0669 98.2546 67.0669 97.8031C67.0669 97.3515 67.4343 96.9841 67.8858 96.9841H72.2537C72.7053 96.9841 73.0727 97.3515 73.0727 97.8031C73.0727 98.2546 72.7053 98.6221 72.2537 98.6221Z" fill="#D87D2B"/>
<path d="M74.4374 30.1917H39.4942C37.1359 30.1917 35.2173 32.1103 35.2173 34.4686V60.676C35.2173 63.0343 37.1359 64.9529 39.4942 64.9529H74.4374C76.7957 64.9529 78.7144 63.0343 78.7144 60.676V34.4686C78.7144 32.1103 76.7957 30.1917 74.4374 30.1917ZM55.6008 59.129V62.223H48.139V59.129H55.6008ZM58.3308 59.129H65.7926V62.223H58.3308V59.129ZM39.4942 56.3991C38.9488 56.3991 38.4273 56.5028 37.9472 56.6899V53.0145C38.4273 53.2016 38.9488 53.3053 39.4942 53.3053H74.4374C74.9829 53.3053 75.5043 53.2016 75.9844 53.0145V56.6899C75.5043 56.5028 74.9829 56.3991 74.4374 56.3991H39.4942ZM37.9472 34.4686C37.9472 33.6155 38.6412 32.9216 39.4942 32.9216H74.4374C75.2905 32.9216 75.9844 33.6155 75.9844 34.4686V49.0282C75.9844 49.8813 75.2905 50.5752 74.4374 50.5752H39.4942C38.6412 50.5752 37.9472 49.8813 37.9472 49.0282V34.4686ZM37.9472 60.676C37.9472 59.823 38.6412 59.129 39.4942 59.129H45.4091V62.223H39.4942C38.6412 62.223 37.9472 61.529 37.9472 60.676ZM74.4374 62.223H68.5226V59.129H74.4374C75.2905 59.129 75.9844 59.823 75.9844 60.676C75.9844 61.529 75.2905 62.223 74.4374 62.223Z" fill="#D87D2B"/>
<circle opacity="0.5" cx="94.5365" cy="101.942" r="6.78044" transform="rotate(10.9258 94.5365 101.942)" fill="#D87D2B"/>
</g>
<circle opacity="0.8" cx="168.6" cy="21.1335" r="11.2121" transform="rotate(10.9258 168.6 21.1335)" fill="url(#paint7_linear_1151_2720)"/>
<defs>
<linearGradient id="paint0_linear_1151_2720" x1="97.7697" y1="109.5" x2="97.7697" y2="0.557732" gradientUnits="userSpaceOnUse">
<stop offset="0.322917" stop-color="#D87D2B"/>
<stop offset="1" stop-color="#C73926"/>
</linearGradient>
<linearGradient id="paint1_linear_1151_2720" x1="126.908" y1="45.4497" x2="128.45" y2="50.8044" gradientUnits="userSpaceOnUse">
<stop offset="0.322917" stop-color="#D87D2B"/>
<stop offset="1" stop-color="#C73926"/>
</linearGradient>
<linearGradient id="paint2_linear_1151_2720" x1="151.942" y1="50.0461" x2="151.942" y2="58.0966" gradientUnits="userSpaceOnUse">
<stop offset="0.322917" stop-color="#D87D2B"/>
<stop offset="1" stop-color="#C73926"/>
</linearGradient>
<linearGradient id="paint3_linear_1151_2720" x1="134.309" y1="57.0298" x2="134.309" y2="58.1323" gradientUnits="userSpaceOnUse">
<stop stop-color="#EAB7A9"/>
<stop offset="1" stop-color="#DD3636"/>
</linearGradient>
<linearGradient id="paint4_linear_1151_2720" x1="126.521" y1="56.2948" x2="126.521" y2="58.1322" gradientUnits="userSpaceOnUse">
<stop stop-color="#EAB7A9"/>
<stop offset="1" stop-color="#DD3636"/>
</linearGradient>
<linearGradient id="paint5_linear_1151_2720" x1="116.635" y1="90.5169" x2="116.635" y2="91.1582" gradientUnits="userSpaceOnUse">
<stop stop-color="#EAB7A9"/>
<stop offset="1" stop-color="#DD3636"/>
</linearGradient>
<linearGradient id="paint6_linear_1151_2720" x1="116.635" y1="87.3001" x2="116.635" y2="87.9414" gradientUnits="userSpaceOnUse">
<stop stop-color="#EAB7A9"/>
<stop offset="1" stop-color="#DD3636"/>
</linearGradient>
<linearGradient id="paint7_linear_1151_2720" x1="168.6" y1="9.9214" x2="168.6" y2="32.3456" gradientUnits="userSpaceOnUse">
<stop offset="0.322917" stop-color="#D87D2B"/>
<stop offset="1" stop-color="#C73926"/>
</linearGradient>
<clipPath id="clip0_1151_2720">
<rect width="93" height="93" fill="white" transform="translate(10.4658 19.9998)"/>
</clipPath>
</defs>
</svg>
