<svg width="172" height="172" viewBox="0 0 172 172" fill="none" xmlns="http://www.w3.org/2000/svg">
<circle opacity="0.5" cx="85.5752" cy="85.575" r="22.8274" transform="rotate(10.9258 85.5752 85.575)" fill="#D87D2B"/>
<circle opacity="0.3" cx="85.8866" cy="85.8865" r="72.8188" transform="rotate(10.9258 85.8866 85.8865)" stroke="url(#paint0_linear_1151_2771)" stroke-dasharray="2 4 6 8"/>
<circle opacity="0.5" cx="136.177" cy="31.1791" r="8.07187" transform="rotate(10.9258 136.177 31.1791)" fill="#D87D2B"/>
<circle opacity="0.5" cx="112.643" cy="150.659" r="8.07187" transform="rotate(10.9258 112.643 150.659)" fill="#D87D2B"/>
<circle opacity="0.5" cx="25.7487" cy="99.0653" r="8.07187" transform="rotate(10.9258 25.7487 99.0653)" fill="#D87D2B"/>
<g clip-path="url(#clip0_1151_2771)">
<path d="M35.6422 49.8577C35.3854 49.8577 35.1772 50.0659 35.1772 50.3226V54.7864C35.1772 55.0432 35.3854 55.2514 35.6422 55.2514C35.899 55.2514 36.1072 55.0432 36.1072 54.7864V50.3226C36.1072 50.0659 35.899 49.8577 35.6422 49.8577Z" fill="#D87D2B"/>
<path d="M39.6098 38.4502H38.6178C38.361 38.4502 38.1528 38.6584 38.1528 38.9152C38.1528 39.172 38.361 39.3801 38.6178 39.3801H39.6098C39.8665 39.3801 40.0747 39.172 40.0747 38.9152C40.0747 38.6584 39.8665 38.4502 39.6098 38.4502Z" fill="#D87D2B"/>
<path d="M39.6098 39.9382H38.6178C38.361 39.9382 38.1528 40.1464 38.1528 40.4032C38.1528 40.66 38.361 40.8682 38.6178 40.8682H39.6098C39.8665 40.8682 40.0747 40.66 40.0747 40.4032C40.0747 40.1464 39.8665 39.9382 39.6098 39.9382Z" fill="#D87D2B"/>
<path d="M39.6098 41.426H38.6178C38.361 41.426 38.1528 41.6342 38.1528 41.891C38.1528 42.1478 38.361 42.356 38.6178 42.356H39.6098C39.8665 42.356 40.0747 42.1478 40.0747 41.891C40.0747 41.6342 39.8665 41.426 39.6098 41.426Z" fill="#D87D2B"/>
<path d="M39.6098 43.4099H38.6178C38.361 43.4099 38.1528 43.6181 38.1528 43.8749C38.1528 44.1317 38.361 44.3399 38.6178 44.3399H39.6098C39.8665 44.3399 40.0747 44.1317 40.0747 43.8749C40.0747 43.6181 39.8665 43.4099 39.6098 43.4099Z" fill="#D87D2B"/>
<path d="M39.6098 44.8979H38.6178C38.361 44.8979 38.1528 45.1061 38.1528 45.3629C38.1528 45.6197 38.361 45.8279 38.6178 45.8279H39.6098C39.8665 45.8279 40.0747 45.6197 40.0747 45.3629C40.0747 45.1061 39.8665 44.8979 39.6098 44.8979Z" fill="#D87D2B"/>
<path d="M39.6098 46.3857H38.6178C38.361 46.3857 38.1528 46.5939 38.1528 46.8507C38.1528 47.1075 38.361 47.3157 38.6178 47.3157H39.6098C39.8665 47.3157 40.0747 47.1075 40.0747 46.8507C40.0747 46.5939 39.8665 46.3857 39.6098 46.3857Z" fill="#D87D2B"/>
<path d="M39.6098 47.8738H38.6178C38.361 47.8738 38.1528 48.082 38.1528 48.3388C38.1528 48.5955 38.361 48.8037 38.6178 48.8037H39.6098C39.8665 48.8037 40.0747 48.5955 40.0747 48.3388C40.0747 48.082 39.8665 47.8738 39.6098 47.8738Z" fill="#D87D2B"/>
<path d="M39.6098 49.8577H38.6178C38.361 49.8577 38.1528 50.0659 38.1528 50.3226C38.1528 50.5794 38.361 50.7876 38.6178 50.7876H39.6098C39.8665 50.7876 40.0747 50.5794 40.0747 50.3226C40.0747 50.0659 39.8665 49.8577 39.6098 49.8577Z" fill="#D87D2B"/>
<path d="M39.6098 51.3455H38.6178C38.361 51.3455 38.1528 51.5536 38.1528 51.8104C38.1528 52.0672 38.361 52.2754 38.6178 52.2754H39.6098C39.8665 52.2754 40.0747 52.0672 40.0747 51.8104C40.0747 51.5536 39.8665 51.3455 39.6098 51.3455Z" fill="#D87D2B"/>
<path d="M39.6098 52.8335H38.6178C38.361 52.8335 38.1528 53.0417 38.1528 53.2985C38.1528 53.5553 38.361 53.7634 38.6178 53.7634H39.6098C39.8665 53.7634 40.0747 53.5553 40.0747 53.2985C40.0747 53.0417 39.8665 52.8335 39.6098 52.8335Z" fill="#D87D2B"/>
<path d="M39.6098 54.3213H38.6178C38.361 54.3213 38.1528 54.5295 38.1528 54.7863C38.1528 55.0431 38.361 55.2512 38.6178 55.2512H39.6098C39.8665 55.2512 40.0747 55.0431 40.0747 54.7863C40.0747 54.5295 39.8665 54.3213 39.6098 54.3213Z" fill="#D87D2B"/>
<path d="M39.6098 56.3052H38.6178C38.361 56.3052 38.1528 56.5134 38.1528 56.7702C38.1528 57.0269 38.361 57.2351 38.6178 57.2351H39.6098C39.8665 57.2351 40.0747 57.0269 40.0747 56.7702C40.0747 56.5134 39.8665 56.3052 39.6098 56.3052Z" fill="#D87D2B"/>
<path d="M39.6098 57.7932H38.6178C38.361 57.7932 38.1528 58.0014 38.1528 58.2582C38.1528 58.515 38.361 58.7232 38.6178 58.7232H39.6098C39.8665 58.7232 40.0747 58.515 40.0747 58.2582C40.0747 58.0014 39.8665 57.7932 39.6098 57.7932Z" fill="#D87D2B"/>
<path d="M39.6098 59.281H38.6178C38.361 59.281 38.1528 59.4892 38.1528 59.746C38.1528 60.0028 38.361 60.211 38.6178 60.211H39.6098C39.8665 60.211 40.0747 60.0028 40.0747 59.746C40.0747 59.4892 39.8665 59.281 39.6098 59.281Z" fill="#D87D2B"/>
<path d="M39.6098 60.769H38.6178C38.361 60.769 38.1528 60.9772 38.1528 61.234C38.1528 61.4908 38.361 61.699 38.6178 61.699H39.6098C39.8665 61.699 40.0747 61.4908 40.0747 61.234C40.0747 60.9772 39.8665 60.769 39.6098 60.769Z" fill="#D87D2B"/>
<path d="M45.5617 53.8254C44.2114 53.8254 43.1128 54.924 43.1128 56.2743V59.2501C43.1128 60.6004 44.2114 61.699 45.5617 61.699C46.9119 61.699 48.0105 60.6004 48.0105 59.2501V56.2743C48.0105 54.924 46.9119 53.8254 45.5617 53.8254ZM47.0806 59.2501C47.0806 60.0876 46.3992 60.7691 45.5617 60.7691C44.7241 60.7691 44.0427 60.0876 44.0427 59.2501V56.2743C44.0427 55.4368 44.7241 54.7554 45.5617 54.7554C46.3992 54.7554 47.0806 55.4368 47.0806 56.2743V59.2501Z" fill="#D87D2B"/>
<path d="M55.9769 33.4905H28.2024C27.1256 33.4905 26.2495 34.3666 26.2495 35.4434V41.891C26.2495 42.9678 27.1256 43.8439 28.2024 43.8439H31.7052V62.7219C31.7052 64.0721 32.8038 65.1707 34.1541 65.1707H50.0252C51.3755 65.1707 52.4741 64.0721 52.4741 62.7219V43.8439H55.9769C57.0537 43.8439 57.9298 42.9678 57.9298 41.891V35.4434C57.9298 34.3666 57.0537 33.4905 55.9769 33.4905ZM50.0252 64.2408H34.1541C33.3166 64.2408 32.6352 63.5594 32.6352 62.7219V43.3807C32.6352 43.3801 32.6352 43.3795 32.6352 43.3789C32.6352 43.3784 32.6352 43.3777 32.6352 43.3771V37.8922H35.177V48.3387C35.177 48.5954 35.3852 48.8036 35.642 48.8036C35.8988 48.8036 36.107 48.5954 36.107 48.3387V37.8922H38.6178H39.6098H43.2116C43.1479 38.0558 43.1126 38.2334 43.1126 38.4192V41.395C43.1126 42.1984 43.7661 42.852 44.5695 42.852H46.5534C47.3567 42.852 48.0103 42.1984 48.0103 41.395V38.4192C48.0103 38.2334 47.975 38.0558 47.9113 37.8922H51.5441V43.376C51.5441 43.3769 51.544 43.3779 51.544 43.3789C51.544 43.3799 51.5441 43.3809 51.5441 43.3819V62.7219C51.5441 63.5594 50.8627 64.2408 50.0252 64.2408ZM45.5614 38.8842C45.8182 38.8842 46.0264 38.676 46.0264 38.4192V37.8922H46.5534C46.844 37.8922 47.0804 38.1286 47.0804 38.4192V39.4421H44.0425V38.4192C44.0425 38.1286 44.2789 37.8922 44.5695 37.8922H45.0965V38.4192C45.0965 38.676 45.3047 38.8842 45.5614 38.8842ZM45.5614 40.9301C45.3047 40.9301 45.0965 41.1383 45.0965 41.395V41.922H44.5695C44.2789 41.922 44.0425 41.6856 44.0425 41.395V40.3721H47.0804V41.395C47.0804 41.6856 46.844 41.922 46.5534 41.922H46.0264V41.395C46.0264 41.1383 45.8182 40.9301 45.5614 40.9301ZM56.9998 41.891C56.9998 42.4551 56.5409 42.914 55.9769 42.914H52.4741V37.8922H53.993C54.2498 37.8922 54.4579 37.6841 54.4579 37.4273C54.4579 37.1705 54.2498 36.9623 53.993 36.9623H30.1863C29.9295 36.9623 29.7213 37.1705 29.7213 37.4273C29.7213 37.6841 29.9295 37.8922 30.1863 37.8922H31.7052V42.914H28.2024C27.6384 42.914 27.1795 42.4551 27.1795 41.891V35.4434C27.1795 34.8793 27.6384 34.4204 28.2024 34.4204H55.9769C56.5409 34.4204 56.9998 34.8793 56.9998 35.4434V41.891Z" fill="#D87D2B"/>
</g>
<g clip-path="url(#clip1_1151_2771)">
<path d="M157.495 114.589H157.397V86.7678C157.397 85.9185 156.706 85.2276 155.857 85.2276H155.3V85.1948C155.3 84.6346 154.844 84.179 154.284 84.179H141.7C141.14 84.179 140.684 84.6346 140.684 85.1948V85.2276H140.127C139.278 85.2276 138.587 85.9185 138.587 86.7678V114.589H138.489C137.965 114.589 137.539 115.015 137.539 115.539V117.178C137.539 117.449 137.759 117.669 138.03 117.669H157.954C158.226 117.669 158.446 117.449 158.446 117.178V115.539C158.446 115.015 158.019 114.589 157.495 114.589ZM155.857 86.2107C156.164 86.2107 156.414 86.4606 156.414 86.7678V114.589H155.3V86.2107H155.857ZM141.668 114.589V103.513H154.317V114.589H141.668ZM141.668 99.3185H154.317V102.53H141.668V99.3185ZM154.317 98.3354H141.668V87.7836H154.317V98.3354ZM141.7 85.162H154.284C154.302 85.162 154.317 85.1768 154.317 85.1948V86.8005H141.668V85.1948C141.668 85.1768 141.682 85.162 141.7 85.162ZM139.57 86.7678C139.57 86.4606 139.82 86.2107 140.127 86.2107H140.684V114.589H139.57V86.7678ZM157.462 116.686H138.522V115.572H157.462V116.686Z" fill="#D87D2B"/>
<path d="M148.517 96.2383H144.322C144.051 96.2383 143.831 96.4584 143.831 96.7298C143.831 97.0013 144.051 97.2214 144.322 97.2214H148.517C148.788 97.2214 149.008 97.0013 149.008 96.7298C149.008 96.4584 148.788 96.2383 148.517 96.2383Z" fill="#D87D2B"/>
<path d="M149.565 100.433H143.273C143.002 100.433 142.782 100.653 142.782 100.924C142.782 101.196 143.002 101.416 143.273 101.416H149.565C149.837 101.416 150.057 101.196 150.057 100.924C150.057 100.653 149.837 100.433 149.565 100.433Z" fill="#D87D2B"/>
<path d="M143.621 112.636C143.53 112.544 143.402 112.492 143.273 112.492C143.144 112.492 143.017 112.544 142.926 112.636C142.834 112.727 142.782 112.854 142.782 112.983C142.782 113.113 142.834 113.24 142.926 113.331C143.017 113.423 143.144 113.475 143.273 113.475C143.402 113.475 143.53 113.423 143.621 113.331C143.712 113.24 143.765 113.113 143.765 112.983C143.765 112.854 143.712 112.727 143.621 112.636Z" fill="#D87D2B"/>
<path d="M143.798 95.1239H152.187C152.747 95.1239 153.202 94.6682 153.202 94.1081V89.9136C153.202 89.3534 152.747 88.8977 152.187 88.8977H143.798C143.237 88.8977 142.782 89.3534 142.782 89.9136V94.1081C142.782 94.6682 143.237 95.1239 143.798 95.1239ZM152.187 94.1408H151.105V91.978H152.219V94.1081C152.219 94.1261 152.205 94.1408 152.187 94.1408ZM152.219 89.9136V90.995H151.105V89.8808H152.187C152.205 89.8808 152.219 89.8955 152.219 89.9136ZM143.765 89.9136C143.765 89.8955 143.78 89.8808 143.798 89.8808H150.122V94.1408H143.798C143.78 94.1408 143.765 94.1261 143.765 94.1081V89.9136Z" fill="#D87D2B"/>
</g>
<circle cx="72.0343" cy="57.5522" r="4.31393" transform="rotate(10.9258 72.0343 57.5522)" fill="url(#paint1_linear_1151_2771)"/>
<circle cx="101.854" cy="99.8544" r="6.70508" transform="rotate(10.9258 101.854 99.8544)" fill="url(#paint2_linear_1151_2771)"/>
<g clip-path="url(#clip2_1151_2771)">
<path d="M44.8289 96.8545H20.342C19.1074 96.8545 18.103 97.8589 18.103 99.0935V119.953C18.103 121.187 19.1074 122.192 20.342 122.192H44.8289C46.0634 122.192 47.0678 121.187 47.0678 119.953V99.0935C47.0678 97.8589 46.0634 96.8545 44.8289 96.8545ZM20.342 97.7047H44.8289C45.5946 97.7047 46.2176 98.3277 46.2176 99.0935V115.446H40.6494C40.4716 114.92 39.9732 114.539 39.3873 114.539H25.7835C25.1976 114.539 24.6993 114.92 24.5214 115.446H18.9533V99.0935C18.9533 98.3277 19.5763 97.7047 20.342 97.7047ZM25.3017 115.871C25.3017 115.606 25.5178 115.39 25.7835 115.39H39.3873C39.653 115.39 39.8691 115.606 39.8691 115.871V118.592C39.8691 118.858 39.653 119.074 39.3873 119.074H25.7835C25.5178 119.074 25.3017 118.858 25.3017 118.592V115.871ZM44.8289 121.341H20.342C19.5763 121.341 18.9533 120.718 18.9533 119.953V116.297H24.4515V118.592C24.4515 119.327 25.049 119.924 25.7835 119.924H39.3873C40.1218 119.924 40.7194 119.327 40.7194 118.592V116.297H46.2176V119.953C46.2176 120.718 45.5946 121.341 44.8289 121.341Z" fill="#D87D2B"/>
<path d="M21.7022 113.122H33.4921C34.2266 113.122 34.8242 112.525 34.8242 111.79V100.454C34.8242 99.7194 34.2266 99.1218 33.4921 99.1218H21.7022C20.9677 99.1218 20.3701 99.7194 20.3701 100.454V111.79C20.3701 112.525 20.9677 113.122 21.7022 113.122ZM21.2204 100.454C21.2204 100.188 21.4365 99.9721 21.7022 99.9721H33.4921C33.7578 99.9721 33.9739 100.188 33.9739 100.454V111.79C33.9739 112.056 33.7578 112.272 33.4921 112.272H21.7022C21.4365 112.272 21.2204 112.056 21.2204 111.79V100.454Z" fill="#D87D2B"/>
<path d="M37.5733 113.122H43.4682C44.2027 113.122 44.8003 112.525 44.8003 111.79V105.895C44.8003 105.161 44.2027 104.563 43.4682 104.563H37.5733C36.8388 104.563 36.2412 105.161 36.2412 105.895V111.79C36.2412 112.525 36.8388 113.122 37.5733 113.122ZM37.0914 105.895C37.0914 105.63 37.3076 105.413 37.5733 105.413H43.4682C43.7339 105.413 43.95 105.63 43.95 105.895V111.79C43.95 112.056 43.7339 112.272 43.4682 112.272H37.5733C37.3076 112.272 37.0914 112.056 37.0914 111.79V105.895Z" fill="#D87D2B"/>
<path d="M37.5733 103.6H43.4682C44.2027 103.6 44.8003 103.002 44.8003 102.268V100.454C44.8003 99.7194 44.2027 99.1218 43.4682 99.1218H37.5733C36.8388 99.1218 36.2412 99.7194 36.2412 100.454V102.268C36.2412 103.002 36.8388 103.6 37.5733 103.6ZM37.0914 100.454C37.0914 100.188 37.3076 99.9721 37.5733 99.9721H43.4682C43.7339 99.9721 43.95 100.188 43.95 100.454V102.268C43.95 102.533 43.7339 102.75 43.4682 102.75H37.5733C37.3076 102.75 37.0914 102.533 37.0914 102.268V100.454Z" fill="#D87D2B"/>
<path d="M38.4803 101.786H42.5614C42.7962 101.786 42.9866 101.595 42.9866 101.361C42.9866 101.126 42.7962 100.936 42.5614 100.936H38.4803C38.2455 100.936 38.0552 101.126 38.0552 101.361C38.0552 101.595 38.2455 101.786 38.4803 101.786Z" fill="#D87D2B"/>
<path d="M38.4803 107.227H38.9338C39.1685 107.227 39.3589 107.037 39.3589 106.802C39.3589 106.568 39.1685 106.377 38.9338 106.377H38.4803C38.2455 106.377 38.0552 106.568 38.0552 106.802C38.0552 107.037 38.2455 107.227 38.4803 107.227Z" fill="#D87D2B"/>
<path d="M40.2943 107.227H40.7477C40.9825 107.227 41.1728 107.037 41.1728 106.802C41.1728 106.568 40.9825 106.377 40.7477 106.377H40.2943C40.0595 106.377 39.8691 106.568 39.8691 106.802C39.8691 107.037 40.0595 107.227 40.2943 107.227Z" fill="#D87D2B"/>
<path d="M42.1082 107.227H42.5617C42.7965 107.227 42.9868 107.037 42.9868 106.802C42.9868 106.568 42.7965 106.377 42.5617 106.377H42.1082C41.8734 106.377 41.6831 106.568 41.6831 106.802C41.6831 107.037 41.8734 107.227 42.1082 107.227Z" fill="#D87D2B"/>
<path d="M38.4803 108.588H38.9338C39.1685 108.588 39.3589 108.397 39.3589 108.163C39.3589 107.928 39.1685 107.738 38.9338 107.738H38.4803C38.2455 107.738 38.0552 107.928 38.0552 108.163C38.0552 108.397 38.2455 108.588 38.4803 108.588Z" fill="#D87D2B"/>
<path d="M40.2943 108.588H40.7477C40.9825 108.588 41.1728 108.397 41.1728 108.163C41.1728 107.928 40.9825 107.738 40.7477 107.738H40.2943C40.0595 107.738 39.8691 107.928 39.8691 108.163C39.8691 108.397 40.0595 108.588 40.2943 108.588Z" fill="#D87D2B"/>
<path d="M42.1082 108.588H42.5617C42.7965 108.588 42.9868 108.397 42.9868 108.163C42.9868 107.928 42.7965 107.738 42.5617 107.738H42.1082C41.8734 107.738 41.6831 107.928 41.6831 108.163C41.6831 108.397 41.8734 108.588 42.1082 108.588Z" fill="#D87D2B"/>
<path d="M38.4803 109.948H38.9338C39.1685 109.948 39.3589 109.758 39.3589 109.523C39.3589 109.288 39.1685 109.098 38.9338 109.098H38.4803C38.2455 109.098 38.0552 109.288 38.0552 109.523C38.0552 109.758 38.2455 109.948 38.4803 109.948Z" fill="#D87D2B"/>
<path d="M40.2943 109.948H40.7477C40.9825 109.948 41.1728 109.758 41.1728 109.523C41.1728 109.288 40.9825 109.098 40.7477 109.098H40.2943C40.0595 109.098 39.8691 109.288 39.8691 109.523C39.8691 109.758 40.0595 109.948 40.2943 109.948Z" fill="#D87D2B"/>
<path d="M42.1082 109.948H42.5617C42.7965 109.948 42.9868 109.758 42.9868 109.523C42.9868 109.288 42.7965 109.098 42.5617 109.098H42.1082C41.8734 109.098 41.6831 109.288 41.6831 109.523C41.6831 109.758 41.8734 109.948 42.1082 109.948Z" fill="#D87D2B"/>
<path d="M38.4803 111.308H38.9338C39.1685 111.308 39.3589 111.118 39.3589 110.883C39.3589 110.649 39.1685 110.458 38.9338 110.458H38.4803C38.2455 110.458 38.0552 110.649 38.0552 110.883C38.0552 111.118 38.2455 111.308 38.4803 111.308Z" fill="#D87D2B"/>
<path d="M40.2943 111.308H40.7477C40.9825 111.308 41.1728 111.118 41.1728 110.883C41.1728 110.649 40.9825 110.458 40.7477 110.458H40.2943C40.0595 110.458 39.8691 110.649 39.8691 110.883C39.8691 111.118 40.0595 111.308 40.2943 111.308Z" fill="#D87D2B"/>
<path d="M42.1082 111.308H42.5617C42.7965 111.308 42.9868 111.118 42.9868 110.883C42.9868 110.649 42.7965 110.458 42.5617 110.458H42.1082C41.8734 110.458 41.6831 110.649 41.6831 110.883C41.6831 111.118 41.8734 111.308 42.1082 111.308Z" fill="#D87D2B"/>
<path d="M22.6092 110.855H32.5853C32.8201 110.855 33.0105 110.665 33.0105 110.43V101.814C33.0105 101.58 32.8201 101.389 32.5853 101.389H22.6092C22.3744 101.389 22.1841 101.58 22.1841 101.814V110.43C22.1841 110.665 22.3744 110.855 22.6092 110.855ZM23.0343 102.239H32.1602V110.005H23.0343V102.239Z" fill="#D87D2B"/>
<path d="M27.1439 117.657H38.0269C38.2617 117.657 38.452 117.467 38.452 117.232C38.452 116.997 38.2617 116.807 38.0269 116.807H27.1439C26.9091 116.807 26.7188 116.997 26.7188 117.232C26.7188 117.467 26.9091 117.657 27.1439 117.657Z" fill="#D87D2B"/>
<path d="M24.8768 105.47C24.642 105.47 24.4517 105.661 24.4517 105.895V106.349C24.4517 106.584 24.642 106.774 24.8768 106.774C25.1116 106.774 25.3019 106.584 25.3019 106.349V105.895C25.3019 105.661 25.1116 105.47 24.8768 105.47Z" fill="#D87D2B"/>
<path d="M26.6903 105.47C26.4555 105.47 26.2651 105.661 26.2651 105.895V106.349C26.2651 106.584 26.4555 106.774 26.6903 106.774C26.925 106.774 27.1154 106.584 27.1154 106.349V105.895C27.1154 105.661 26.925 105.47 26.6903 105.47Z" fill="#D87D2B"/>
<path d="M28.5042 105.47C28.2694 105.47 28.0791 105.661 28.0791 105.895V106.349C28.0791 106.584 28.2694 106.774 28.5042 106.774C28.739 106.774 28.9293 106.584 28.9293 106.349V105.895C28.9293 105.661 28.739 105.47 28.5042 105.47Z" fill="#D87D2B"/>
<path d="M30.3182 105.47C30.0834 105.47 29.8931 105.661 29.8931 105.895V106.349C29.8931 106.584 30.0834 106.774 30.3182 106.774C30.553 106.774 30.7433 106.584 30.7433 106.349V105.895C30.7433 105.661 30.553 105.47 30.3182 105.47Z" fill="#D87D2B"/>
</g>
<g clip-path="url(#clip3_1151_2771)">
<path d="M127.066 52.2666C126.802 52.2666 126.588 52.4807 126.588 52.7448V53.797H110.2V31.2869H126.588V32.3391C126.588 32.6032 126.802 32.8174 127.066 32.8174C127.33 32.8174 127.545 32.6032 127.545 32.3391V28.7681C127.545 27.3792 126.415 26.2493 125.026 26.2493H111.762C110.373 26.2493 109.243 27.3792 109.243 28.7681V56.3158C109.243 57.7047 110.373 58.8347 111.762 58.8347H125.026C126.415 58.8347 127.545 57.7047 127.545 56.3158V52.7448C127.545 52.4807 127.33 52.2666 127.066 52.2666ZM111.762 27.2058H125.026C125.887 27.2058 126.588 27.9067 126.588 28.7681V30.3304H110.2V28.7681C110.2 27.9067 110.901 27.2058 111.762 27.2058ZM125.026 57.8781H111.762C110.901 57.8781 110.2 57.1773 110.2 56.3158V54.7535H126.588V56.3158C126.588 57.1773 125.887 57.8781 125.026 57.8781Z" fill="#D87D2B"/>
<path d="M117.374 29.2463H119.414C119.678 29.2463 119.893 29.0322 119.893 28.7681C119.893 28.5039 119.678 28.2898 119.414 28.2898H117.374C117.11 28.2898 116.896 28.5039 116.896 28.7681C116.896 29.0322 117.11 29.2463 117.374 29.2463Z" fill="#D87D2B"/>
<path d="M115.843 29.2463C115.969 29.2463 116.092 29.1953 116.181 29.106C116.27 29.0174 116.321 28.8937 116.321 28.7681C116.321 28.6424 116.27 28.5187 116.181 28.4301C116.092 28.3408 115.969 28.2898 115.843 28.2898C115.717 28.2898 115.594 28.3408 115.505 28.4301C115.416 28.5187 115.365 28.6424 115.365 28.7681C115.365 28.8937 115.416 29.0174 115.505 29.106C115.594 29.1953 115.717 29.2463 115.843 29.2463Z" fill="#D87D2B"/>
<path d="M136.249 33.9014H115.333C113.944 33.9014 112.814 35.0313 112.814 36.4202V48.6636C112.814 50.0525 113.944 51.1825 115.333 51.1825H136.249C137.638 51.1825 138.767 50.0525 138.767 48.6636V36.4202C138.767 35.0313 137.638 33.9014 136.249 33.9014ZM137.811 48.6636C137.811 49.5251 137.11 50.2259 136.249 50.2259H115.333C114.471 50.2259 113.77 49.5251 113.77 48.6636V36.4202C113.77 35.5588 114.471 34.8579 115.333 34.8579H136.249C137.11 34.8579 137.811 35.5588 137.811 36.4202V48.6636Z" fill="#D87D2B"/>
<path d="M116.353 45.571H119.924C120.188 45.571 120.403 45.3569 120.403 45.0928C120.403 44.8286 120.188 44.6145 119.924 44.6145H116.353C116.089 44.6145 115.875 44.8286 115.875 45.0928C115.875 45.3569 116.089 45.571 116.353 45.571Z" fill="#D87D2B"/>
<path d="M125.026 44.6145H121.455C121.191 44.6145 120.977 44.8286 120.977 45.0928C120.977 45.3569 121.191 45.571 121.455 45.571H125.026C125.29 45.571 125.504 45.3569 125.504 45.0928C125.504 44.8286 125.29 44.6145 125.026 44.6145Z" fill="#D87D2B"/>
<path d="M130.127 44.6145H126.556C126.292 44.6145 126.078 44.8286 126.078 45.0928C126.078 45.3569 126.292 45.571 126.556 45.571H130.127C130.392 45.571 130.606 45.3569 130.606 45.0928C130.606 44.8286 130.392 44.6145 130.127 44.6145Z" fill="#D87D2B"/>
<path d="M130.127 47.165H126.556C126.292 47.165 126.078 47.3792 126.078 47.6433C126.078 47.9074 126.292 48.1216 126.556 48.1216H130.127C130.392 48.1216 130.606 47.9074 130.606 47.6433C130.606 47.3792 130.392 47.165 130.127 47.165Z" fill="#D87D2B"/>
<path d="M135.228 44.6145H131.657C131.393 44.6145 131.179 44.8286 131.179 45.0928C131.179 45.3569 131.393 45.571 131.657 45.571H135.228C135.493 45.571 135.707 45.3569 135.707 45.0928C135.707 44.8286 135.493 44.6145 135.228 44.6145Z" fill="#D87D2B"/>
<path d="M125.026 47.165H116.353C116.089 47.165 115.875 47.3792 115.875 47.6433C115.875 47.9074 116.089 48.1216 116.353 48.1216H125.026C125.29 48.1216 125.504 47.9074 125.504 47.6433C125.504 47.3792 125.29 47.165 125.026 47.165Z" fill="#D87D2B"/>
<path d="M116.481 41.4898H120.307C120.641 41.4898 120.913 41.218 120.913 40.884V38.0782C120.913 37.7442 120.641 37.4724 120.307 37.4724H116.481C116.147 37.4724 115.875 37.7442 115.875 38.0782V40.884C115.875 41.218 116.147 41.4898 116.481 41.4898ZM119.956 40.5333H118.872V38.4289H119.956V40.5333ZM116.832 38.4289H117.916V40.5333H116.832V38.4289Z" fill="#D87D2B"/>
<path d="M133.698 37.4724H131.658C130.55 37.4724 129.649 38.3735 129.649 39.4811C129.649 40.5887 130.55 41.4898 131.658 41.4898H133.698C134.806 41.4898 135.707 40.5887 135.707 39.4811C135.707 38.3735 134.806 37.4724 133.698 37.4724ZM133.698 40.5333H131.658C131.077 40.5333 130.605 40.0613 130.605 39.4811C130.605 38.9009 131.077 38.4289 131.658 38.4289H133.698C134.278 38.4289 134.75 38.9009 134.75 39.4811C134.75 40.0613 134.278 40.5333 133.698 40.5333Z" fill="#D87D2B"/>
<path d="M118.394 57.2404C117.884 57.2404 117.469 56.8256 117.469 56.3157C117.469 55.8059 117.884 55.3911 118.394 55.3911C118.904 55.3911 119.319 55.8059 119.319 56.3157C119.319 56.8256 118.904 57.2404 118.394 57.2404Z" fill="#D87D2B"/>
</g>
<g clip-path="url(#clip4_1151_2771)">
<path d="M109.86 131.845H83.8423C82.5306 131.845 81.4634 132.913 81.4634 134.224V151.569C81.4634 152.881 82.5306 153.948 83.8423 153.948H92.8998L92.162 156.899H91.0693C90.8198 156.899 90.6176 157.101 90.6176 157.351C90.6176 157.6 90.8198 157.803 91.0693 157.803H92.5134C92.5139 157.803 92.5145 157.803 92.5151 157.803C92.5155 157.803 92.5159 157.803 92.5163 157.803H101.186C101.186 157.803 101.186 157.803 101.187 157.803C101.187 157.803 101.188 157.803 101.188 157.803H102.633C102.882 157.803 103.084 157.6 103.084 157.351C103.084 157.101 102.882 156.899 102.633 156.899H101.54L100.802 153.948H109.86C111.171 153.948 112.238 152.881 112.238 151.569V134.224C112.238 132.913 111.171 131.845 109.86 131.845ZM83.8423 132.749H109.86C110.673 132.749 111.335 133.411 111.335 134.224V149.19H82.3668V134.224C82.3668 133.411 83.0287 132.749 83.8423 132.749ZM100.609 156.899H93.0932L93.831 153.948H99.8709L100.609 156.899ZM109.86 153.045H83.8423C83.0287 153.045 82.3668 152.383 82.3668 151.569V150.094H111.335V151.569C111.335 152.383 110.673 153.045 109.86 153.045Z" fill="#D87D2B"/>
<path d="M90.5877 146.239H103.115C103.895 146.239 104.53 145.604 104.53 144.824V137.115C104.53 136.335 103.895 135.7 103.115 135.7H90.5877C89.8073 135.7 89.1724 136.335 89.1724 137.115V144.824C89.1724 145.604 89.8073 146.239 90.5877 146.239ZM90.0757 137.115C90.0757 136.833 90.3054 136.603 90.5877 136.603H103.115C103.397 136.603 103.626 136.833 103.626 137.115V144.824C103.626 145.106 103.397 145.336 103.115 145.336H90.5877C90.3054 145.336 90.0757 145.106 90.0757 144.824V137.115Z" fill="#D87D2B"/>
<path d="M91.5513 144.312H95.8875C96.137 144.312 96.3392 144.11 96.3392 143.86C96.3392 143.611 96.137 143.409 95.8875 143.409H91.5513C91.3018 143.409 91.0996 143.611 91.0996 143.86C91.0996 144.11 91.3018 144.312 91.5513 144.312Z" fill="#D87D2B"/>
<path d="M93.9902 142.415C93.9902 142.665 94.1925 142.867 94.4419 142.867H95.8873C96.1368 142.867 96.339 142.665 96.339 142.415C96.339 142.166 96.1368 141.963 95.8873 141.963H94.4419C94.1925 141.963 93.9902 142.166 93.9902 142.415Z" fill="#D87D2B"/>
<path d="M91.5513 142.867H92.9967C93.2462 142.867 93.4484 142.665 93.4484 142.415C93.4484 142.166 93.2462 141.963 92.9967 141.963H91.5513C91.3018 141.963 91.0996 142.166 91.0996 142.415C91.0996 142.665 91.3018 142.867 91.5513 142.867Z" fill="#D87D2B"/>
<path d="M102.151 141.963H100.705C100.456 141.963 100.253 142.166 100.253 142.415C100.253 142.665 100.456 142.867 100.705 142.867H102.151C102.4 142.867 102.602 142.665 102.602 142.415C102.602 142.166 102.4 141.963 102.151 141.963Z" fill="#D87D2B"/>
<path d="M97.8145 142.867H99.2599C99.5093 142.867 99.7116 142.665 99.7116 142.415C99.7116 142.166 99.5093 141.963 99.2599 141.963H97.8145C97.565 141.963 97.3628 142.166 97.3628 142.415C97.3628 142.665 97.565 142.867 97.8145 142.867Z" fill="#D87D2B"/>
<path d="M97.8145 144.312H99.2599C99.5093 144.312 99.7116 144.11 99.7116 143.86C99.7116 143.611 99.5093 143.409 99.2599 143.409H97.8145C97.565 143.409 97.3628 143.611 97.3628 143.86C97.3628 144.11 97.565 144.312 97.8145 144.312Z" fill="#D87D2B"/>
<path d="M92.0331 140.939H93.9603C94.4751 140.939 94.8938 140.521 94.8938 140.006V139.042C94.8938 138.528 94.4751 138.109 93.9603 138.109H92.0331C91.5184 138.109 91.0996 138.528 91.0996 139.042V140.006C91.0996 140.521 91.5184 140.939 92.0331 140.939ZM93.9904 139.042V140.006C93.9904 140.023 93.9769 140.036 93.9603 140.036H93.4484V139.012H93.9603C93.9769 139.012 93.9904 139.026 93.9904 139.042ZM92.003 139.042C92.003 139.026 92.0165 139.012 92.0331 139.012H92.545V140.036H92.0331C92.0165 140.036 92.003 140.023 92.003 140.006V139.042Z" fill="#D87D2B"/>
<path d="M100.223 140.939H101.187C101.967 140.939 102.602 140.305 102.602 139.524C102.602 138.744 101.967 138.109 101.187 138.109H100.223C99.443 138.109 98.8081 138.744 98.8081 139.524C98.8081 140.305 99.443 140.939 100.223 140.939ZM100.223 139.012H101.187C101.469 139.012 101.699 139.242 101.699 139.524C101.699 139.806 101.469 140.036 101.187 140.036H100.223C99.9411 140.036 99.7115 139.806 99.7115 139.524C99.7115 139.242 99.9411 139.012 100.223 139.012Z" fill="#D87D2B"/>
<path d="M96.8508 152.443C96.3693 152.443 95.9775 152.051 95.9775 151.569C95.9775 151.088 96.3693 150.696 96.8508 150.696C97.3323 150.696 97.7241 151.088 97.7241 151.569C97.7241 152.051 97.3323 152.443 96.8508 152.443Z" fill="#D87D2B"/>
</g>
<circle opacity="0.8" cx="138.609" cy="72.5333" r="10.1487" transform="rotate(10.9258 138.609 72.5333)" fill="url(#paint3_linear_1151_2771)"/>
<circle opacity="0.8" cx="54.2036" cy="27.0489" r="5.31886" transform="rotate(10.9258 54.2036 27.0489)" fill="url(#paint4_linear_1151_2771)"/>
<circle opacity="0.8" cx="67.5994" cy="112.856" r="5.16334" transform="rotate(10.9258 67.5994 112.856)" fill="url(#paint5_linear_1151_2771)"/>
<path d="M77.6095 87.8357C77.4393 87.8357 77.3013 87.9737 77.3013 88.1439V88.8014C77.3013 88.9717 77.4393 89.1097 77.6095 89.1097C77.7797 89.1097 77.9177 88.9717 77.9177 88.8014V88.1439C77.9177 87.9737 77.7797 87.8357 77.6095 87.8357Z" fill="url(#paint6_linear_1151_2771)"/>
<path d="M78.5958 87.8357C78.4256 87.8357 78.2876 87.9737 78.2876 88.1439V88.8014C78.2876 88.9717 78.4256 89.1097 78.5958 89.1097C78.766 89.1097 78.904 88.9717 78.904 88.8014V88.1439C78.904 87.9737 78.766 87.8357 78.5958 87.8357Z" fill="url(#paint7_linear_1151_2771)"/>
<path d="M79.5821 87.8357C79.4119 87.8357 79.2739 87.9737 79.2739 88.1439V88.8014C79.2739 88.9717 79.4119 89.1097 79.5821 89.1097C79.7524 89.1097 79.8904 88.9717 79.8904 88.8014V88.1439C79.8904 87.9737 79.7524 87.8357 79.5821 87.8357Z" fill="url(#paint8_linear_1151_2771)"/>
<path d="M80.5685 87.8357C80.3983 87.8357 80.2603 87.9737 80.2603 88.1439V88.8014C80.2603 88.9717 80.3983 89.1097 80.5685 89.1097C80.7387 89.1097 80.8767 88.9717 80.8767 88.8014V88.1439C80.8767 87.9737 80.7387 87.8357 80.5685 87.8357Z" fill="url(#paint9_linear_1151_2771)"/>
<path d="M81.8834 89.1097C82.0536 89.1097 82.1916 88.9717 82.1916 88.8014V88.1439C82.1916 87.9737 82.0536 87.8357 81.8834 87.8357C81.7132 87.8357 81.5752 87.9737 81.5752 88.1439V88.8014C81.5752 88.9717 81.7132 89.1097 81.8834 89.1097Z" fill="url(#paint10_linear_1151_2771)"/>
<path d="M83.178 88.8014V88.1439C83.178 87.9737 83.04 87.8357 82.8697 87.8357C82.6995 87.8357 82.5615 87.9737 82.5615 88.1439V88.8014C82.5615 88.9717 82.6995 89.1097 82.8697 89.1097C83.04 89.1097 83.178 88.9717 83.178 88.8014Z" fill="url(#paint11_linear_1151_2771)"/>
<path d="M84.1643 88.8014V88.1439C84.1643 87.9737 84.0263 87.8357 83.8561 87.8357C83.6859 87.8357 83.5479 87.9737 83.5479 88.1439V88.8014C83.5479 88.9717 83.6859 89.1097 83.8561 89.1097C84.0263 89.1097 84.1643 88.9717 84.1643 88.8014Z" fill="url(#paint12_linear_1151_2771)"/>
<path d="M84.8424 87.8357C84.6722 87.8357 84.5342 87.9737 84.5342 88.1439V88.8014C84.5342 88.9717 84.6722 89.1097 84.8424 89.1097C85.0126 89.1097 85.1506 88.9717 85.1506 88.8014V88.1439C85.1506 87.9737 85.0126 87.8357 84.8424 87.8357Z" fill="url(#paint13_linear_1151_2771)"/>
<path d="M86.1573 89.1097C86.3276 89.1097 86.4656 88.9717 86.4656 88.8014V88.1439C86.4656 87.9737 86.3276 87.8357 86.1573 87.8357C85.9871 87.8357 85.8491 87.9737 85.8491 88.1439V88.8014C85.8491 88.9717 85.9871 89.1097 86.1573 89.1097Z" fill="url(#paint14_linear_1151_2771)"/>
<path d="M87.4519 88.8014V88.1439C87.4519 87.9737 87.3139 87.8357 87.1437 87.8357C86.9734 87.8357 86.8354 87.9737 86.8354 88.1439V88.8014C86.8354 88.9717 86.9734 89.1097 87.1437 89.1097C87.3139 89.1097 87.4519 88.9717 87.4519 88.8014Z" fill="url(#paint15_linear_1151_2771)"/>
<path d="M88.4382 88.8014V88.1439C88.4382 87.9737 88.3002 87.8357 88.13 87.8357C87.9598 87.8357 87.8218 87.9737 87.8218 88.1439V88.8014C87.8218 88.9717 87.9598 89.1097 88.13 89.1097C88.3002 89.1097 88.4382 88.9717 88.4382 88.8014Z" fill="url(#paint16_linear_1151_2771)"/>
<path d="M89.4245 88.8014V88.1439C89.4245 87.9737 89.2865 87.8357 89.1163 87.8357C88.9461 87.8357 88.8081 87.9737 88.8081 88.1439V88.8014C88.8081 88.9717 88.9461 89.1097 89.1163 89.1097C89.2865 89.1097 89.4245 88.9717 89.4245 88.8014Z" fill="url(#paint17_linear_1151_2771)"/>
<path d="M90.7395 88.8014V88.1439C90.7395 87.9737 90.6015 87.8357 90.4313 87.8357C90.261 87.8357 90.123 87.9737 90.123 88.1439V88.8014C90.123 88.9717 90.261 89.1097 90.4313 89.1097C90.6015 89.1097 90.7395 88.9717 90.7395 88.8014Z" fill="url(#paint18_linear_1151_2771)"/>
<path d="M91.7258 88.8014V88.1439C91.7258 87.9737 91.5878 87.8357 91.4176 87.8357C91.2474 87.8357 91.1094 87.9737 91.1094 88.1439V88.8014C91.1094 88.9717 91.2474 89.1097 91.4176 89.1097C91.5878 89.1097 91.7258 88.9717 91.7258 88.8014Z" fill="url(#paint19_linear_1151_2771)"/>
<path d="M92.7121 88.8014V88.1439C92.7121 87.9737 92.5741 87.8357 92.4039 87.8357C92.2337 87.8357 92.0957 87.9737 92.0957 88.1439V88.8014C92.0957 88.9717 92.2337 89.1097 92.4039 89.1097C92.5741 89.1097 92.7121 88.9717 92.7121 88.8014Z" fill="url(#paint20_linear_1151_2771)"/>
<path d="M93.3903 87.8357C93.22 87.8357 93.082 87.9737 93.082 88.1439V88.8014C93.082 88.9717 93.22 89.1097 93.3903 89.1097C93.5605 89.1097 93.6985 88.9717 93.6985 88.8014V88.1439C93.6985 87.9737 93.5605 87.8357 93.3903 87.8357Z" fill="url(#paint21_linear_1151_2771)"/>
<path d="M93.3906 84.8767H77.6098C77.0773 84.8767 76.644 85.3099 76.644 85.8425V86.1712C76.644 86.7038 77.0773 87.137 77.6098 87.137H93.3906C93.9231 87.137 94.3564 86.7038 94.3564 86.1712V85.8425C94.3564 85.3099 93.9231 84.8767 93.3906 84.8767ZM93.7399 86.1712C93.7399 86.3638 93.5832 86.5205 93.3906 86.5205H77.6098C77.4172 86.5205 77.2605 86.3638 77.2605 86.1712V85.8425C77.2605 85.6498 77.4172 85.4931 77.6098 85.4931H93.3906C93.5832 85.4931 93.7399 85.6498 93.7399 85.8425V86.1712Z" fill="url(#paint22_linear_1151_2771)"/>
<path d="M93.3902 90.4658H86.1573C85.9871 90.4658 85.8491 90.6038 85.8491 90.774C85.8491 90.9443 85.9871 91.0823 86.1573 91.0823H93.3902C93.5604 91.0823 93.6984 90.9443 93.6984 90.774C93.6984 90.6038 93.5604 90.4658 93.3902 90.4658Z" fill="url(#paint23_linear_1151_2771)"/>
<path d="M84.8423 90.4658H81.8834C81.7132 90.4658 81.5752 90.6038 81.5752 90.774C81.5752 90.9443 81.7132 91.0823 81.8834 91.0823H84.8423C85.0125 91.0823 85.1505 90.9443 85.1505 90.774C85.1505 90.6038 85.0125 90.4658 84.8423 90.4658Z" fill="url(#paint24_linear_1151_2771)"/>
<path d="M96 82.5547V81.2397C96 80.3447 95.2718 79.6165 94.3767 79.6165H76.6233C75.7282 79.6165 75 80.3447 75 81.2397V83.2123C75 83.2123 75 83.2124 75 83.2125V91.7603C75 92.6554 75.7282 93.3836 76.6233 93.3836H94.3767C95.2718 93.3836 96 92.6554 96 91.7603V82.5549C96 82.5549 96 82.5548 96 82.5547ZM95.3836 83.5617H95.1208L95.3836 83.2989V83.5617ZM93.477 83.5617L95.1619 81.8767H95.3836V82.4272L94.2491 83.5617H93.477ZM91.8331 83.5617L93.5181 81.8767H94.2901L92.6052 83.5617H91.8331ZM90.1893 83.5617L91.8742 81.8767H92.6463L90.9614 83.5617H90.1893ZM88.5455 83.5617L90.2304 81.8767H91.0025L89.3175 83.5617H88.5455ZM86.9016 83.5617L88.5865 81.8767H89.3586L87.6737 83.5617H86.9016ZM85.2578 83.5617L86.9427 81.8767H87.7148L86.0298 83.5617H85.2578ZM83.6139 83.5617L85.2989 81.8767H86.0709L84.386 83.5617H83.6139ZM81.9701 83.5617L83.655 81.8767H84.4271L82.7422 83.5617H81.9701ZM80.3263 83.5617L82.0112 81.8767H82.7833L81.0983 83.5617H80.3263ZM78.6824 83.5617L80.3674 81.8767H81.1394L79.4545 83.5617H78.6824ZM77.0386 83.5617L78.7235 81.8767H79.4956L77.8107 83.5617H77.0386ZM75.6164 83.5617V83.34L77.0797 81.8767H77.8518L76.1668 83.5617H75.6164ZM75.6164 81.8767H76.208L75.6164 82.4683V81.8767ZM76.6233 80.2329H94.3767C94.9319 80.2329 95.3836 80.6846 95.3836 81.2397V81.2603H95.0344C95.0343 81.2603 95.0342 81.2603 95.0342 81.2603H93.3905C93.3905 81.2603 93.3904 81.2603 93.3903 81.2603H91.7467C91.7466 81.2603 91.7466 81.2603 91.7465 81.2603H90.1029C90.1028 81.2603 90.1027 81.2603 90.1027 81.2603H88.459C88.4589 81.2603 88.4589 81.2603 88.4588 81.2603H86.8152C86.8151 81.2603 86.815 81.2603 86.815 81.2603H85.1714C85.1713 81.2603 85.1712 81.2603 85.1712 81.2603H83.5275C83.5275 81.2603 83.5274 81.2603 83.5273 81.2603H81.8837C81.8836 81.2603 81.8836 81.2603 81.8835 81.2603H80.2398C80.2398 81.2603 80.2397 81.2603 80.2396 81.2603H78.596C78.5959 81.2603 78.5958 81.2603 78.5958 81.2603H76.9521C76.9521 81.2603 76.952 81.2603 76.9519 81.2603H75.6164V81.2397C75.6164 80.6846 76.0681 80.2329 76.6233 80.2329ZM94.3767 92.7671H76.6233C76.0681 92.7671 75.6164 92.3155 75.6164 91.7603V84.1781H95.3836V91.7603C95.3836 92.3155 94.9319 92.7671 94.3767 92.7671Z" fill="url(#paint25_linear_1151_2771)"/>
<path d="M101.692 105.091V94.1818H102.39V105.091H101.692ZM103.707 97.6719C103.667 97.2997 103.5 97.0099 103.204 96.8026C102.912 96.5952 102.531 96.4915 102.062 96.4915C101.733 96.4915 101.45 96.5412 101.214 96.6406C100.979 96.7401 100.798 96.875 100.673 97.0455C100.548 97.2159 100.484 97.4105 100.481 97.6293C100.481 97.8111 100.523 97.9687 100.605 98.1023C100.69 98.2358 100.805 98.3494 100.95 98.4432C101.095 98.5341 101.256 98.6108 101.432 98.6733C101.608 98.7358 101.785 98.7884 101.964 98.831L102.782 99.0355C103.112 99.1122 103.429 99.2159 103.733 99.3466C104.04 99.4773 104.314 99.642 104.555 99.8409C104.8 100.04 104.993 100.28 105.135 100.561C105.277 100.842 105.348 101.172 105.348 101.55C105.348 102.061 105.217 102.511 104.956 102.901C104.694 103.287 104.317 103.589 103.822 103.808C103.331 104.024 102.736 104.132 102.037 104.132C101.358 104.132 100.768 104.027 100.268 103.817C99.7711 103.607 99.3819 103.3 99.1007 102.896C98.8223 102.493 98.6717 102.001 98.649 101.422H100.204C100.227 101.726 100.321 101.979 100.486 102.18C100.65 102.382 100.865 102.533 101.129 102.632C101.396 102.732 101.694 102.781 102.024 102.781C102.368 102.781 102.669 102.73 102.927 102.628C103.189 102.523 103.393 102.378 103.541 102.193C103.689 102.006 103.764 101.787 103.767 101.537C103.764 101.31 103.697 101.122 103.567 100.974C103.436 100.824 103.253 100.699 103.017 100.599C102.784 100.497 102.511 100.406 102.199 100.327L101.206 100.071C100.487 99.8864 99.9189 99.6065 99.5012 99.2315C99.0865 98.8537 98.8791 98.3523 98.8791 97.7273C98.8791 97.2131 99.0183 96.7628 99.2967 96.3764C99.5779 95.9901 99.96 95.6903 100.443 95.4773C100.926 95.2614 101.473 95.1534 102.084 95.1534C102.703 95.1534 103.246 95.2614 103.711 95.4773C104.18 95.6903 104.548 95.9872 104.815 96.3679C105.082 96.7457 105.22 97.1804 105.229 97.6719H103.707Z" fill="white"/>
<path d="M81.1327 74.179L80.9367 74.6051H78.1583L78.3117 74.179H81.1327ZM80.7662 75.0312L80.5702 75.4574H78.1583L78.3117 75.0312H80.7662ZM81.6356 73.0284L81.431 73.4716C81.3401 73.3892 81.2442 73.3182 81.1434 73.2585C81.0425 73.1989 80.9367 73.1527 80.8259 73.12C80.7151 73.0874 80.5986 73.071 80.4765 73.071C80.235 73.071 80.0177 73.1378 79.8245 73.2713C79.6313 73.4048 79.4786 73.6016 79.3664 73.8615C79.2542 74.1214 79.1981 74.4403 79.1981 74.8182C79.1981 75.196 79.2542 75.5149 79.3664 75.7749C79.4786 76.0348 79.6313 76.2315 79.8245 76.3651C80.0177 76.4986 80.235 76.5653 80.4765 76.5653C80.6015 76.5653 80.7194 76.549 80.8302 76.5163C80.9424 76.4837 81.0468 76.4389 81.1434 76.3821C81.2414 76.3253 81.3316 76.2614 81.414 76.1903L81.627 76.6335C81.4779 76.7741 81.3032 76.8807 81.1029 76.9531C80.9026 77.0241 80.6938 77.0597 80.4765 77.0597C80.127 77.0597 79.8174 76.9688 79.5475 76.7869C79.279 76.6051 79.0681 76.3466 78.9147 76.0114C78.7627 75.6761 78.6867 75.2784 78.6867 74.8182C78.6867 74.358 78.7627 73.9602 78.9147 73.625C79.0681 73.2898 79.279 73.0312 79.5475 72.8494C79.8174 72.6676 80.127 72.5767 80.4765 72.5767C80.7023 72.5767 80.9133 72.6158 81.1093 72.6939C81.3067 72.772 81.4822 72.8835 81.6356 73.0284Z" fill="white"/>
<defs>
<linearGradient id="paint0_linear_1151_2771" x1="85.8866" y1="12.5677" x2="85.8866" y2="159.205" gradientUnits="userSpaceOnUse">
<stop stop-color="#D27254"/>
<stop offset="1" stop-color="#C73926"/>
</linearGradient>
<linearGradient id="paint1_linear_1151_2771" x1="72.0343" y1="53.2382" x2="72.0343" y2="61.8661" gradientUnits="userSpaceOnUse">
<stop offset="0.463542" stop-color="#C33124"/>
<stop offset="1" stop-color="#FA6052"/>
</linearGradient>
<linearGradient id="paint2_linear_1151_2771" x1="101.854" y1="93.1493" x2="101.854" y2="106.559" gradientUnits="userSpaceOnUse">
<stop offset="0.463542" stop-color="#C33124"/>
<stop offset="1" stop-color="#FA6052"/>
</linearGradient>
<linearGradient id="paint3_linear_1151_2771" x1="138.609" y1="62.3846" x2="138.609" y2="82.6819" gradientUnits="userSpaceOnUse">
<stop offset="0.322917" stop-color="#D87D2B"/>
<stop offset="1" stop-color="#C73926"/>
</linearGradient>
<linearGradient id="paint4_linear_1151_2771" x1="54.2036" y1="21.7301" x2="54.2036" y2="32.3678" gradientUnits="userSpaceOnUse">
<stop offset="0.322917" stop-color="#D87D2B"/>
<stop offset="1" stop-color="#C73926"/>
</linearGradient>
<linearGradient id="paint5_linear_1151_2771" x1="67.5994" y1="107.693" x2="67.5994" y2="118.019" gradientUnits="userSpaceOnUse">
<stop offset="0.322917" stop-color="#D87D2B"/>
<stop offset="1" stop-color="#C73926"/>
</linearGradient>
<linearGradient id="paint6_linear_1151_2771" x1="77.6095" y1="87.8357" x2="77.6095" y2="89.1097" gradientUnits="userSpaceOnUse">
<stop offset="0.322917" stop-color="#D87D2B"/>
<stop offset="1" stop-color="#C73926"/>
</linearGradient>
<linearGradient id="paint7_linear_1151_2771" x1="78.5958" y1="87.8357" x2="78.5958" y2="89.1097" gradientUnits="userSpaceOnUse">
<stop offset="0.322917" stop-color="#D87D2B"/>
<stop offset="1" stop-color="#C73926"/>
</linearGradient>
<linearGradient id="paint8_linear_1151_2771" x1="79.5821" y1="87.8357" x2="79.5821" y2="89.1097" gradientUnits="userSpaceOnUse">
<stop offset="0.322917" stop-color="#D87D2B"/>
<stop offset="1" stop-color="#C73926"/>
</linearGradient>
<linearGradient id="paint9_linear_1151_2771" x1="80.5685" y1="87.8357" x2="80.5685" y2="89.1097" gradientUnits="userSpaceOnUse">
<stop offset="0.322917" stop-color="#D87D2B"/>
<stop offset="1" stop-color="#C73926"/>
</linearGradient>
<linearGradient id="paint10_linear_1151_2771" x1="81.8834" y1="87.8357" x2="81.8834" y2="89.1097" gradientUnits="userSpaceOnUse">
<stop offset="0.322917" stop-color="#D87D2B"/>
<stop offset="1" stop-color="#C73926"/>
</linearGradient>
<linearGradient id="paint11_linear_1151_2771" x1="82.8697" y1="87.8357" x2="82.8697" y2="89.1097" gradientUnits="userSpaceOnUse">
<stop offset="0.322917" stop-color="#D87D2B"/>
<stop offset="1" stop-color="#C73926"/>
</linearGradient>
<linearGradient id="paint12_linear_1151_2771" x1="83.8561" y1="87.8357" x2="83.8561" y2="89.1097" gradientUnits="userSpaceOnUse">
<stop offset="0.322917" stop-color="#D87D2B"/>
<stop offset="1" stop-color="#C73926"/>
</linearGradient>
<linearGradient id="paint13_linear_1151_2771" x1="84.8424" y1="87.8357" x2="84.8424" y2="89.1097" gradientUnits="userSpaceOnUse">
<stop offset="0.322917" stop-color="#D87D2B"/>
<stop offset="1" stop-color="#C73926"/>
</linearGradient>
<linearGradient id="paint14_linear_1151_2771" x1="86.1573" y1="87.8357" x2="86.1573" y2="89.1097" gradientUnits="userSpaceOnUse">
<stop offset="0.322917" stop-color="#D87D2B"/>
<stop offset="1" stop-color="#C73926"/>
</linearGradient>
<linearGradient id="paint15_linear_1151_2771" x1="87.1437" y1="87.8357" x2="87.1437" y2="89.1097" gradientUnits="userSpaceOnUse">
<stop offset="0.322917" stop-color="#D87D2B"/>
<stop offset="1" stop-color="#C73926"/>
</linearGradient>
<linearGradient id="paint16_linear_1151_2771" x1="88.13" y1="87.8357" x2="88.13" y2="89.1097" gradientUnits="userSpaceOnUse">
<stop offset="0.322917" stop-color="#D87D2B"/>
<stop offset="1" stop-color="#C73926"/>
</linearGradient>
<linearGradient id="paint17_linear_1151_2771" x1="89.1163" y1="87.8357" x2="89.1163" y2="89.1097" gradientUnits="userSpaceOnUse">
<stop offset="0.322917" stop-color="#D87D2B"/>
<stop offset="1" stop-color="#C73926"/>
</linearGradient>
<linearGradient id="paint18_linear_1151_2771" x1="90.4313" y1="87.8357" x2="90.4313" y2="89.1097" gradientUnits="userSpaceOnUse">
<stop offset="0.322917" stop-color="#D87D2B"/>
<stop offset="1" stop-color="#C73926"/>
</linearGradient>
<linearGradient id="paint19_linear_1151_2771" x1="91.4176" y1="87.8357" x2="91.4176" y2="89.1097" gradientUnits="userSpaceOnUse">
<stop offset="0.322917" stop-color="#D87D2B"/>
<stop offset="1" stop-color="#C73926"/>
</linearGradient>
<linearGradient id="paint20_linear_1151_2771" x1="92.4039" y1="87.8357" x2="92.4039" y2="89.1097" gradientUnits="userSpaceOnUse">
<stop offset="0.322917" stop-color="#D87D2B"/>
<stop offset="1" stop-color="#C73926"/>
</linearGradient>
<linearGradient id="paint21_linear_1151_2771" x1="93.3903" y1="87.8357" x2="93.3903" y2="89.1097" gradientUnits="userSpaceOnUse">
<stop offset="0.322917" stop-color="#D87D2B"/>
<stop offset="1" stop-color="#C73926"/>
</linearGradient>
<linearGradient id="paint22_linear_1151_2771" x1="85.5002" y1="84.8767" x2="85.5002" y2="87.137" gradientUnits="userSpaceOnUse">
<stop offset="0.322917" stop-color="#D87D2B"/>
<stop offset="1" stop-color="#C73926"/>
</linearGradient>
<linearGradient id="paint23_linear_1151_2771" x1="89.7738" y1="90.4658" x2="89.7738" y2="91.0823" gradientUnits="userSpaceOnUse">
<stop offset="0.322917" stop-color="#D87D2B"/>
<stop offset="1" stop-color="#C73926"/>
</linearGradient>
<linearGradient id="paint24_linear_1151_2771" x1="83.3629" y1="90.4658" x2="83.3629" y2="91.0823" gradientUnits="userSpaceOnUse">
<stop offset="0.322917" stop-color="#D87D2B"/>
<stop offset="1" stop-color="#C73926"/>
</linearGradient>
<linearGradient id="paint25_linear_1151_2771" x1="85.5" y1="79.6165" x2="85.5" y2="93.3836" gradientUnits="userSpaceOnUse">
<stop offset="0.322917" stop-color="#D87D2B"/>
<stop offset="1" stop-color="#C73926"/>
</linearGradient>
<clipPath id="clip0_1151_2771">
<rect width="31.6802" height="31.6802" fill="white" transform="translate(26.2495 33.4905)"/>
</clipPath>
<clipPath id="clip1_1151_2771">
<rect width="33.4905" height="33.4905" fill="white" transform="translate(131.247 84.179)"/>
</clipPath>
<clipPath id="clip2_1151_2771">
<rect width="28.9648" height="28.9648" fill="white" transform="translate(18.103 95.0408)"/>
</clipPath>
<clipPath id="clip3_1151_2771">
<rect width="32.5854" height="32.5854" fill="white" transform="translate(107.713 26.2493)"/>
</clipPath>
<clipPath id="clip4_1151_2771">
<rect width="30.7751" height="30.7751" fill="white" transform="translate(81.4634 129.437)"/>
</clipPath>
</defs>
</svg>
