<svg width="14" height="26" viewBox="0 0 14 26" fill="none" xmlns="http://www.w3.org/2000/svg">
<path d="M13.6823 0.957246C13.8676 1.147 13.9714 1.40174 13.9714 1.667C13.9714 1.93225 13.8676 2.18699 13.6823 2.37675L3.32714 12.9996L13.6823 23.6204C13.8676 23.8101 13.9714 24.0649 13.9714 24.3301C13.9714 24.5954 13.8676 24.8501 13.6823 25.0399C13.5922 25.1324 13.4845 25.2059 13.3655 25.2562C13.2465 25.3064 13.1187 25.3322 12.9895 25.3322C12.8604 25.3322 12.7325 25.3064 12.6136 25.2562C12.4946 25.2059 12.3869 25.1324 12.2968 25.0399L1.28501 13.7412C1.09161 13.5428 0.983365 13.2767 0.983365 12.9996C0.983365 12.7225 1.09161 12.4564 1.28501 12.258L12.2968 0.959371C12.3869 0.866841 12.4946 0.793298 12.6136 0.743081C12.7325 0.692864 12.8604 0.666992 12.9895 0.666992C13.1187 0.666992 13.2465 0.692864 13.3655 0.743081C13.4845 0.793298 13.5922 0.866841 13.6823 0.959371V0.957246Z" fill="white"/>
</svg>
