<svg width="20" height="26" viewBox="0 0 20 26" fill="none" xmlns="http://www.w3.org/2000/svg">
<path d="M16.6667 0H3.33333C2.44928 0 1.60143 0.34241 0.976311 0.951903C0.351189 1.5614 0 2.38805 0 3.25V22.75C0 23.612 0.351189 24.4386 0.976311 25.0481C1.60143 25.6576 2.44928 26 3.33333 26H16.6667C17.5507 26 18.3986 25.6576 19.0237 25.0481C19.6488 24.4386 20 23.612 20 22.75V3.25C20 2.38805 19.6488 1.5614 19.0237 0.951903C18.3986 0.34241 17.5507 0 16.6667 0V0ZM6.66667 9.55987C6.66664 9.41612 6.70572 9.27493 6.77994 9.15071C6.85416 9.0265 6.96086 8.9237 7.08913 8.85283C7.21741 8.78195 7.36268 8.74552 7.51011 8.74726C7.65754 8.74901 7.80186 8.78886 7.92833 8.86275L13.8083 12.3029C13.9319 12.375 14.0342 12.4772 14.1053 12.5993C14.1763 12.7215 14.2136 12.8596 14.2136 13C14.2136 13.1404 14.1763 13.2785 14.1053 13.4007C14.0342 13.5228 13.9319 13.625 13.8083 13.6971L7.92833 17.1372C7.80174 17.2112 7.65726 17.2511 7.50969 17.2527C7.36212 17.2544 7.21673 17.2178 7.08841 17.1468C6.96008 17.0757 6.85341 16.9727 6.77931 16.8482C6.70521 16.7238 6.66634 16.5824 6.66667 16.4385V9.5615V9.55987Z" fill="black"/>
</svg>
