<svg width="30" height="30" viewBox="0 0 30 30" fill="none" xmlns="http://www.w3.org/2000/svg">
<path opacity="0.5" fill-rule="evenodd" clip-rule="evenodd" d="M15 30C23.2843 30 30 23.2843 30 15C30 6.71573 23.2843 0 15 0C6.71573 0 0 6.71573 0 15C0 23.2843 6.71573 30 15 30ZM18.115 19.5587C18.63 19.1327 19.2875 18.8776 20 18.8776C21.655 18.8776 23 20.25 23 21.9388C23 23.6276 21.655 25 20 25C18.345 25 17 23.6276 17 21.9388C17 21.6454 17.04 21.3597 17.1175 21.0893L12.1975 17.4541C11.4675 18.4413 10.3075 19.0816 9 19.0816C6.79 19.0816 5 17.2551 5 15C5 12.7449 6.79 10.9184 9 10.9184C10.3075 10.9184 11.4675 11.5587 12.1975 12.5459L17.1175 8.91071C17.04 8.64031 17 8.35714 17 8.06122C17 6.37245 18.345 5 20 5C21.655 5 23 6.37245 23 8.06122C23 9.75 21.655 11.1224 20 11.1224C19.2875 11.1224 18.63 10.8673 18.115 10.4413L12.935 14.2653C13.0217 14.7511 13.0217 15.2489 12.935 15.7347L18.115 19.5587ZM21.3 8.06122C21.3 7.32908 20.7175 6.73469 20 6.73469C19.2825 6.73469 18.7 7.32908 18.7 8.06122C18.7 8.79337 19.2825 9.38776 20 9.38776C20.7175 9.38776 21.3 8.79337 21.3 8.06122ZM6.8 15C6.8 16.2372 7.7875 17.2449 9 17.2449C10.2125 17.2449 11.2 16.2372 11.2 15C11.2 13.7628 10.2125 12.7551 9 12.7551C7.7875 12.7551 6.8 13.7628 6.8 15ZM18.7 21.9388C18.7 22.6709 19.2825 23.2653 20 23.2653C20.7175 23.2653 21.3 22.6709 21.3 21.9388C21.3 21.2066 20.7175 20.6122 20 20.6122C19.2825 20.6122 18.7 21.2066 18.7 21.9388Z" fill="white"/>
</svg>
