<svg width="30" height="30" viewBox="0 0 30 30" fill="none" xmlns="http://www.w3.org/2000/svg">
<path opacity="0.5" fill-rule="evenodd" clip-rule="evenodd" d="M15 30C23.2843 30 30 23.2843 30 15C30 6.71573 23.2843 0 15 0C6.71573 0 0 6.71573 0 15C0 23.2843 6.71573 30 15 30ZM7.80238 17.7716C7.46873 17.9224 7.11114 18 6.75 18C6.02065 18 5.32118 17.6839 4.80546 17.1213C4.28973 16.5587 4 15.7956 4 15C4 14.2044 4.28973 13.4413 4.80546 12.8787C5.32118 12.3161 6.02065 12 6.75 12C7.11114 12 7.46873 12.0776 7.80238 12.2284C8.13602 12.3791 8.43918 12.6001 8.69454 12.8787C8.9499 13.1573 9.15247 13.488 9.29067 13.8519C9.42887 14.2159 9.5 14.606 9.5 15C9.5 15.394 9.42887 15.7841 9.29067 16.1481C9.15247 16.512 8.9499 16.8427 8.69454 17.1213C8.43918 17.3999 8.13602 17.6209 7.80238 17.7716ZM16.0524 17.7716C15.7187 17.9224 15.3611 18 15 18C14.2707 18 13.5712 17.6839 13.0555 17.1213C12.5397 16.5587 12.25 15.7956 12.25 15C12.25 14.2044 12.5397 13.4413 13.0555 12.8787C13.5712 12.3161 14.2707 12 15 12C15.3611 12 15.7187 12.0776 16.0524 12.2284C16.386 12.3791 16.6892 12.6001 16.9445 12.8787C17.1999 13.1573 17.4025 13.488 17.5407 13.8519C17.6789 14.2159 17.75 14.606 17.75 15C17.75 15.394 17.6789 15.7841 17.5407 16.1481C17.4025 16.512 17.1999 16.8427 16.9445 17.1213C16.6892 17.3999 16.386 17.6209 16.0524 17.7716ZM24.3024 17.7716C23.9687 17.9224 23.6111 18 23.25 18C22.5207 18 21.8212 17.6839 21.3055 17.1213C20.7897 16.5587 20.5 15.7956 20.5 15C20.5 14.2044 20.7897 13.4413 21.3055 12.8787C21.8212 12.3161 22.5207 12 23.25 12C23.6111 12 23.9687 12.0776 24.3024 12.2284C24.636 12.3791 24.9392 12.6001 25.1945 12.8787C25.4499 13.1573 25.6525 13.488 25.7907 13.8519C25.9289 14.2159 26 14.606 26 15C26 15.394 25.9289 15.7841 25.7907 16.1481C25.6525 16.512 25.4499 16.8427 25.1945 17.1213C24.9392 17.3999 24.636 17.6209 24.3024 17.7716Z" fill="white"/>
</svg>
